<?xml version="1.0" encoding="UTF-8" standalone="no"?>
<!-- Created with Inkscape (http://www.inkscape.org/) -->

<svg
   version="1.1"
   id="svg2"
   width="39.999966"
   height="40"
   viewBox="0 0 39.999966 40"
   sodipodi:docname="teacup.svg"
   xmlns:inkscape="http://www.inkscape.org/namespaces/inkscape"
   xmlns:sodipodi="http://sodipodi.sourceforge.net/DTD/sodipodi-0.dtd"
   xmlns="http://www.w3.org/2000/svg"
   xmlns:svg="http://www.w3.org/2000/svg">
  <defs
     id="defs6" />
  <sodipodi:namedview
     id="namedview4"
     pagecolor="#000000"
     bordercolor="#000000"
     borderopacity="1"
     inkscape:showpageshadow="2"
     inkscape:pageopacity="0.0"
     inkscape:pagecheckerboard="0"
     inkscape:deskcolor="#d1d1d1" />
  <g
     id="g8"
     inkscape:groupmode="layer"
     inkscape:label="ink_ext_XXXXXX"
     transform="matrix(1.3333333,0,0,-1.3333333,-20.000034,61.333332)">
    <g
       id="g10"
       transform="scale(0.1)">
      <path
         d="m 415,320 c 0,-13.809 -47.012,-25 -105,-25 -57.988,0 -105,11.191 -105,25 0,13.809 47.012,25 105,25 57.988,0 105,-11.191 105,-25 z"
         style="fill:none;stroke:#000000;stroke-width:10;stroke-linecap:round;stroke-linejoin:round;stroke-miterlimit:10;stroke-dasharray:none;stroke-opacity:1"
         id="path14"
         inkscape:export-filename="teacup.svg"
         inkscape:export-xdpi="96"
         inkscape:export-ydpi="96" />
      <path
         d="m 265,205 c 0,-5.523 20.148,-10 45,-10 24.852,0 45,4.477 45,10"
         style="fill:none;stroke:#000000;stroke-width:10;stroke-linecap:round;stroke-linejoin:round;stroke-miterlimit:10;stroke-dasharray:none;stroke-opacity:1"
         id="path16" />
      <path
         d="m 205,320 v -5 c 0,-55.227 47.012,-100 105,-100 57.988,0 105,44.773 105,100 v 5"
         style="fill:none;stroke:#000000;stroke-width:10;stroke-linecap:round;stroke-linejoin:round;stroke-miterlimit:10;stroke-dasharray:none;stroke-opacity:1"
         id="path18" />
      <path
         d="m 413.82,300 7.766,3.293 c 2.242,1.121 4.723,1.707 7.234,1.707 v 0 c 8.938,0 16.18,-7.242 16.18,-16.18 v 0 c 0,-14 -9.527,-26.203 -23.109,-29.597 l -30.086,-6.914"
         style="fill:none;stroke:#000000;stroke-width:10;stroke-linecap:round;stroke-linejoin:round;stroke-miterlimit:10;stroke-dasharray:none;stroke-opacity:1"
         id="path20" />
      <path
         d="M 380.004,318.645 C 361.453,322.59 336.93,325 310,325 c -26.93,0 -51.453,-2.41 -70.004,-6.355"
         style="fill:none;stroke:#000000;stroke-width:10;stroke-linecap:round;stroke-linejoin:round;stroke-miterlimit:10;stroke-dasharray:none;stroke-opacity:1"
         id="path22" />
      <path
         d="m 390,228.195 c 33.359,-6.371 55,-16.629 55,-28.195 0,-19.328 -60.441,-35 -135,-35 -13.926,0 -27.363,0.547 -40.004,1.563"
         style="fill:none;stroke:#000000;stroke-width:10;stroke-linecap:round;stroke-linejoin:round;stroke-miterlimit:10;stroke-dasharray:none;stroke-opacity:1"
         id="path24" />
      <path
         d="m 270,360 -15,10 c 0,0 -11.562,9.043 -5,25 6.563,15.957 30.934,11.543 55,-10 24.066,-21.543 47.602,-9.707 50,0 2.398,9.707 -6.98,22.793 -45,25 -15.207,0.883 -20.648,6.66 -21.703,13.273 -1.801,11.286 11.234,19.207 21.226,13.657 l 23.391,-12.992 c 4.195,-2.333 9.426,-1.598 12.816,1.792 v 0 c 4.797,4.797 4.004,12.778 -1.636,16.54 L 325,455"
         style="fill:none;stroke:#000000;stroke-width:10;stroke-linecap:round;stroke-linejoin:round;stroke-miterlimit:10;stroke-dasharray:none;stroke-opacity:1"
         id="path26" />
      <path
         d="m 255,165.309 c 0,0 -2.758,32.296 -30,40 -27.242,7.699 -70,-5 -70,-5 0,0 13.711,-22.84 45,-30 31.289,-7.164 55,-5 55,-5 z"
         style="fill:none;stroke:#000000;stroke-width:10;stroke-linecap:round;stroke-linejoin:round;stroke-miterlimit:10;stroke-dasharray:none;stroke-opacity:1"
         id="path28" />
      <path
         d="m 185,195.309 10.121,-1.266 c 19.508,-2.441 37.906,-10.426 53.012,-23.016 L 255,165.309"
         style="fill:none;stroke:#000000;stroke-width:10;stroke-linecap:round;stroke-linejoin:round;stroke-miterlimit:10;stroke-dasharray:none;stroke-opacity:1"
         id="path30" />
      <path
         d="m 182.871,226.387 v 0 c -1.906,5.726 -4.437,11.222 -7.543,16.398 L 165,260 l 20.066,-7.719 c 16.133,-6.203 29.891,-16.777 39.965,-30.211"
         style="fill:none;stroke:#000000;stroke-width:10;stroke-linecap:round;stroke-linejoin:round;stroke-miterlimit:10;stroke-dasharray:none;stroke-opacity:1"
         id="path32" />
    </g>
  </g>
</svg>
