<?xml version="1.0" encoding="UTF-8" standalone="no"?>
<!-- Created with Inkscape (http://www.inkscape.org/) -->

<svg
   version="1.1"
   id="svg2"
   width="784.61847"
   height="1003.8137"
   viewBox="0 0 784.61848 1003.8137"
   xmlns="http://www.w3.org/2000/svg"
   xmlns:svg="http://www.w3.org/2000/svg">
  <defs
     id="defs6" />
  <g
     id="g8"
     transform="matrix(1.3333333,0,0,-1.3333333,-383.31097,1207.1736)">
    <g
       id="g10"
       transform="scale(0.1)">
      <path
         d="m 7735.23,1735.9 c 191.92,132.4 0,441.1 0,441.1 -191.87,381.7 -287.81,676.5 -287.81,676.5 -351.76,1537.8 -255.78,4376.5 -255.78,4376.5 -664.41,236 -1287.54,305.6 -1816.25,297 -528.75,8.6 -1151.87,-61 -1816.29,-297 0,0 95.98,-2838.7 -255.78,-4376.5 0,0 -95.94,-294.8 -287.81,-676.5 0,0 -191.84,-308.7 0,-441.1 0,0 1648.83,-410.5 4719.72,0"
         style="fill:#ece7e3;fill-opacity:1;fill-rule:nonzero;stroke:none"
         id="path228" />
      <path
         d="m 7189.34,2172.1 c 147.46,101.8 0,339 0,339 -147.5,293.5 -221.21,520 -221.21,520 -270.4,1182.2 -196.68,3853.5 -196.68,3853.5 -510.71,181.4 -989.65,234.9 -1396.06,228.3 -406.44,6.6 -885.43,-46.9 -1396.09,-228.3 0,0 73.71,-2671.3 -196.64,-3853.5 0,0 -73.71,-226.5 -221.25,-520 0,0 -147.5,-237.2 0,-339 0,0 1267.38,-315.6 3627.93,0"
         style="fill:#fdf4ec;fill-opacity:1;fill-rule:nonzero;stroke:none"
         id="path230" />
      <path
         d="m 5451.84,7106.1 c 39.18,-1.1 78.32,0.9 117.3,5 -66.13,2.2 -130.94,2.8 -193.75,1.8 -7.62,0.1 -15.39,0.1 -23.05,0.1 33.21,-3.3 66.41,-6 99.5,-6.9"
         style="fill:#fdf4ec;fill-opacity:1;fill-rule:nonzero;stroke:none"
         id="path232" />
      <path
         d="m 7189.34,2511.1 c -147.5,293.5 -221.21,520 -221.21,520 -270.4,1182.2 -196.68,3853.5 -196.68,3853.5 -30.55,10.9 -61.02,21.2 -91.33,31.2 0.86,-83.8 -0.04,-167.6 -6.92,-251.1 -11.68,-142.3 -35.27,-303.2 -130.7,-416.2 -102.19,-120.9 -259.61,-146.1 -410,-123.6 -119.37,17.8 -230.31,64.2 -346.52,94.7 -113.4,29.8 -266.21,51.3 -379.3,9.2 -131.52,-48.9 -272.34,-88.1 -400.47,-4.3 -71.33,46.7 -137.42,82 -225.47,59.9 -52.22,-13.2 -100.04,-35.9 -149.26,-57.2 -44.37,-19.1 -123.43,-49.3 -134.72,24.2 -16.02,104.8 19.33,189.9 72.73,275.6 32.27,51.6 65.74,102.5 97.11,154.7 36.1,59.9 38.63,128 48.09,195.5 13.71,98.9 62.54,168 136.36,209.7 -273.55,-31.5 -566.91,-94 -871.75,-202.3 0,0 73.71,-2671.3 -196.64,-3853.5 0,0 -73.71,-226.5 -221.25,-520 0,0 -147.5,-237.2 0,-339 0,0 1267.38,-315.6 3627.93,0 147.46,101.8 0,339 0,339"
         style="fill:#fce7d5;fill-opacity:1;fill-rule:nonzero;stroke:none"
         id="path234" />
      <path
         d="m 6764.1,5697.7 c 8.79,-866.6 51.99,-2002 204.03,-2666.6 0,0 73.71,-226.5 221.21,-520 0,0 147.46,-237.2 0,-339 -2360.55,-315.6 -3627.93,0 -3627.93,0 -147.5,101.8 0,339 0,339 147.54,293.5 221.25,520 221.25,520 151.95,664.6 195.23,1800 203.94,2666.6 0,0 1266.37,660.9 2777.5,0"
         style="fill:#f7941d;fill-opacity:1;fill-rule:nonzero;stroke:none"
         id="path236" />
      <path
         d="m 7189.34,2511.1 c -147.5,293.5 -221.21,520 -221.21,520 -95.2,416.1 -147.7,1016.8 -175.83,1620.5 -5.19,-59.6 -11.25,-119.1 -19.41,-178.3 -24.41,-176.3 -72.89,-341.5 -115.86,-513.5 -27.38,-109.6 -70.86,-253.5 -38.16,-365.3 23.63,-80.7 66.6,-154.9 87.89,-236.1 22.42,-85.3 10.04,-149.7 -20.08,-230.9 -19.02,-51.3 -43.36,-106 -89.41,-138.8 -94.93,-67.6 -225.51,-26 -313.48,-109.2 -96.72,-91.6 -166.13,-206.1 -259.41,-300.4 -75.43,-76.2 -169.61,-128.7 -280.32,-115.1 -124.65,15.5 -253.04,71.3 -348.47,153.5 -93.13,80.3 -167.23,182 -263.95,258 -126.17,99.3 -242.89,66.9 -353.55,-40.5 -7.04,-6.9 -16.72,-4.5 -22.11,2.8 -91.06,123.3 -134.89,266.4 -115.55,419.7 21.45,169.4 90.86,326.2 123.55,492.9 36.18,183.9 -6.44,347.3 -75.89,517.5 -50.98,124.9 -112.66,257.8 -100.36,396.3 12.82,144.5 86.76,307.9 199.42,401.7 45.74,38 104.26,55.4 151.25,91.3 78.36,59.9 125.23,163.9 102.73,262 -32.03,139.6 -122.11,272.9 -32.15,410.1 54.93,83.9 127.47,131.9 209.07,158.7 -738.17,-32.9 -1231.45,-290.3 -1231.45,-290.3 -8.71,-866.6 -51.99,-2002 -203.94,-2666.6 0,0 -73.71,-226.5 -221.25,-520 0,0 -147.5,-237.2 0,-339 0,0 1267.38,-315.6 3627.93,0 147.46,101.8 0,339 0,339"
         style="fill:#e5661f;fill-opacity:1;fill-rule:nonzero;stroke:none"
         id="path238" />
      <path
         d="m 8644.8,4690.7 c -184.76,869.2 -85.27,1731.9 -85.27,1731.9 -42.65,369.5 -412.15,234.9 -412.15,234.9 -511.72,-120.4 -966.72,-50 -966.72,-50 -20.62,-101.8 -37.03,-404.6 -49.92,-512.4 154.1,18.8 279.06,71.6 689.77,103.2 0,0 312.3,107.7 348.28,-187.9 0,0 -84.06,-551.7 72.07,-1247.1 0,0 162.34,-547.3 -324.38,-579.3 0,0 -521.68,-4.9 -661.6,-394.4 53.71,-292 137.35,-665 137.35,-665 97.65,582.2 840.43,697.6 840.43,697.6 696.4,29.1 412.14,868.5 412.14,868.5"
         style="fill:#ece7e3;fill-opacity:1;fill-rule:nonzero;stroke:none"
         id="path240" />
      <path
         d="m 7783.83,1722 c 172.93,140.7 60.7,351.4 -18.83,511.6 -117.19,235.9 -234.14,483.9 -288.01,743 -123.47,593.9 -169.65,1204.7 -202.38,1809.3 -43.98,812.7 -54.02,1630.5 -26.72,2444.1 0.43,14 -17.81,20.3 -27.89,23.8 -1177.23,411.1 -2512.03,411.1 -3689.22,0 -10.12,-3.5 -28.36,-9.8 -27.89,-23.8 27.66,-826.4 15.86,-1656.6 -28.83,-2482.1 -32.65,-603.2 -83.75,-1210.3 -206.79,-1802.5 -55.08,-265 -186.61,-520.7 -306.02,-761.1 -33.63,-67.9 -63.59,-132.2 -80.35,-206.7 -18.63,-83.1 2.62,-239.9 106.21,-265.5 392.23,-97.1 806.56,-129.5 1208.05,-155.9 1185.58,-77.8 2378.71,-2.7 3555,153.1 75.43,10 22.11,60 -29.89,53.1 -1310.19,-173.5 -2649.84,-253 -3967.57,-112.4 -227,24.2 -455.4,53.6 -678.52,102.7 -156.64,34.4 -68.4,292.8 -22.81,383.8 114.18,228.6 221.91,460.6 303.98,703 78.91,232.9 98.32,503 129.81,745.7 40.27,310.1 66.79,621.9 87.57,933.8 39.38,590 53.25,1181.9 54.57,1773.1 0.63,308.4 -2.07,616.9 -11.52,925 -0.58,20.3 288.52,90.3 334.38,103.1 222.5,62.4 449.84,105.9 678.63,136.9 375.16,50.9 759.76,54.6 1137.42,34.1 439.73,-23.8 874.34,-113 1292.5,-249.1 71.92,-23.4 77.15,8 75.35,-54.6 -1.4,-50.4 -2.58,-100.7 -3.67,-151.1 -9.53,-443.3 -9.18,-886.9 -0.82,-1330.2 11.72,-622.9 40.66,-1246.5 106.17,-1866.3 30.59,-289.4 71.1,-577.9 128.79,-863.3 46.92,-231.8 147.07,-448.7 246.29,-662.5 74.1,-159.6 259.18,-415.2 75.86,-564.3 -38.01,-30.9 70.16,-49.8 97.15,-27.8"
         style="fill:#050606;fill-opacity:1;fill-rule:nonzero;stroke:none"
         id="path242" />
      <path
         d="m 8701.05,4690.7 c -88.59,430.4 -119.14,869.3 -110.23,1308.2 3.71,186.3 77.54,441.8 -42.62,605.4 -92.38,125.8 -290.5,120.5 -423.82,78.8 -283.33,-88.6 -635.28,-92.9 -928.79,-48.9 -17.82,2.6 -70.59,1.4 -71.21,-26.7 -3.83,-167.9 15.19,-337.7 -0.04,-505.1 -2.58,-27.9 55.86,-28.5 71.21,-26.5 197.42,26 388.75,73.6 588.2,91.6 64.53,5.8 128.13,27.6 193.2,19.6 92.03,-11.2 142.35,-120.4 132.15,-203.1 -25.82,-208.9 -23.12,-421.9 -9.84,-631.5 14.88,-235.1 73.63,-459.7 105.31,-691.3 24.96,-182.6 -21.84,-379.1 -217.58,-437.9 -120.08,-36.1 -258.4,-4.3 -384.72,-34.9 -176.92,-42.9 -390.75,-196.1 -356.37,-396.2 38.01,-221.2 65.47,-444.6 90.08,-667.6 4.41,-39.8 105.19,-38 112.46,0 56.48,293.6 277.97,483.3 543.04,594.9 157.97,66.5 336.8,57 489.5,125.1 327.73,146.1 315.9,560.5 218.04,853.5 -11.29,33.8 -122.38,26.9 -108.47,-14.7 40.74,-122 57.85,-255.3 54.88,-383.5 -2.34,-100 -26.13,-197.5 -79.02,-282.8 -79.81,-128.7 -213.28,-146.5 -349.61,-168.4 -393.91,-63.2 -801.1,-309.3 -880.82,-724.1 37.54,0 75,0 112.46,0 -24.61,223.1 -53.44,446.1 -90.08,667.6 -45.08,273.1 306.13,378.2 517.19,367.9 355.47,-17.2 501.01,272.4 425.62,587.8 -71.64,299.4 -100.51,609.3 -98.47,916.8 1.01,149.9 58.47,336.2 -20.43,473.3 -72.5,126 -263.4,120.4 -383.48,86.2 -122.66,-34.9 -269.92,-25.8 -397.62,-49.7 -78.67,-14.8 -156.13,-35 -235.58,-45.4 23.75,-8.9 47.5,-17.8 71.21,-26.7 15.27,167.4 -3.75,337.2 0.08,505.1 -23.75,-8.8 -47.47,-17.6 -71.22,-26.5 227.11,-34 462.39,-26 689.85,-2.6 190.43,19.6 518.12,179.4 625.66,-60.9 30.78,-68.8 18.21,-128.9 12.62,-199.5 -10.39,-131.6 -14.92,-263.5 -16.8,-395.4 -6.01,-413 28.24,-827.2 111.6,-1231.9 8.29,-40.4 119.42,-33.7 112.46,0"
         style="fill:#050606;fill-opacity:1;fill-rule:nonzero;stroke:none"
         id="path244" />
      <path
         d="m 3259.02,7137 c 584.26,-255.1 1174.14,278.7 1727,383.2 494.14,93.4 932.65,-181.9 1386.25,-317.2 236.99,-70.7 642.89,-134.3 858.12,24.5 189.45,139.7 153.91,404.5 51.09,583.7 -142.73,248.8 -431.79,128.3 -607.5,299.6 -85.27,83.1 -65.31,220.3 -157.61,300.4 -97.42,84.6 -249.92,71.7 -345.74,166.6 -100.75,99.7 -129.85,250.2 -250.4,334.2 -170.5,118.6 -426.4,144.1 -620.89,79.4 -100.67,-33.6 -180.08,-126.3 -279.89,-150.6 -191.6,-46.6 -262.46,264 -499.02,167.2 -190.2,-77.6 -288.36,-292.3 -524.49,-187.5 -37.07,16.5 -68.64,38.3 -107.31,43.1 -210.7,26.4 -439.06,-59.9 -583.36,-213.8 -159.84,-170.6 -107.85,-450.9 -43.32,-656.2 28.95,-94.3 -392.15,-133.5 -257.89,-555.6 49.61,-156.1 139.38,-250.5 254.96,-301"
         style="fill:#fdf4ec;fill-opacity:1;fill-rule:nonzero;stroke:none"
         id="path246" />
      <path
         d="m 7281.48,7811.2 c -142.73,248.8 -431.79,128.3 -607.5,299.6 -85.27,83.1 -65.31,220.3 -157.61,300.4 -21.06,18.3 -44.89,31.9 -70,43.2 48.79,-92.7 58.01,-188.7 -13.79,-289.9 -20.08,-28.2 -70,-76.9 -46.76,-113.6 24.96,-39.4 60.31,-68.6 98.48,-94.7 56.4,-38.5 118.51,-72.5 162.5,-125.8 62.42,-75.4 25.35,-215.4 -65.78,-252.8 -82.19,-33.7 -176.33,10.6 -247.27,52.2 -95.55,56 -180.39,126.4 -268.28,193.3 -87.5,66.4 -197.27,134 -310.51,96 -94.14,-31.7 -172.34,-104.3 -273.71,-115.7 -112.03,-12.7 -238.16,29.1 -290.51,133.9 -47.81,95.9 -134.49,141.4 -244.37,127.7 -98.05,-12.3 -212.19,-53.4 -278.56,-130.1 -74.61,-86.4 -132.58,-234.7 -268.24,-238.8 -73.71,-2.2 -142.38,33.6 -214.45,44 -87.11,12.6 -164.81,-16.5 -231.68,-71.9 -80.55,-66.8 -146.56,-176.6 -244.46,-219.4 -102.46,-44.7 -194.25,23.5 -258.24,101.8 -68.44,83.7 -116.87,190.8 -74.33,297.1 35.62,89 122.85,150.2 196.91,205.3 96.6,71.8 215.7,160.6 204.49,297.5 -9.8,120.4 -98.43,221.4 -93.12,345 2.61,61.8 21.48,118 51.83,168.2 -162.57,-18.7 -321.29,-96.6 -431.25,-213.9 -159.84,-170.6 -107.85,-450.9 -43.32,-656.2 28.95,-94.3 -392.15,-133.5 -257.89,-555.6 49.61,-156.1 139.38,-250.5 254.96,-301 584.26,-255.1 1174.14,278.7 1727,383.2 494.14,93.4 932.65,-181.9 1386.25,-317.2 236.99,-70.7 642.89,-134.3 858.12,24.5 189.45,139.7 153.91,404.5 51.09,583.7"
         style="fill:#fce7d5;fill-opacity:1;fill-rule:nonzero;stroke:none"
         id="path248" />
      <path
         d="m 3219.3,7117.5 c 707.46,-286.9 1273.24,370.4 1955.35,394 677.03,23.4 1302.97,-616.5 1995.15,-357.3 275.9,103.3 293.48,398.1 182.43,633.7 -51.68,109.8 -142.74,170.9 -254.77,207.2 -163.71,53.1 -348.94,32.7 -427.46,220.1 -54.88,130.6 -78.12,225.2 -224.77,275.1 -106.05,36.2 -197.65,59.1 -269.25,153.5 -53.75,71 -87.46,154.1 -143.83,223.8 -167.74,207.1 -528.63,216.9 -761.21,147.5 -93.21,-27.8 -232.35,-184 -331.96,-137.7 -61.87,28.9 -106.99,89.6 -164.72,125.6 -127.78,79.7 -259.92,53.6 -382.07,-23.6 -71.99,-45.5 -133.24,-104.7 -209.61,-143.6 -93.83,-47.8 -234.3,57.1 -336.25,59.2 -208.71,4.2 -402.27,-63.8 -559.65,-201.4 -150.23,-131.4 -157.54,-332.2 -127.58,-515.6 6.33,-38.5 65.7,-182 38.71,-212.3 -31.68,-35.7 -82.38,-58.9 -120.62,-87 -281.88,-206.4 -137.31,-626.7 142.11,-761.2 31.01,-15 135.86,11.8 79.53,39 -273.24,131.5 -365.31,518.1 -108.44,706.2 40.7,29.8 106.29,56.4 126.25,106.4 13.95,35.1 -21.68,105.1 -28.71,132.5 -22.93,89.2 -33.16,180 -31.52,272 4.06,219.8 170.66,362.5 364.41,434.1 132.5,49.1 246.02,27.6 373.52,-21.3 47.14,-18 105.62,-27.3 156.05,-20 109.84,15.8 190.16,75.1 276.49,141.1 86.99,66.4 180.5,118.7 280.35,46.8 45.11,-32.5 83,-74.7 131.09,-103.3 79.69,-47.3 158.98,-50.6 246.02,-21.9 65.66,21.7 125.27,72.2 182.61,108.5 109.81,69.4 254.03,68.4 377.82,50.3 229.06,-33.6 308.78,-185.4 422.73,-358.7 98.28,-149.5 268.05,-134.5 400.31,-231.9 116.1,-85.5 77.93,-268.4 219.49,-347.5 125.98,-70.5 270.51,-66.9 402.27,-119.8 157.34,-63.2 216.8,-272.6 219.69,-425.4 4.65,-239.7 -215.04,-336.8 -421.21,-347.8 -617.89,-32.8 -1138.83,429.6 -1760.08,408.2 -623.59,-21.6 -1194.61,-665.9 -1829.14,-408.5 -31.33,12.6 -136.6,-15.9 -79.53,-39"
         style="fill:#050606;fill-opacity:1;fill-rule:nonzero;stroke:none"
         id="path250" />
      <path
         d="m 7237.89,2158.2 c 170.78,146.6 -12.19,391.3 -81.76,544.3 -85.43,187.9 -143.71,364.2 -178.55,566.7 -85.12,494.6 -113.13,999.9 -134.26,1500.7 -29.69,703.8 -34.88,1410.5 -15.59,2114.7 0.36,13.9 -17.69,20.3 -27.81,23.8 -911.05,316.5 -1938.04,316.5 -2849.02,0 -10.12,-3.5 -28.24,-9.9 -27.85,-23.8 22.5,-823 13.79,-1649.5 -33.28,-2471.4 -16.18,-282.6 -38.99,-565 -73.32,-845.9 -25.47,-207.7 -48.01,-425.3 -121.49,-622.3 -53.55,-143.6 -110.55,-298 -189.61,-429.6 -43.47,-72.2 -92.3,-193.2 -54.76,-276.3 39.06,-86.6 90.15,-93.6 170.58,-109.7 375.86,-75.1 762.35,-102.3 1144.61,-117.2 814.26,-31.7 1631.49,26.7 2438.48,133.3 75.35,10 22.07,60 -29.85,53.2 -1128.36,-149.1 -2313.63,-227.8 -3442.61,-31.2 -63.4,11.1 -122.85,8.5 -160.43,59 -70.04,94 25.19,238.7 68.24,325.6 70.59,142.6 132.81,290 186.37,439.9 67.57,189.2 82.5,408.4 106.83,606.7 34.53,282.2 55.28,566.2 71.49,850 31.83,556.5 40.9,1114.5 40.35,1671.9 -0.16,186.9 -1.8,373.8 -4.88,560.7 -0.86,50 -1.84,100 -2.97,150.1 -1.57,72.2 -3.28,38.8 76.09,65.2 804.92,267.1 1719.49,255 2525.04,0 73.91,-23.5 77.7,7.7 76.17,-56.9 -1.21,-52.8 -2.15,-105.6 -3.12,-158.4 -3.17,-186.9 -4.57,-373.8 -4.93,-560.7 -1.21,-709 13.25,-1419.6 71.96,-2126.4 26.09,-314.4 61.33,-629.7 128.24,-938.2 27.58,-126.9 89.34,-250.4 141.48,-368.3 57.97,-131.1 241.25,-374.5 93.05,-501.7 -37.58,-32.3 70.7,-50.5 97.11,-27.8"
         style="fill:#050606;fill-opacity:1;fill-rule:nonzero;stroke:none"
         id="path252" />
      <path
         d="m 5305.98,5432.3 c 10.66,-21.5 33.86,-47.9 39.41,-69.6 3.56,-13.6 -1.37,-28.3 2.38,-42.9 4.26,-16.3 14.26,-23.6 11.96,-42.2 -6.76,-56.3 -38.91,-117.7 -86.18,-151.8 -40.62,-29.4 -93.47,-41.3 -139.84,-55.7 -66.68,-20.6 -103.48,-58.3 -150.78,-105.7 -19.1,-19 -42.5,-31.4 -56.99,-55.5 -14.06,-23.5 -20.86,-54.3 -34.34,-78.2 -31.29,-55.5 -75.39,-130.4 -81.95,-196.8 -3.48,-35.4 -4.1,-72.5 14.37,-101.8 12.74,-20.2 33.6,-33.2 46.33,-52.2 13.13,-19.5 13.24,-38.4 27.5,-59.3 24.22,-35.4 46.41,-50.8 81.17,-74.6 57.31,-39 105.98,-73.1 137.15,-137.1 13.24,-27.3 25.35,-52.6 35.08,-81.2 4.45,-13.1 8.95,-14 11.02,-30.9 -0.63,-9.7 -1.02,-19.5 -1.14,-29.2 0.94,-7.6 4.81,-13.2 11.68,-16.5 9.1,-42.4 13.87,-123.3 3.83,-166.3 -13.79,-59.3 -61.17,-109.2 -103.01,-150.1 -37.85,-37.2 -65.35,-85.9 -91.05,-131.1 -19.38,-34.3 -62.58,-116.1 -35.7,-154.7 13.39,-19.3 40.03,-30.1 59.6,-41.1 28.52,-16 56.18,-36.1 85,-53.5 24.42,-14.8 43.48,-20.4 59.85,-45 11.68,-17.4 9.57,-17.7 24.65,-28.8 14.41,-10.5 27.97,-7.1 42.5,-13.3 22.69,-9.7 48.24,-12.2 70.66,-24.7 25.35,-14.2 40.43,-26.2 69.61,-35.4 28.44,-9 55.7,-13.9 84.38,-21.6 23.75,-6.2 62.61,-4.3 81.17,13.4 33.9,32.6 46.05,129.9 18.24,166.6 -36.33,48.2 -103.4,68.1 -141.6,115.3 -33.24,41.2 -59.81,98.9 -56.64,151.6 1.91,30.6 17.58,55.3 25.35,84.4 10.66,39.7 15.43,74.2 34.76,112.4 28.25,55.9 53.64,114.1 80.86,169.5 28.48,58 70.39,111.8 98.75,171.1 25.55,53.5 20.51,117 38.4,168.8 21.64,62.5 21.21,91.2 -20.86,140.3 -20.11,23.4 -39.37,44 -59.29,67.5 -24.54,28.9 -58.17,39.6 -81.92,70.7 -26.29,34.3 -86.29,91.1 -74.18,141 30.47,125.4 187.74,153 292.85,185.1 27.93,8.6 56.88,21 87.5,28.2 34.96,8.2 68.13,25.1 97.97,42.6 61.45,36.1 54.14,122 95.04,179.9 8.4,12 20.35,14.9 28.83,26.7 12.27,17 15.35,40.6 27.38,57.7 11.96,16.9 22.62,23.6 32.35,41.9 7.46,14 10.89,26.3 17.18,41.4 15.12,36.6 10.36,73.4 10.59,112.9 0.27,39.4 -6.91,55.1 -24.26,87.5 -86.09,161 -301.01,186.3 -455.23,245.6 -130.28,50 -358.67,65.1 -375.51,-125.4 -7.93,-89 47.15,-173.6 85.12,-249.9"
         style="fill:#fab819;fill-opacity:1;fill-rule:nonzero;stroke:none"
         id="path254" />
      <path
         d="m 6371.91,4532.7 c 15,-78.2 -30.93,-168.4 -56.99,-239.3 -23.16,-63.1 -55.94,-115.6 -95.31,-168.9 -19.88,-26.8 -33.16,-59.8 -55.94,-85 -10.39,-11.6 -18.32,-16.8 -31.21,-27 -19.76,-15.5 -33.51,-19.9 -53.48,-31.7 -56.21,-33.3 -86.68,-81.5 -119.06,-134.4 -31.4,-51.2 -69.33,-113.5 -80.94,-171.5 -5.58,-28.3 -18.86,-55.5 -10.85,-84.7 7.89,-28.7 12.46,-55.9 21.48,-84.4 18.98,-60 50.16,-120.4 60.43,-182.8 2.26,-13.7 -3.75,-28.4 -1.45,-42.2 2.66,-15.6 12.74,-26.5 15.51,-42.2 4.61,-25.9 -0.9,-57.8 -0.74,-84.3 0.31,-35.3 -3.95,-52.4 -17.97,-84.4 -5.94,-13.5 -6.56,-29.4 -12.54,-42.2 -10.04,-21.5 -36.17,-37.7 -50.7,-56.5 -36.56,-47.5 -82.66,-90.3 -129.69,-129.4 -35.19,-29.3 -121.25,-105.4 -56.6,-137.8 48.16,-24.2 103.2,-9.1 155.04,3.4 68.44,16.5 135.7,30.9 196.83,69.9 101.61,65 165.75,174.3 241.8,264.1 41.06,48.5 94.73,49.4 151.92,67.2 53.28,16.6 129.68,54.9 141.28,116 12.31,64.6 -24.33,104.1 -60.35,150.8 -14.49,18.8 -29.65,39.2 -42.22,59.4 -8.36,13.6 -12.58,29.6 -20.78,43.2 -10,16.7 -23.6,25.7 -32.31,41.1 -28.87,50.8 -56.29,111 -55.94,169.5 0.47,67.1 20.47,118 45.71,179.7 46.13,112.3 168.51,180.9 204.64,298.4 7.86,25.5 3.17,57.8 2.82,84.4 -0.35,31.4 12.69,54.1 14.37,84.4 1.49,27.5 -2.93,54.6 2.78,81.2 2.03,9.5 9.53,17.5 11.28,30.9 2.35,17.9 -0.35,38.5 -0.35,56.6 0.08,60.9 -0.78,121.9 -0.04,182.7 0.39,29.7 -10.78,43.1 -14.33,70.1 -4.14,31.4 0.31,66.9 0.31,98.8 0,60.9 0,121.8 0,182.7 0,28.2 0.04,56.3 0,84.4 0,13.9 1.09,28.3 0.35,42.2 -1.17,21.9 -11.44,35.4 -15.12,56.2 -6.75,38.5 0.36,86.6 0.67,125.9 0.35,33.7 -9.06,54 -14.73,85 -4.1,22.5 5.43,47.8 1.45,70.4 -1.6,10.3 -5.51,19.7 -11.64,28.1 -10.39,41.1 -1.92,73 -42.66,99.7 -19.57,12.8 -32.15,9.3 -53.48,12.7 -20.23,3.1 -38.71,11.5 -58.59,17.6 -54.26,16.5 -80.08,1.1 -132.23,-11.9 -40.04,-9.9 -80.66,-1.6 -121.21,-6.9 -134.14,-17.4 -88.2,-147.4 -52.07,-235.2 49.81,-121.2 111.57,-238 143.67,-365.8 20.47,-81.4 21.14,-165.2 33.13,-248 12.73,-87.9 39.26,-173.1 56.05,-260.2"
         style="fill:#fab819;fill-opacity:1;fill-rule:nonzero;stroke:none"
         id="path256" />
      <path
         d="m 4027.85,5696.9 c 22.66,43.6 161.06,74.2 201.8,88.9 141.09,51.3 298.05,85.3 445.31,112.8 265.82,49.6 535.7,21.7 801.52,58.7 17.54,2.4 17.54,16.2 0,18.6 -273.63,38 -617.38,25.6 -885.46,-46.7 -51.8,-14 -627.31,-131.3 -602,-229.8 3.28,-12.6 33.05,-13.7 38.83,-2.5"
         style="fill:#050606;fill-opacity:1;fill-rule:nonzero;stroke:none"
         id="path258" />
      <path
         d="m 6558.32,5643.2 c -15.98,-270 15.55,-546.9 27.54,-816.9 12.27,-277.2 22.5,-550.7 20.86,-828.4 -1.8,-279.5 9.41,-557.2 62.38,-832.3 48.09,-250 163.17,-482.9 288.09,-702.9 6.21,-10.9 43.86,-7.6 37.26,5.1 -118.36,227.7 -235.7,445.6 -293.9,697.8 -62.54,271.2 -64.26,555.5 -63.75,832.3 0.5,277.6 -5.78,551.2 -21.53,828.4 -15.31,269.4 -45.47,547.4 -37.57,816.9 0.19,6.6 -18.95,6.8 -19.38,0"
         style="fill:#050606;fill-opacity:1;fill-rule:nonzero;stroke:none"
         id="path260" />
      <path
         d="m 6403.16,5489.9 c -55.43,-165.6 -18.2,-335.6 9.65,-503.1 34.38,-207 49.61,-416 79.14,-623.2 h 11.49 c 21.68,192.8 -32.03,392.2 -57.23,582.7 -23.67,179.9 -78.24,361.4 -22.73,540.8 2.46,7.9 -18.17,9.1 -20.32,2.8"
         style="fill:#050606;fill-opacity:1;fill-rule:nonzero;stroke:none"
         id="path262" />
      <path
         d="m 6484.14,4252.9 c -35.86,-94.5 -20.9,-188.1 -19.65,-287.1 1.76,-144.8 -18.2,-291.4 -17.61,-437 1.13,-262.6 32.3,-548.3 187.65,-768.7 l 7.62,1 c -108.48,250.9 -151.76,495.1 -149.77,767.7 0.94,133.1 3.48,266.1 13.6,398.9 8.32,108.9 -21.88,216 5.82,323.4 2.07,8.1 -24.65,9.5 -27.66,1.8"
         style="fill:#050606;fill-opacity:1;fill-rule:nonzero;stroke:none"
         id="path264" />
      <path
         d="m 6697.27,2644.8 c 64.57,-58.4 68.86,-157.2 135.66,-212.3 9.02,-7.5 45.39,-1.2 32.62,9.3 -66.25,54.8 -77.03,153.4 -145.51,209.5 -6.02,5 -31.68,1.6 -22.77,-6.5"
         style="fill:#050606;fill-opacity:1;fill-rule:nonzero;stroke:none"
         id="path266" />
      <path
         d="m 3709.26,2393.6 c 266.09,453.9 460.43,1019.6 490.58,1547 16.29,284.1 -11.05,569.3 -10.46,853.5 0.62,278.7 12.38,555.9 9.25,835 -0.15,14.6 -42.18,14.5 -42.18,0 0.15,-262.8 -4.77,-522.9 -12.04,-785.4 -7.46,-268 16.14,-536 12.97,-804 -6.72,-568.4 -227.61,-1135.6 -467.65,-1643.5 -3.32,-6.9 16.25,-8.1 19.53,-2.6"
         style="fill:#050606;fill-opacity:1;fill-rule:nonzero;stroke:none"
         id="path268" />
      <path
         d="m 4304.06,5675.9 -10.78,-0.2 -11.6,-4.4 c -30.47,-71.5 -4.18,-188 2.23,-262.2 11.83,-137.2 12.61,-276.2 30.31,-412.7 h 7.89 c 15.9,124.1 0.51,243.1 -4.06,367 -0.98,24.9 -41.17,294.7 -9.3,304 9.38,2.8 1.21,8.5 -4.69,8.5"
         style="fill:#050606;fill-opacity:1;fill-rule:nonzero;stroke:none"
         id="path270" />
      <path
         d="m 4309.26,4857 c -17.74,-59.3 -15.39,-108.2 -7.89,-170 10.78,-88.9 -4.49,-183.1 -10.51,-272 -12.97,-192.1 -2.42,-395 22.03,-585.7 h 10.55 c 20.08,178.5 -3.83,360.1 -2.19,539.5 0.66,76.2 8.13,152.4 10.86,228.5 3.24,87.8 -23.09,171.8 -4.73,258.5 1.14,5.4 -16.56,6.3 -18.12,1.2"
         style="fill:#050606;fill-opacity:1;fill-rule:nonzero;stroke:none"
         id="path272" />
      <path
         d="M 4306.76,3632.4 C 4265.94,3400 4221.84,3174 4141.8,2951.3 c -54.73,-152.3 -145.51,-322.8 -155,-486.1 -0.24,-5.2 13.67,-4.9 15.58,-1 77.39,163 124.03,348.8 185.51,518.9 75.78,209.9 112.38,428.7 141.72,649.3 0.94,7.3 -21.45,8 -22.85,0"
         style="fill:#050606;fill-opacity:1;fill-rule:nonzero;stroke:none"
         id="path274" />
      <path
         d="m 4162.34,2352 c 72.07,223.6 191.06,425.7 239.38,656.2 61.6,294.1 207.11,581.4 168.24,891.3 -1.13,8.9 -24.18,8.8 -25.47,0 -20.78,-136.3 -25.43,-273.9 -50.39,-410.2 -28.05,-153 -86.95,-295.6 -122.77,-445.7 -28.95,-121.5 -56.56,-233.7 -107.54,-348.4 -49.02,-110.4 -88.13,-224.4 -113.48,-342.4 l 12.03,-0.8"
         style="fill:#050606;fill-opacity:1;fill-rule:nonzero;stroke:none"
         id="path276" />
      <path
         d="m 4555.86,3955.8 c 1.29,30.3 2.89,60.5 3.59,90.8 0.63,26.2 6.21,56.4 -7.81,79.1 h -16.95 c -14.18,-23 -8.01,-52.7 -7.81,-79.1 0.15,-30.2 2.26,-60.5 3.51,-90.8 0.43,-8.8 25.12,-8.8 25.47,0"
         style="fill:#050606;fill-opacity:1;fill-rule:nonzero;stroke:none"
         id="path278" />
      <path
         d="m 4477.66,5727.6 c -17.97,-268.2 10.11,-549.9 23.28,-818.4 11.17,-227.4 55,-459.6 17.15,-686.2 -1.21,-7.2 18.86,-6.8 21.6,-1.4 43.98,86.9 31.17,185.7 24.8,280.2 -7.97,119.6 -13.2,238.6 -24.41,358.1 -26.95,287.8 -19.61,579.3 -43.95,867.7 -0.5,6.3 -18,6.3 -18.47,0"
         style="fill:#050606;fill-opacity:1;fill-rule:nonzero;stroke:none"
         id="path280" />
      <path
         d="m 4625.31,5778.6 c 0.39,-145.7 19.1,-290.2 33.48,-435 16.64,-167.7 15.7,-336.7 31.64,-504.6 16.95,-178.3 25.16,-351.7 19.37,-531 -5.66,-174 -28.51,-352.6 -10.66,-526.2 0.55,-5.5 15.2,-5.5 15.86,0 40.47,345.2 50.12,712 11.21,1057.2 -18.91,167.6 -18.48,336.8 -35.43,504.6 -14.61,145 -37.58,289.3 -42.62,435 -0.23,7.9 -22.85,7.8 -22.85,0"
         style="fill:#050606;fill-opacity:1;fill-rule:nonzero;stroke:none"
         id="path282" />
      <path
         d="m 4707.93,3647.9 c -27.81,-91.7 -55.66,-187.7 -68.55,-282.7 -0.86,-6.1 15.89,-5.6 18.12,-1.2 43.71,86.2 49.65,189.6 72.81,282.4 1.68,6.5 -20.43,8.1 -22.38,1.5"
         style="fill:#050606;fill-opacity:1;fill-rule:nonzero;stroke:none"
         id="path284" />
      <path
         d="m 4570.7,3261.1 c -64.06,-326 -172.57,-636 -258.24,-956 l 11.21,-0.7 c 115.12,310.8 224.53,627.1 269.03,956.7 0.93,7.1 -20.47,7.6 -22,0"
         style="fill:#050606;fill-opacity:1;fill-rule:nonzero;stroke:none"
         id="path286" />
      <path
         d="m 5844.84,5927.7 c 227.43,-31.6 427.66,-75.4 645.32,-148 73.24,-24.4 159.57,-110 241.52,-77.4 28.79,11.4 -11.72,26.6 -23.05,27.2 23.91,-1.2 -74.29,41.9 -93.67,52 -66.25,34.4 -138.63,58.4 -209.22,82.1 -176.13,59.3 -374.49,105.2 -560.9,85.7 -20.74,-2.2 -19.96,-18.8 0,-21.6"
         style="fill:#050606;fill-opacity:1;fill-rule:nonzero;stroke:none"
         id="path288" />
      <path
         d="m 5603.32,5951.4 c 35.66,-2.3 71.21,-5 106.91,-5 11.45,0 41.25,3.2 41.25,20.2 0,17.2 -29.8,19.9 -41.25,20.2 12.07,-0.3 9.11,-3.1 -0.58,3.2 -6.52,4.2 -13.28,7.1 -20.51,10 -14.1,5.7 -25.9,4.4 -37.97,-3 -11.99,-7.2 -7.97,-26.8 1.02,-34 16.76,-13.3 37.42,-15.3 58.04,-16.6 0,13.5 0,26.9 0,40.4 -35.7,0 -71.25,-2.6 -106.91,-5 -7.62,-0.5 -23.55,-5.2 -23.55,-15.2 0,-10 15.93,-14.6 23.55,-15.2"
         style="fill:#050606;fill-opacity:1;fill-rule:nonzero;stroke:none"
         id="path290" />
      <path
         d="m 5302.46,5818.7 c 221.09,-6.1 439.81,-13.8 656.37,-62.6 139.18,-31.5 282.19,-86 426.37,-82.5 14.53,0.3 37.61,15.5 12.22,22 -363.9,93.8 -718.71,147.7 -1094.96,137.7 -17.85,-0.5 -17.85,-14.2 0,-14.6"
         style="fill:#050606;fill-opacity:1;fill-rule:nonzero;stroke:none"
         id="path292" />
      <path
         d="m 6135.59,5515.2 c 55.97,-108 54.92,-232 70.89,-350.2 16.18,-119.6 31.22,-239.5 47.54,-359.1 38.13,-278.8 6.37,-560.4 1.57,-840 -9.61,-565.6 44.88,-1126.7 323.63,-1629.5 4.53,-8.2 37.11,-8.7 34.49,2.3 -28.28,118.8 -84.69,229.8 -129.96,342.9 -58.01,145.1 -92.19,292.5 -116.95,446.3 -47.31,294.6 -58.91,593.5 -57.23,891.5 1.6,279.8 19.26,554.9 -24.18,833 -18.44,118.1 -35.39,236.5 -53.2,354.9 -16.37,109.2 -17.78,213.6 -75.43,310.8 -3.6,6 -24.92,4.4 -21.17,-2.9"
         style="fill:#050606;fill-opacity:1;fill-rule:nonzero;stroke:none"
         id="path294" />
      <path
         d="m 6556.17,2704.3 c 14.73,-54.6 32.27,-109.5 63.09,-157.3 7.26,-11.1 45.58,-6.3 38.12,5.2 -30.9,48 -56.29,100.8 -77.93,153.7 -2.61,6.4 -25.11,5.2 -23.28,-1.6"
         style="fill:#050606;fill-opacity:1;fill-rule:nonzero;stroke:none"
         id="path296" />
      <path
         d="m 6075.86,5333.9 c -2.81,-24.3 -1.25,-46.3 2.07,-70.3 3.16,-23.1 3.24,-47.9 8.48,-70.4 2.81,-12 32.73,-12.3 35.15,0 4.38,22.4 -2.26,48 -5.54,70.4 -3.48,23.5 -8.32,46.7 -12,70.3 -1.52,9.6 -26.99,9.7 -28.16,0"
         style="fill:#050606;fill-opacity:1;fill-rule:nonzero;stroke:none"
         id="path298" />
      <path
         d="m 6106.64,4996.4 c 6.29,-23.1 8.87,-46.5 10.04,-70.3 1.05,-21.4 -7.19,-54.1 5.74,-71.6 3.79,-5.2 15.67,-5.2 19.46,0 12.85,17.5 4.17,50.7 2.22,71.6 -2.3,24.4 -7.11,48.5 -15.04,71.8 -2.22,6.4 -24.22,4.8 -22.42,-1.5"
         style="fill:#050606;fill-opacity:1;fill-rule:nonzero;stroke:none"
         id="path300" />
      <path
         d="m 5982.15,5009.2 c 82.03,-226.5 30.82,-444.9 67.81,-673.7 1.33,-8.2 22.27,-8.2 23.67,0 37.19,210.9 31.02,484.7 -72.81,676.2 -2.89,5.3 -21.21,4.6 -18.67,-2.5"
         style="fill:#050606;fill-opacity:1;fill-rule:nonzero;stroke:none"
         id="path302" />
      <path
         d="m 6176.05,4743.2 c -8.59,-256.2 -13.39,-510.2 -41.95,-765.3 -24.8,-221 -22.77,-479.2 72.23,-684.4 2.42,-5.2 21.6,-5.5 20.66,1.4 -29.1,231.6 -67.93,447.8 -50.7,683 18.75,256.2 32.97,508.2 24.37,765.3 -0.27,8.5 -24.29,8.5 -24.61,0"
         style="fill:#050606;fill-opacity:1;fill-rule:nonzero;stroke:none"
         id="path304" />
      <path
         d="m 6030.16,4180.8 c -1.64,-41.5 -2.27,-82.9 -5.39,-124.5 -3.4,-45.1 -21.88,-98.9 -16.14,-142.7 1.14,-8.1 17.93,-6.3 21.6,-1.4 50.75,67.2 11.61,191.1 6.96,268.6 h -7.03"
         style="fill:#050606;fill-opacity:1;fill-rule:nonzero;stroke:none"
         id="path306" />
      <path
         d="m 6020.51,3702.7 c -8.67,-456.6 205.78,-876.5 270.23,-1321.8 1.02,-7.2 18.75,-6.8 20.24,0 40.27,193.5 -51.14,410.7 -112.35,591.7 -79.65,235.3 -137.65,481.5 -151.75,730.1 -0.51,9.1 -26.25,9.1 -26.37,0"
         style="fill:#050606;fill-opacity:1;fill-rule:nonzero;stroke:none"
         id="path308" />
      <path
         d="m 5916.91,5655.9 c -15.5,8.1 -22.18,6.8 -20.11,-4.1 0.08,-9.7 1.13,-19.4 1.72,-29.1 1.09,-19.7 6.01,-41.4 11.64,-60.4 23,-77.5 18.2,-163.7 37.81,-242.5 2.58,-10.3 28.87,-11 30.78,0 7.97,44.9 -6.25,91.4 -14.8,135.6 -4.89,25.3 -0.55,75.3 -14.5,95.9 -20.93,30.8 -12.97,77.8 -30.82,111 l -13.79,3.8 h -0.5 l -8.05,-5.2 0.7,-3.6 c 1.29,-6.2 18.05,-7.5 19.92,-1.4"
         style="fill:#050606;fill-opacity:1;fill-rule:nonzero;stroke:none"
         id="path310" />
      <path
         d="m 6018.71,5629.1 c -2.15,-12.5 -2.07,-24.5 -1.95,-37.2 0.04,-5.9 0.12,-11.8 0.15,-17.7 0.04,-9.9 -0.39,-11.8 7.27,-18.1 4.69,-3.8 14.3,-3.8 19.02,0 6.18,5.1 7.19,5.5 7.23,13.3 0.08,6.1 0.12,12.2 0.16,18.2 0.11,14.1 0.46,27.6 -1.96,41.5 -1.79,10.4 -28.08,10.4 -29.92,0"
         style="fill:#050606;fill-opacity:1;fill-rule:nonzero;stroke:none"
         id="path312" />
      <path
         d="m 6257.46,5589 c -9.33,-16.9 -14.61,-35.3 -16.87,-54.4 -2.04,-16.6 -6.21,-37.1 7.85,-49.1 4.88,-4.1 15.58,-4.1 20.54,0 12.78,10.9 9.77,27.5 10.36,42.9 0.74,18.9 2.14,38.6 8.63,56.5 4.3,11.8 -25.74,12.7 -30.51,4.1"
         style="fill:#050606;fill-opacity:1;fill-rule:nonzero;stroke:none"
         id="path314" />
      <path
         d="m 4737.38,5755.7 c -2.77,-17.9 -3.47,-34.1 -1.4,-52.2 2.11,-18 5.58,-29.6 22.85,-36.7 5.31,-2.3 21.33,-4.2 22.46,4.5 0.86,6.1 2.5,8.1 -0.16,14.2 -3,7 -3.9,15.1 -4.88,22.7 -2.07,15.9 -3.01,31.6 -5.51,47.5 -1.76,11.6 -31.56,11.6 -33.36,0"
         style="fill:#050606;fill-opacity:1;fill-rule:nonzero;stroke:none"
         id="path316" />
      <path
         d="m 4768.55,5530.7 c -0.93,-106.7 14.81,-211.4 31.72,-316.4 16.84,-104.5 23.05,-214.1 49.14,-316.4 h 6.18 c 41.64,198.7 -48.83,431.1 -59.77,632.8 -0.51,9.4 -27.11,9.3 -27.27,0"
         style="fill:#050606;fill-opacity:1;fill-rule:nonzero;stroke:none"
         id="path318" />
      <path
         d="m 4853.36,4813.6 c -2.97,-23.9 0.04,-46.6 2.93,-70.4 2.73,-23 0.7,-51 10.74,-72.1 3.44,-7.1 23.91,-7.4 27.19,0 8.48,19.6 1.52,42.6 -1.76,62.9 -4.26,26.5 -8.32,53.1 -12.73,79.6 -1.45,9 -25.2,9.2 -26.37,0"
         style="fill:#050606;fill-opacity:1;fill-rule:nonzero;stroke:none"
         id="path320" />
      <path
         d="m 4865.27,4532.3 c -4.33,-76.6 3.44,-153.7 6.84,-230.3 3.24,-71.5 -12.38,-150.2 1.48,-219.7 0.94,-4.6 11.76,-4.6 13.87,-0.9 31.68,57.1 26.02,124.5 24.3,188.4 -2.42,87.3 -8.71,175.5 -15.78,262.5 -0.82,10.6 -30.12,10.6 -30.71,0"
         style="fill:#050606;fill-opacity:1;fill-rule:nonzero;stroke:none"
         id="path322" />
      <path
         d="m 4883.28,3983.9 c -32.07,-325.3 -87.89,-623.4 -177.07,-938.3 -35.31,-124.7 -64.61,-257.7 -75.23,-387 -9.85,-118.8 -0.78,-230 -24.81,-348 -2.85,-14 33.91,-11.3 39.81,-5.3 8.9,9 10.5,7.9 10.11,19.3 -0.43,10.1 -24.61,9 -28.43,2 l -10.9,-7 c 10.43,-3.9 20.9,-7.9 31.37,-11.8 55.27,90.5 39.14,209 39.96,311.1 1.29,140.7 42.18,287 75.31,422.9 76.29,312.9 168.83,614.4 142.73,942.1 -0.62,7.9 -22.11,7.9 -22.85,0"
         style="fill:#050606;fill-opacity:1;fill-rule:nonzero;stroke:none"
         id="path324" />
      <path
         d="m 4983.44,5783.8 c -14.42,-137.3 9.1,-268.8 31.36,-404.2 25,-151.9 32.97,-304.1 46.45,-457.2 27.11,-308.5 60.78,-612.4 66.56,-922.5 5.35,-291 -4.22,-581.9 -25,-872.1 -18.01,-251.7 -64.29,-504.9 -62.73,-756.3 0.08,-16.1 46.8,-16 46.68,0 l -0.04,9.4 c -0.12,16 -46.45,16 -46.6,0 l -0.04,-9.4 c -0.12,-16 46.6,-16.1 46.68,0 1.56,234.9 41.4,471.4 62.42,706.1 27.5,306.4 31.8,614.9 26.41,922.3 -5.16,292.6 -35.79,579.9 -65.32,870.8 -15.5,152.7 -20.62,306.6 -44.53,458.3 -23.98,152.2 -58.12,300 -62.93,454.8 -0.23,6.7 -18.63,6.7 -19.37,0"
         style="fill:#050606;fill-opacity:1;fill-rule:nonzero;stroke:none"
         id="path326" />
      <path
         d="m 4985.08,3689.7 c -38.87,-106.1 -25.74,-213.4 -23.91,-324.5 2.23,-136.3 -30.23,-267.9 -56.6,-400.4 -25.98,-130.3 -37.85,-262.9 -44.84,-395.4 -3.25,-61.3 -33.13,-176.6 22.03,-220.3 4.88,-3.9 33.12,-5.2 27.34,5.6 -31.05,58.3 0.31,198.5 3.91,263.5 6.4,116.1 19.57,231.7 37.73,346.6 18.67,118.2 41.41,231.2 46.06,351.4 4.72,126.1 -31.49,247 4.37,371.3 1.84,6.3 -14.26,7.1 -16.09,2.2"
         style="fill:#050606;fill-opacity:1;fill-rule:nonzero;stroke:none"
         id="path328" />
      <path
         d="m 4982.58,4448 c -4.85,-51.7 -11.8,-101.9 -11.29,-154 0.23,-25.8 -2.54,-73.6 32.85,-76.4 l 14.1,3.9 c 3.67,8 -2.89,21.4 -4.69,29 -4.8,20.7 -4.92,42.8 -5.5,63.9 -1.25,44.6 -0.9,89 -4.42,133.6 -0.54,7.2 -20.35,7.2 -21.05,0"
         style="fill:#050606;fill-opacity:1;fill-rule:nonzero;stroke:none"
         id="path330" />
      <path
         d="m 4895.98,5558.8 c 19.02,-75.7 21.01,-152.6 20.47,-230.2 -0.55,-73.8 -6.41,-157.9 36.68,-221.3 3.47,-5.1 25.07,-7.3 24.14,1.5 -7.19,74.2 -19.14,144.6 -19.97,219.8 -0.89,81.2 -2.96,156.8 -36.25,231.9 -2.96,6.6 -26.95,5.8 -25.07,-1.7"
         style="fill:#050606;fill-opacity:1;fill-rule:nonzero;stroke:none"
         id="path332" />
      <path
         d="m 4016.91,2279 c -17.34,-2.6 -23.36,-6.5 -40.43,-15.7 -9.1,-4.9 -9.64,-13.1 0,-17.9 157.04,-78.4 366.22,-80.2 538.56,-80.4 125.31,-0.2 249.34,1.4 373.87,-12 39.06,-4.2 71.32,-3.5 93.47,28.7 5.63,8.1 -13.51,11.2 -17.42,11.2 -149.1,-2.3 -300,10.4 -449.92,10.2 -86.88,-0.1 -174.3,8.7 -260.78,16 -30.16,2.5 -60.12,5.7 -90.08,9.8 4.53,-0.5 -119.34,32.8 -130,30 26.45,6.8 -3.01,22.2 -17.27,20.1"
         style="fill:#050606;fill-opacity:1;fill-rule:nonzero;stroke:none"
         id="path334" />
      <path
         d="m 5847.85,2246 c 141.53,-54.2 289.3,-38.3 436.56,-19.3 238.64,30.9 476.06,47.7 715.94,65.3 7.38,0.5 24.85,4.7 27.5,13.5 14.96,48.1 10.63,73.1 -9.06,119.6 -3.44,8 -26.13,7.8 -29.69,0 -71.48,-158.8 -376.83,-116.1 -529.06,-139.7 -185.27,-28.6 -400.63,-79 -582.93,-20.9 -11.91,3.9 -53.2,-9.3 -29.26,-18.5"
         style="fill:#050606;fill-opacity:1;fill-rule:nonzero;stroke:none"
         id="path336" />
      <path
         d="m 5223.16,2196.1 c 31.02,-2.8 61.25,-8.2 92.35,-2.6 20.23,3.6 63.01,21.1 43.59,48.7 -4.41,6.3 -15.43,6.4 -21.99,4.4 -17.97,-5.4 -35,-15.3 -53.83,-17.7 -16.37,-2.1 -34.45,0.8 -51.13,-0.2 -10.43,-0.6 -26.64,-1.5 -32.62,-12.2 -7.11,-12.7 15.47,-19.5 23.63,-20.4"
         style="fill:#050606;fill-opacity:1;fill-rule:nonzero;stroke:none"
         id="path338" />
      <path
         d="m 5562.54,2199.5 c 19.76,-2.9 40.98,-4 60.16,2.7 9.6,3.4 17.1,8.5 23.35,16.4 7.82,9.9 2.47,14.4 -1.13,24.3 -3.47,9.8 -26.25,8.3 -32.97,4.2 -7.15,-4.3 -14.76,-6.9 -21.83,-11.5 l -8.95,-7 -4.18,-2.2 c 6.1,2.9 -4.84,-0.4 1.64,0.7 -5.35,-0.9 -10.74,-1.5 -16.09,-2.3 -6.37,-0.9 -19.69,-3.9 -19.69,-12.6 0,-8.8 13.32,-11.8 19.69,-12.7"
         style="fill:#050606;fill-opacity:1;fill-rule:nonzero;stroke:none"
         id="path340" />
      <path
         d="m 3755.7,8728.9 c -151.44,10 -257.03,-79.2 -339.37,-199 -53.91,-78.5 -77.66,-145 -76.33,-241.3 1.45,-106.3 76.45,-187.5 76.45,-297.1 0,-11.6 26.4,-8.8 31.09,-2 68.09,98.4 -30.35,194.1 -45.12,299.1 -25.08,178.2 170.9,425 353.28,427.8 15.47,0.3 15,11.6 0,12.5"
         style="fill:#050606;fill-opacity:1;fill-rule:nonzero;stroke:none"
         id="path342" />
      <path
         d="m 3223.13,7585.4 c -22.7,-39.3 -18.05,-90 3.32,-128.8 18.86,-34.2 75.35,-58.2 109.25,-32.1 6.64,5.1 -1.36,11.2 -6.56,12.3 -31.56,6.8 -49.92,21.4 -66.6,49.4 -16.41,27.5 -24.88,64.7 -14.84,95.9 3.16,9.7 -20.63,10 -24.57,3.3"
         style="fill:#050606;fill-opacity:1;fill-rule:nonzero;stroke:none"
         id="path344" />
      <path
         d="m 3717.46,8399.3 c 17.46,64.8 105.39,124.8 169.14,97.2 35.2,-15.3 57.5,-48.5 93.52,-62.2 6.33,-2.4 41.4,-5.7 34.57,9.8 -22.19,50.5 -110.82,90.5 -163.91,88.2 -70.98,-3 -168.28,-51.2 -169.33,-133 -0.2,-13 32.93,-11.5 36.01,0"
         style="fill:#050606;fill-opacity:1;fill-rule:nonzero;stroke:none"
         id="path346" />
      <path
         d="m 3982.23,8620.7 c 57.26,-49.5 133.75,-56.4 206.29,-50.1 60.54,5.4 172.14,37 179.68,109.9 1.64,15.1 -34.33,11.3 -40.9,5.4 -41.44,-37.6 -72.46,-68.8 -128.67,-84.2 -60.62,-16.7 -138.71,-8.7 -191.4,26.1 -6.29,4.2 -35.39,1.8 -25,-7.1"
         style="fill:#050606;fill-opacity:1;fill-rule:nonzero;stroke:none"
         id="path348" />
      <path
         d="m 4645.9,8785.3 c 64.53,5.7 118.01,-89.1 163.48,-123.2 28.75,-21.5 73.82,-29.8 108.55,-29.7 139.14,0.1 234.49,71.7 325.62,171.4 8.44,9.3 -15.58,10.8 -20.74,7.8 -139.65,-79.5 -287.18,-220.8 -436.91,-66 -41.68,43 -89.18,67.3 -148.63,55.1 -21.84,-4.5 -6.14,-16.7 8.63,-15.4"
         style="fill:#050606;fill-opacity:1;fill-rule:nonzero;stroke:none"
         id="path350" />
      <path
         d="m 5455.78,8779.8 c 102.93,46 167.77,-14.6 222.89,-85.3 25.16,-32.4 27.23,-78.3 54.81,-109.3 42.3,-47.3 104.65,-70 167.81,-68.8 38.75,0.7 39.06,32.2 0,31.8 -87.11,-0.7 -115.9,67.9 -148.44,133.5 -23.16,46.9 -66.17,84 -109.84,110.6 -65.47,40.1 -151.53,40.3 -214.14,-2.3 -12.85,-8.8 20.51,-13.1 26.91,-10.2"
         style="fill:#050606;fill-opacity:1;fill-rule:nonzero;stroke:none"
         id="path352" />
      <path
         d="m 6660.2,8002.8 c 31.21,-113 120.03,-137.4 224.84,-157.9 236.33,-46.3 273.16,-268.6 162.03,-456.3 -5.86,-9.8 20.66,-8.1 24.84,-5.1 138.79,94.6 135.47,285.7 31.22,405.3 -113.17,129.9 -323.79,40.7 -402.27,219.5 -5.35,12.2 -45.16,10.6 -40.66,-5.5"
         style="fill:#050606;fill-opacity:1;fill-rule:nonzero;stroke:none"
         id="path354" />
      <path
         d="m 6132.5,7453.3 c 156.88,-103.3 322.15,-183.3 510.47,-202.8 76.25,-7.9 328.51,-21 340.74,94.1 1.49,13.9 -31.01,11.5 -37.46,7.7 -268.24,-160.6 -535.16,-9 -788.91,110.4 -6.17,2.9 -36.48,-1.8 -24.84,-9.4"
         style="fill:#050606;fill-opacity:1;fill-rule:nonzero;stroke:none"
         id="path356" />
      <path
         d="m 6047.66,7492.1 c -95.39,45.8 -199.46,78.4 -299.03,114.4 -84.8,30.5 -177.73,56.9 -268,41.7 -10.59,-1.7 -19.22,-11.9 -4.18,-15.7 90.66,-23.2 180.74,-39.5 269.84,-69.5 93.09,-31.6 183.83,-75.3 282.11,-87 7.89,-1 38.2,7.1 19.26,16.1"
         style="fill:#050606;fill-opacity:1;fill-rule:nonzero;stroke:none"
         id="path358" />
      <path
         d="m 3391.13,7338.3 c 120.59,-76.2 196.53,-144.3 347.82,-127.6 159.02,17.7 314.33,71.1 458.16,140 179.22,85.8 339.65,203.7 529.49,267.6 137.93,46.4 349.06,-36.6 458.05,85.4 17.46,19.6 -31.88,19.7 -41.41,15.7 -135.97,-57.3 -286.29,-13.3 -427.85,-46 -128.16,-29.6 -247.26,-97.8 -360.43,-162 -133.71,-76 -264.22,-156.2 -411.48,-203.6 -85.63,-27.6 -165.9,-53.6 -257.19,-58.8 -100.16,-5.6 -178.99,83.1 -272.81,103.5 -8.09,1.7 -40.47,-2.8 -22.35,-14.2"
         style="fill:#050606;fill-opacity:1;fill-rule:nonzero;stroke:none"
         id="path360" />
      <path
         d="m 3648.67,8268.4 c -29.45,3.9 -57.5,-1.5 -82.11,-18.4 -23.94,-16.6 -34.18,-47.8 -21.52,-74.1 4.14,-8.6 18.79,-9.8 26.68,-10 l 9.84,1.2 c 20.2,3.5 19.1,18.5 19.69,31.5 0.47,9.3 3.91,18.3 8.44,26.2 7.38,13.2 24.65,21.5 38.98,24.1 17.81,3.2 18.87,17 0,19.5"
         style="fill:#050606;fill-opacity:1;fill-rule:nonzero;stroke:none"
         id="path362" />
      <path
         d="m 3832.3,8213.7 c 27.78,34.5 63.25,44.5 106.22,43.8 -8.99,2.5 -17.93,5 -26.92,7.5 16.29,-11.6 31.37,-8.9 48.24,-16.5 10.47,-4.8 66.88,-2.8 46.29,17.4 -14.41,14.2 -30.43,8.6 -45.58,17.6 -18.17,10.8 -49.85,3.1 -69.14,-0.2 -42.07,-7.3 -77.03,-27.7 -99.81,-64.1 -8.4,-13.4 32.78,-15.3 40.7,-5.5"
         style="fill:#050606;fill-opacity:1;fill-rule:nonzero;stroke:none"
         id="path364" />
      <path
         d="m 4431.02,8481.7 c 21.48,30.4 53.39,56.2 92.07,58.5 26.87,1.5 57.34,-13.3 83.08,-20.5 4.92,-1.4 24.73,-1.8 21.25,8 -13.36,37.9 -76.13,41.8 -111.52,38.5 -53.2,-4.9 -93.75,-29.9 -113.67,-80.6 -4.57,-11.4 23.75,-11 28.79,-3.9"
         style="fill:#050606;fill-opacity:1;fill-rule:nonzero;stroke:none"
         id="path366" />
      <path
         d="m 4179.06,8338.6 c 16.21,13.4 33.01,27.2 53.21,34.2 16.52,5.9 32.65,3.6 49.92,4.5 8.36,0.4 30.11,7.7 14.06,16.6 -56.64,31.5 -114.45,-5.9 -150.12,-48.5 -8.16,-9.8 26.37,-12.2 32.93,-6.8"
         style="fill:#050606;fill-opacity:1;fill-rule:nonzero;stroke:none"
         id="path368" />
      <path
         d="m 5248.48,8619.6 c 18.71,15.6 45.35,28.2 70,20.3 23.04,-7.4 32.65,-25.6 51.91,-37.8 9.88,-6.2 36.29,-5.7 39.73,8.1 8.86,35.3 -61.14,53.8 -84.96,55.7 -39.69,3.3 -81.14,-7.9 -109.3,-37 -12.38,-12.8 24.37,-16.2 32.62,-9.3"
         style="fill:#050606;fill-opacity:1;fill-rule:nonzero;stroke:none"
         id="path370" />
      <path
         d="m 5555.59,8474.2 c 17.34,-0.9 34.76,-1.7 51.71,-5.8 18.21,-4.3 33.83,-15.2 51.96,-20.3 6.64,-1.9 25.19,-2.7 26.4,7.4 2.58,21.4 -28.86,30 -44.96,33.8 -27.85,6.5 -56.75,5.3 -85.11,3.9 -23.13,-1.2 -23.13,-17.8 0,-19"
         style="fill:#050606;fill-opacity:1;fill-rule:nonzero;stroke:none"
         id="path372" />
      <path
         d="m 5281.64,8301.8 c -29.26,-84.8 -10.55,-187 41.09,-259.2 38.83,-54.4 145.59,-106.7 206.22,-55.6 10.03,8.5 -10.4,13.4 -15.55,13.4 -38.63,-0.5 -68.79,-6.4 -105.04,12.6 -36.17,18.9 -61.33,56.1 -80.55,90.7 -33.12,60 -48.94,129.7 -32.38,197.2 l -13.79,0.9"
         style="fill:#050606;fill-opacity:1;fill-rule:nonzero;stroke:none"
         id="path374" />
      <path
         d="m 6119.69,8055.7 c 58.75,-23.5 78.98,-87.5 84.92,-145.7 2.62,-25.2 0.7,-50.9 -3.79,-75.7 -1.95,-10.8 -5.7,-21.1 -10.31,-31.1 -5.71,-12.3 -17.97,-14.1 -2.15,-13.7 -5.2,-0.2 -21.37,-2.4 -17.38,-11.3 9.18,-20.4 48.36,-13.1 62.38,-3.1 24.61,17.5 27.85,58.4 29.65,85.7 5.97,88.4 -32.07,181.4 -121.99,208.4 -8.4,2.6 -38.99,-6.4 -21.33,-13.5"
         style="fill:#050606;fill-opacity:1;fill-rule:nonzero;stroke:none"
         id="path376" />
      <path
         d="m 6920.31,7748.6 c 35.51,-41.1 50.86,-93.2 53.09,-146.6 2.69,-64.7 -27.11,-96.4 -79.38,-125.1 -10.31,-5.7 -0.35,-12.6 7.15,-13.4 165,-17.1 139.81,224.7 45.74,292.7 -6.44,4.7 -36.56,4 -26.6,-7.6"
         style="fill:#050606;fill-opacity:1;fill-rule:nonzero;stroke:none"
         id="path378" />
      <path
         d="m 6790.98,7445.2 c -3.48,-11.5 -15.71,-15.4 -19.26,-27.3 9.02,2.5 18.08,5 27.19,7.5 -21.06,1.7 -40.67,-2.1 -61.53,-3.4 -13.24,-0.9 -32.58,6.8 -43.9,-2.7 -20.63,-17.2 32.18,-23.6 38.75,-23.7 22.18,-0.4 44.76,5.9 66.68,8.9 4.96,0.7 16.52,3.3 16.21,10.4 -0.39,10.6 9.1,16.9 8.63,28.2 -0.39,10.8 -30,11.5 -32.77,2.1"
         style="fill:#050606;fill-opacity:1;fill-rule:nonzero;stroke:none"
         id="path380" />
      <path
         d="m 6229.84,7579.5 c 70.63,-60.3 140.71,-114.5 233.68,-133.1 21.25,-4.3 42.26,15.7 12.14,21.5 -82.34,16 -150.7,70.8 -216.25,120 -7.89,6 -41.44,1.6 -29.57,-8.4"
         style="fill:#050606;fill-opacity:1;fill-rule:nonzero;stroke:none"
         id="path382" />
      <path
         d="m 6135.51,7617.9 c -45.98,4.5 -82.85,33.3 -122.46,53.8 -3.56,1.9 -20.75,2.8 -17.66,-5 17.66,-44.4 93.63,-62.4 136.72,-61.1 11.29,0.3 18.28,10.8 3.4,12.3"
         style="fill:#050606;fill-opacity:1;fill-rule:nonzero;stroke:none"
         id="path384" />
      <path
         d="m 5856.17,7728.8 c -30.19,9.2 -60.86,15.6 -91.91,21.3 -33.91,6.3 -59.03,23.7 -90.2,35.5 -3.98,1.5 -15.35,1.7 -17.42,-3.5 -20.35,-51.6 166.68,-58.7 191.45,-62.8 6.83,-1.1 20.35,5.7 8.08,9.5"
         style="fill:#050606;fill-opacity:1;fill-rule:nonzero;stroke:none"
         id="path386" />
      <path
         d="m 5539.57,7800.5 c -84.41,37.9 -183.2,84.9 -277.97,84.3 -130.62,-0.8 -246.56,-62.3 -375.86,-74.2 13.83,-3.9 27.66,-7.7 41.45,-11.6 -11.49,14.4 -13.79,17.1 -28.32,29 -7.93,6.4 -37.62,9.5 -39.34,-5.3 -2.62,-9.5 -2.19,-18.8 1.45,-28.1 3.04,-13.7 21.87,-16.7 33.71,-16.5 72.34,1.5 135.51,18.3 203.86,41.9 147.62,51.1 279.61,14.1 420.32,-32.6 8.16,-2.8 37.77,5.6 20.7,13.1"
         style="fill:#050606;fill-opacity:1;fill-rule:nonzero;stroke:none"
         id="path388" />
      <path
         d="m 4440.74,7741.7 c -123.9,-39 -231.09,-97.9 -335.11,-175.3 -80.9,-60.2 -152.54,-114.3 -250,-146.4 -53.56,-17.7 -218.87,-42.3 -255.16,26.8 -7.46,14.2 -55.24,16 -56.13,-3.7 -5.04,-109.1 232.54,-76.2 295.31,-66.3 238.05,37.5 393.4,268.9 610.66,358.8 7.93,3.3 -5.74,7.3 -9.57,6.1"
         style="fill:#050606;fill-opacity:1;fill-rule:nonzero;stroke:none"
         id="path390" />
      <path
         d="m 3398.32,7623.2 c 24.88,-32 39.14,-85.1 85.63,-89.8 6.01,-0.6 14.64,-0.6 19.37,3.9 13.52,12.7 -4.92,31.1 -12.81,39.9 -16.8,18.9 -35.08,37.5 -54.46,53.8 -6.05,5.1 -15.89,5.6 -23.35,4.6 -3.79,-0.5 -20.12,-5.1 -14.38,-12.4"
         style="fill:#050606;fill-opacity:1;fill-rule:nonzero;stroke:none"
         id="path392" />
      <path
         d="m 4307.7,8180.7 c -53.09,5 -114.81,-2.5 -163.79,-24.9 -6.96,-3.3 -11.29,-10.6 -4.34,-16.5 10.12,-8.4 25.98,-7.4 37.93,-4.8 43.75,9.7 85.43,27.2 130.2,33.4 11.87,1.6 12.42,11.7 0,12.8"
         style="fill:#050606;fill-opacity:1;fill-rule:nonzero;stroke:none"
         id="path394" />
      <path
         d="m 5715,5865.6 c 133.13,-16 263.09,-33.5 394.34,-62.6 124.64,-27.7 238.9,-83.2 360.86,-118 12.89,-3.7 95.89,7.8 61.91,30.3 -212.7,141.1 -566.02,201.7 -817.11,183.6 -31.95,-2.3 -30.55,-29.6 0,-33.3"
         style="fill:#ffffff;fill-opacity:1;fill-rule:nonzero;stroke:none"
         id="path396" />
      <path
         d="m 4025.98,3860.1 c -49.3,-114.8 -55.35,-241.2 -74.73,-363.6 -27.27,-171.9 -60.82,-342.5 -114.34,-508.4 -43.78,-136 -105.46,-265.4 -163.86,-395.5 -41.64,-92.6 -77.11,-194.7 -22.58,-288.7 14.65,-25.1 73.75,-24.6 92.81,-5.9 7.15,7 12.54,11.5 11.68,22 -2.69,32.5 -77.34,28.2 -90.62,6 l 9.49,6.1 c 24.88,-5 49.72,-10 74.61,-14.9 -60.63,118.2 21.83,243.3 68.67,352 56.33,130.5 112.77,257.6 154.69,394 38.71,125.8 59.29,254.6 78.32,384.6 18.55,126.5 58.55,289 16.52,412.3 -3.83,11.3 -36.21,10.4 -40.66,0"
         style="fill:#ffffff;fill-opacity:1;fill-rule:nonzero;stroke:none"
         id="path398" />
      <path
         d="m 6910.51,2732.4 c -8.95,-76.5 38.28,-148.1 71.01,-213.5 20.9,-41.8 122.93,-213.6 51.06,-244.2 32.85,-4.2 65.66,-8.5 98.44,-12.7 -31.14,52.3 -82.39,52.3 -113.52,0 -24.45,-41.1 82.73,-34.8 98.4,-28.1 182.58,78.4 -113.63,395.2 -140.35,498.5 -5.51,21.3 -62.27,23.6 -65.04,0"
         style="fill:#ffffff;fill-opacity:1;fill-rule:nonzero;stroke:none"
         id="path400" />
      <path
         d="m 5317.73,2331 c 82.9,-58.5 190.79,-58.1 288.75,-60.3 208.4,-5 415.63,-2.7 624.07,-1.5 17.73,0.1 77.15,13.4 48.2,41.1 -7.62,6.9 -14.88,14.2 -21.64,22 -10.2,10.9 -42.93,10.9 -53.09,0 -23.63,-25.4 -100.78,-10.1 -134.53,-10.8 -89.49,-1.9 -178.9,-4.1 -268.44,-3.9 -147.26,0.3 -296.75,0.8 -440.66,34.3 -8.05,1.9 -66.37,-4.2 -42.66,-20.9"
         style="fill:#ffffff;fill-opacity:1;fill-rule:nonzero;stroke:none"
         id="path402" />
      <path
         d="m 5142.07,2294 c 31.25,-17 72.19,-17 105.55,-7 15.04,4.6 28.86,12.3 34.41,27.6 4.22,11.8 -3.51,23.3 -12.62,30.8 -11.87,9.6 -34.33,8.7 -46.28,0 l -5.79,-4.4 -2.65,-2.2 c 7.34,3.4 5.9,3 -4.26,-1.1 -7.23,-4.5 -9.02,-5.7 -5.47,-3.5 -8.87,-5.2 6.92,1.4 -3.44,-1.2 l -13.51,-5 c -8.56,-4 7.19,1.5 7.38,1.6 -10.16,-2.1 8.91,-0.5 9.77,-0.5 -8.87,0.7 2.54,-1.1 4.64,-2 -21.32,8.2 -46.6,10.4 -67.73,0 -18.01,-8.7 -16.72,-24.1 0,-33.1"
         style="fill:#ffffff;fill-opacity:1;fill-rule:nonzero;stroke:none"
         id="path404" />
      <path
         d="m 3743.52,6832.6 c -41.02,-40.7 -34.73,-87.6 -25.59,-142.5 16.17,-97 12.07,-193.2 15.08,-291.5 7.15,-238.6 10.08,-476.4 11.29,-715 2.58,-492.3 -30.98,-983.7 -67.39,-1474.5 -35.62,-478.7 -29.1,-1011.9 -232.18,-1455.8 -72.78,-159.2 -192.03,-295.6 -229.77,-469.3 -15.27,-70.3 -73.51,-239.9 -16.87,-301.5 15.78,-17.2 88.59,-6.9 65.23,18.7 -54.57,59.9 32.93,320.2 60.39,384.5 78.52,184.3 196.02,340.9 260.35,532.9 136.68,407.8 132.7,865.5 164.3,1290.5 33.79,454.1 67.54,912.1 63.83,1367.5 -1.88,223.3 -4.46,447.3 -16.06,670.3 -6.21,119.1 -12.65,238 -15.82,357.2 -1.87,70 -60.62,159.3 -11.05,223.1 5.94,7.7 -20.59,10.5 -25.74,5.4"
         style="fill:#050606;fill-opacity:1;fill-rule:nonzero;stroke:none"
         id="path406" />
      <path
         d="m 6997.42,6882.5 c -101.83,-839.7 -100.08,-1706 -35.19,-2548.8 31.32,-406.2 91.75,-809.5 202.46,-1202 114.57,-406.2 289.84,-788.1 389.02,-1199.9 6.17,-25.7 78.2,-22.9 73.83,0 -69.77,365.7 -221.29,707.7 -340.51,1058.6 -140.98,415 -202.3,855.3 -239.76,1290.4 -36.68,426.2 -41.96,851.9 -38.83,1279.3 1.56,213.1 -2.31,426.3 -0.28,639.5 2.19,227.3 48.09,455.9 20.9,682.9 -1.25,11 -30.27,10.9 -31.64,0"
         style="fill:#050606;fill-opacity:1;fill-rule:nonzero;stroke:none"
         id="path408" />
      <path
         d="m 3443.79,1977.9 c 300.86,-108.6 642.66,-130.9 959.37,-151.2 353.32,-22.7 708.4,-13.3 1062,-3.4 348.82,9.8 700.31,9.9 1048.43,35.2 149.11,10.8 294.07,49.8 443.44,59.6 62.27,4.1 127.35,23.3 131.41,92.5 1.33,23.3 -51.06,16.7 -61.45,8.2 -78.47,-64.8 -202.46,-55.1 -301.17,-71.9 -165.27,-28.3 -326.25,-40.7 -493.91,-46.5 -308.67,-10.7 -617.3,-20.4 -925.97,-28.4 -301.02,-7.8 -601.96,-8.6 -902.78,6.6 -317.5,16 -621.44,78.6 -933.98,128.8 -21.68,3.5 -62.97,-15.9 -25.39,-29.5"
         style="fill:#050606;fill-opacity:1;fill-rule:nonzero;stroke:none"
         id="path410" />
      <path
         d="m 5264.84,1711.9 c 76.06,11.4 166.8,-9.1 244.34,-10 117.85,-1.3 235.55,-3.2 353.4,-6.1 207.5,-5.1 397.11,14.6 601.64,42.4 5.27,0.7 5.66,5.4 0,5.8 -215.63,15.4 -435.51,-11.2 -652.31,-5.6 -117.77,3 -235.62,0.4 -353.32,-0.9 -72.07,-0.8 -138.12,12.6 -206.91,-10.3 -19.88,-6.5 2.11,-17 13.16,-15.3"
         style="fill:#050606;fill-opacity:1;fill-rule:nonzero;stroke:none"
         id="path412" />
      <path
         d="m 6542.34,1747.1 c 79.38,-15.9 158.48,14.1 238.01,15.1 52.58,0.6 112.85,0.8 160.47,26 29.38,15.5 -25.78,28.4 -41.68,20.4 42.66,21.4 -5.39,-3.2 -16.64,-6.9 -36.09,-11.8 -79.22,-10.2 -116.68,-11 -75,-1.6 -148.48,-22 -223.48,-27.5 -16.29,-1.1 -13.94,-13.4 0,-16.1"
         style="fill:#050606;fill-opacity:1;fill-rule:nonzero;stroke:none"
         id="path414" />
      <path
         d="m 3405.7,1808.7 c 93.71,-12.6 182.27,-52.5 276.06,-68.7 134.02,-23 271.01,-40.2 406.25,-54.2 233.4,-24.1 456.48,-9 688.2,11.2 4.73,0.5 2.38,3.7 -1.05,3.8 -256.06,14.8 -513.28,11 -768.52,39 -117.73,12.9 -235.94,28.6 -353.12,45.3 -86.76,12.3 -159.46,53.1 -247.82,43.1 -18.55,-2.1 -18.16,-17.1 0,-19.5"
         style="fill:#050606;fill-opacity:1;fill-rule:nonzero;stroke:none"
         id="path416" />
      <path
         d="m 4910.55,1684.1 c 23.71,9.2 59.8,-5.4 85.39,-2.7 49.76,5.3 106.21,-5.1 153.75,11.1 19.06,6.5 19.18,20.4 0,26.9 -61.25,20.6 -131.33,-3.1 -194.42,-2.2 -17.22,0.2 -83.98,5.1 -83,-25.3 0.5,-15.2 30.23,-10.9 38.28,-7.8"
         style="fill:#050606;fill-opacity:1;fill-rule:nonzero;stroke:none"
         id="path418" />
      <path
         d="m 7039.18,1846.6 c -14.57,-14.9 -31.29,-36.8 1.33,-41.2 34.29,-4.6 65.66,18.7 93.63,34.7 15.74,9 34.22,5.1 52.07,5.8 23.44,0.9 46.25,4.5 69.1,9.8 41.49,9.8 80.71,34.2 80.28,79.9 -0.12,12.5 -26.84,9.2 -32.78,4.4 -25.04,-20.3 -50.66,-45.2 -81.44,-55.8 -28.52,-9.8 -61.25,-8 -90.9,-8.4 -33.95,-0.4 -67.77,-43.8 -89.96,-45.8 9.76,-2 19.57,-3.9 29.33,-5.8 5.51,0.5 6.76,5.6 3.91,15.2 4.06,14.4 -27.81,14.1 -34.57,7.2"
         style="fill:#050606;fill-opacity:1;fill-rule:nonzero;stroke:none"
         id="path420" />
      <path
         d="m 5523.05,6985.2 c 168.16,-19.7 334.68,-38.4 502.42,-62.2 172.85,-24.3 354.84,-39.8 504.61,-137.6 22.11,-14.5 106.52,1.3 75.9,21.7 -143.09,95.4 -315.24,120.2 -482.5,141.8 -198.6,25.8 -399.26,71.4 -600.43,52.1 -15.04,-1.4 -14.69,-14 0,-15.8"
         style="fill:#050606;fill-opacity:1;fill-rule:nonzero;stroke:none"
         id="path422" />
      <path
         d="m 6562.3,6725.9 -0.54,-7.6 c -0.04,-1.8 1.01,-11.6 0.86,-4.4 0.43,-18.5 34.57,-18.3 46.13,-17.2 12.27,1.1 26.64,6.2 29.06,19.6 1.33,7.5 0.86,18.2 -3.94,24.3 -9.07,11.5 -34.22,12.5 -45.08,2.9 l -9.1,-11 -3.44,-3.9 c -1.91,-2 -7.23,-3.9 -1.91,-1.8 5.39,1.5 10.74,3 16.09,4.6 5.74,0 11.45,-0.1 17.15,-0.1 8.24,-4 16.52,-8.1 24.8,-12.2 l -2.42,6.8 c -3.98,23 -65,23.9 -67.66,0"
         style="fill:#050606;fill-opacity:1;fill-rule:nonzero;stroke:none"
         id="path424" />
      <path
         d="m 6594.84,6599.4 c -4.68,-114 -31.09,-229.8 10.36,-340.1 4.53,-11.9 43.55,-9 38.12,5.2 -40.51,106.3 -16.56,224.1 -17.69,334.9 -0.16,10.6 -30.4,10.6 -30.79,0"
         style="fill:#050606;fill-opacity:1;fill-rule:nonzero;stroke:none"
         id="path426" />
      <path
         d="m 4120.86,6796.2 c -11.25,-181.7 9.77,-363.5 -4.61,-545.1 -4.92,-62.7 -43.52,-214.9 16.88,-261 6.48,-5 40.23,-7.8 34.53,7.1 -27.27,71.4 3.47,204.2 7.46,279.7 9.06,172.3 -11.33,347.8 -25.28,519.3 -0.78,10 -28.32,10.1 -28.98,0"
         style="fill:#050606;fill-opacity:1;fill-rule:nonzero;stroke:none"
         id="path428" />
      <path
         d="m 4237.15,5901.9 c 234.1,109.5 538.71,147.7 794.3,173.1 297.42,29.6 598.9,-14.5 894.37,23.9 20.63,2.7 10.74,16.1 -4.61,16.9 -321.01,17 -640.9,22.1 -960.78,-9.5 -147.97,-14.6 -306.41,-43.2 -450.08,-81.8 -107.15,-28.7 -219.61,-42.7 -311.87,-108.1 -18.28,-12.9 29.41,-18.9 38.67,-14.5"
         style="fill:#050606;fill-opacity:1;fill-rule:nonzero;stroke:none"
         id="path430" />
      <path
         d="m 5972.62,6056.5 c 43.9,-3.5 143.28,-43.1 172.22,6.9 4.93,8.5 -16.13,8 -19.41,7.3 -49.8,-11.4 -97.7,4.3 -148.01,3.2 -15.94,-0.4 -25.78,-15.7 -4.8,-17.4"
         style="fill:#050606;fill-opacity:1;fill-rule:nonzero;stroke:none"
         id="path432" />
      <path
         d="m 4219.77,6866.6 c -27.19,-104.3 -4.22,-217.3 1.71,-323.5 1.06,-18.2 52.35,-18.1 52.74,0 2.42,107.8 -23.09,215.6 -26.37,323.5 -0.27,10.2 -25.78,9 -28.08,0"
         style="fill:#050606;fill-opacity:1;fill-rule:nonzero;stroke:none"
         id="path434" />
      <path
         d="m 4261.41,6457 2.11,7 c 3.78,12.3 -28.44,14 -31.37,4.2 -4.57,-15.1 -4.69,-29.8 -5.24,-45.6 -0.39,-10.3 -0.74,-20.6 -1.17,-30.8 -0.27,-8.5 0.51,-13.1 8.95,-17.2 7.69,-3.7 18.59,-3.7 26.33,0 6.75,3.4 6.83,9.6 0,13 l -5.63,3 h -15.12 l -5.58,-3 c -6.76,-3.4 -6.76,-9.6 0,-13 7.69,-3.7 18.59,-3.7 26.33,0 7.69,3.8 9.25,7.8 9.02,15.8 -0.35,10.1 -0.78,20.1 -1.17,30.1 -0.59,16.5 -0.55,32 -5.35,47.7 -2.93,9.8 -35.04,8.1 -31.37,-4.2 l 2.11,-7 c 2.22,-7.3 24.92,-7.3 27.15,0"
         style="fill:#050606;fill-opacity:1;fill-rule:nonzero;stroke:none"
         id="path436" />
      <path
         d="m 6608.48,6135.4 -4.3,25.1 c -15.04,1 -30,2 -45,2.9 9.77,-40.4 14.22,-79.5 14.18,-121.2 -0.08,-43.1 -14.1,-94.4 4.14,-134.3 4.65,-10.1 32.58,-9.9 37.3,0 18.6,38.9 11.33,91.9 11.22,134.3 -0.16,42.3 -3.6,85.7 -21.84,124.3 -9.02,19 -55.94,2.1 -41.88,-8.7 9.77,-5.7 17.11,-13.7 21.96,-24 2.93,-6.4 26.01,-5.9 24.22,1.6"
         style="fill:#050606;fill-opacity:1;fill-rule:nonzero;stroke:none"
         id="path438" />
      <path
         d="m 4383.05,6301.4 c 9.76,-17.2 -0.75,-40 8.12,-56.9 7.07,-13.7 43.83,-13.7 50.82,0 4.49,8.5 2.89,24.2 -0.15,33.2 -4.22,12.3 -11.64,23.3 -21.88,31.4 -6.56,5.2 -45.08,6.7 -36.91,-7.7"
         style="fill:#050606;fill-opacity:1;fill-rule:nonzero;stroke:none"
         id="path440" />
      <path
         d="m 4531.25,6304.1 c -0.43,-7.9 -5.43,-17.1 -9.41,-21.6 -15.39,-17.4 32.77,-23.3 43.28,-12.4 9.29,9.6 16.48,20.4 18.04,34 1.92,16.7 -50.78,18.6 -51.91,0"
         style="fill:#050606;fill-opacity:1;fill-rule:nonzero;stroke:none"
         id="path442" />
      <path
         d="m 4554.53,6522.3 -10.27,11.1 c -5.78,6.3 -24.53,6.3 -30.35,0 l -10.24,-11.1 c -26.01,-28.3 76.88,-28.3 50.86,0"
         style="fill:#050606;fill-opacity:1;fill-rule:nonzero;stroke:none"
         id="path444" />
      <path
         d="m 4495.27,6704.3 -12.81,11.1 c -7.42,5.8 -18.55,6.7 -27.62,5.5 -4.53,-0.7 -23.67,-6.1 -17.03,-14.8 3.95,-5 8.36,-9.8 12.66,-14.7 11.6,-13.3 61.29,-1.8 44.8,12.9"
         style="fill:#050606;fill-opacity:1;fill-rule:nonzero;stroke:none"
         id="path446" />
      <path
         d="m 4778.24,6391.8 c -3.12,5.4 -6.68,9.8 -10.9,14.5 -4.96,5.6 -21.6,5.6 -26.52,0 -4.22,-4.7 -7.77,-9.1 -10.9,-14.5 -11.87,-20.8 60.2,-20.8 48.32,0"
         style="fill:#050606;fill-opacity:1;fill-rule:nonzero;stroke:none"
         id="path448" />
      <path
         d="m 4754.06,6911.8 c 26.88,0 26.88,22 0,22 -26.87,0 -26.87,-22 0,-22"
         style="fill:#050606;fill-opacity:1;fill-rule:nonzero;stroke:none"
         id="path450" />
      <path
         d="m 4725.94,6603.9 c 23.2,0 23.2,19 0,19 -23.17,0 -23.17,-19 0,-19"
         style="fill:#050606;fill-opacity:1;fill-rule:nonzero;stroke:none"
         id="path452" />
      <path
         d="m 4902.07,6273.7 c -6.99,-0.7 -13.87,-1.2 -20.31,-4.4 -7.81,-3.8 -7.81,-11 0,-14.8 6.44,-3.2 13.32,-3.7 20.31,-4.4 7.77,-0.8 31.72,-0.9 31.72,11.8 0,12.7 -23.95,12.7 -31.72,11.8"
         style="fill:#050606;fill-opacity:1;fill-rule:nonzero;stroke:none"
         id="path454" />
      <path
         d="m 4627.54,6192.5 c 32.11,0 32.11,26.3 0,26.3 -32.11,0 -32.11,-26.3 0,-26.3"
         style="fill:#050606;fill-opacity:1;fill-rule:nonzero;stroke:none"
         id="path456" />
      <path
         d="m 4402.5,6111.2 c 24.84,0 24.84,20.2 0,20.2 -24.69,0 -24.69,-20.2 0,-20.2"
         style="fill:#050606;fill-opacity:1;fill-rule:nonzero;stroke:none"
         id="path458" />
      <path
         d="m 4430.66,6868.6 c 29.5,0 29.5,24.1 0,24.1 -29.45,0 -29.45,-24.1 0,-24.1"
         style="fill:#050606;fill-opacity:1;fill-rule:nonzero;stroke:none"
         id="path460" />
      <path
         d="m 4353.55,6710.7 c -6.32,0.4 -12.77,1.3 -19.14,0.9 -7.81,-0.4 -28.24,-1.8 -28.24,-13.8 0,-11.9 20.43,-13.3 28.24,-13.8 6.37,-0.4 12.82,0.5 19.14,1 6.41,0.4 19.97,4.3 19.97,12.8 0,8.6 -13.56,12.4 -19.97,12.9"
         style="fill:#050606;fill-opacity:1;fill-rule:nonzero;stroke:none"
         id="path462" />
      <path
         d="m 4557.19,6855 c 28.47,0 28.47,23.2 0,23.2 -28.4,0 -28.4,-23.2 0,-23.2"
         style="fill:#050606;fill-opacity:1;fill-rule:nonzero;stroke:none"
         id="path464" />
      <path
         d="m 4363.87,6571.3 c 0.31,-7.7 -0.2,-16.1 1.83,-23.5 2.39,-8.8 14.42,-12.6 22.74,-12.6 8.36,0 20.43,3.8 22.81,12.6 2.07,7.4 1.48,15.8 1.8,23.5 0.78,16.8 -49.92,16.8 -49.18,0"
         style="fill:#050606;fill-opacity:1;fill-rule:nonzero;stroke:none"
         id="path466" />
      <path
         d="m 4236.41,6205.7 c 0.27,-11.1 0.58,-20.7 8.16,-29.3 7.7,-8.7 28.44,-7.8 38.52,-4.8 3.39,1 10.7,5.7 5.04,9.4 l 0.85,-1.7 -0.58,8.9 c -1.72,5.5 -1.06,11.8 -1.02,17.5 0.32,17.5 -51.33,17.5 -50.97,0"
         style="fill:#050606;fill-opacity:1;fill-rule:nonzero;stroke:none"
         id="path468" />
      <path
         d="m 4613.48,6713.4 c 30.5,0 30.5,25.1 0,25.1 -30.59,0 -30.59,-25.1 0,-25.1"
         style="fill:#050606;fill-opacity:1;fill-rule:nonzero;stroke:none"
         id="path470" />
      <path
         d="m 4824.38,6758.9 c 22.65,0 22.65,18.5 0,18.5 -22.66,0 -22.66,-18.5 0,-18.5"
         style="fill:#050606;fill-opacity:1;fill-rule:nonzero;stroke:none"
         id="path472" />
      <path
         d="m 4904.34,6529.1 c -0.2,7.2 -0.36,13.2 -5.79,18.5 -8.43,8.1 -26.52,8.1 -36.56,4.6 -5.31,-1.8 -16.25,-8.4 -7.73,-14.5 l 9.18,-4.7 c -5.2,6.3 -7.35,7.1 -6.45,2.4 l -0.08,-6.3 c -0.35,-16.3 47.89,-16.3 47.43,0"
         style="fill:#050606;fill-opacity:1;fill-rule:nonzero;stroke:none"
         id="path474" />
      <path
         d="m 5035.31,6393.7 c 21.6,0 21.6,17.7 0,17.7 -21.56,0 -21.56,-17.7 0,-17.7"
         style="fill:#050606;fill-opacity:1;fill-rule:nonzero;stroke:none"
         id="path476" />
      <path
         d="m 5604.8,5446.3 c -8.98,-268.2 21.92,-538.8 37.97,-806.3 7.7,-129.2 26.68,-254.6 19.93,-384.6 -4.85,-92.9 -16.76,-190.9 33.86,-273.3 4.53,-7.4 31.29,-7.1 27.46,3.7 l -4.84,13.4 c -1.72,4.7 -16.09,4.7 -17.81,0 l -4.18,-11.7 c 21.91,30.8 21.17,64.2 -2.27,100 -8.79,54.6 -1.99,113.2 0.86,167.9 6.64,129.4 -9.88,256 -21.72,384.6 -24.45,267.5 -41.48,537.9 -55.19,806.3 -0.2,4.9 -13.87,4.9 -14.07,0"
         style="fill:#050606;fill-opacity:1;fill-rule:nonzero;stroke:none"
         id="path478" />
      <path
         d="m 5691.37,3885.5 c -1.21,-14.3 -2.85,-28.6 -3.28,-42.9 -0.24,-10 -1.84,-20.6 1.01,-30.3 3.28,-11.3 39.03,-11.3 42.38,0 2.82,9.7 1.25,20.3 0.94,30.3 -0.39,14.3 -2.07,28.6 -3.28,42.9 -1.09,13.1 -36.72,13.1 -37.77,0"
         style="fill:#050606;fill-opacity:1;fill-rule:nonzero;stroke:none"
         id="path480" />
      <path
         d="m 5777.11,2688.9 -1.37,0.6 c -7.07,1.4 -14.06,2.8 -21.05,4.3 -4.85,-37.3 2.65,-76.6 5.54,-113.9 5.2,-66.7 -9.33,-142.6 29.85,-201.5 6.44,-9.8 43.71,-8.7 37.3,5 -31.17,66.2 -22.89,134.6 -29.29,205.2 -2.93,31.9 -0.71,79.1 -19.14,106.8 -3.79,5.7 -20.67,7.1 -23.87,0 l 0.82,-6.5 c 2.03,-6 18.9,-5.5 21.21,0"
         style="fill:#050606;fill-opacity:1;fill-rule:nonzero;stroke:none"
         id="path482" />
      <path
         d="m 7327.34,6380.3 c 147.35,-1.3 294.73,-3.9 441.53,10.9 108.75,11 216.01,32.9 325.78,32 163.67,-1.4 178.08,-144.8 168.67,-273.8 -12.38,-169.1 -9.49,-337.2 2.23,-506.2 23.24,-336.6 92.18,-663.7 139.88,-996.8 32.62,-227.7 32.89,-447.1 -156.45,-600.3 -17.34,-14.1 25.98,-17.5 32.47,-16 231.25,55.3 220.54,375.5 203.55,558.9 -37.5,405.3 -132.46,798.2 -138.79,1208 -2.46,156.4 50.98,351.8 8.09,502.8 -24.61,86.6 -83.87,141.2 -173.21,157 -99.1,17.7 -198.94,3.7 -297.61,-9.9 -186.29,-25.8 -375.47,-20.9 -560.55,-50.6 -18.98,-3 -10.74,-15.9 4.41,-16"
         style="fill:#050606;fill-opacity:1;fill-rule:nonzero;stroke:none"
         id="path484" />
      <path
         d="m 7424.65,3586.5 c 137.5,127.3 267.89,223.3 451.21,276.8 66.91,19.6 222.15,5.8 265.19,74.9 11.06,17.7 -37.61,17.7 -45.46,13 -96.14,-58 -244.5,-52.1 -351.72,-94.9 -141.64,-56.6 -242.58,-152 -345.04,-262.4 -9.49,-10.3 19.37,-13.4 25.82,-7.4"
         style="fill:#050606;fill-opacity:1;fill-rule:nonzero;stroke:none"
         id="path486" />
      <path
         d="m 7324.84,3705.4 c 66.8,50 125.63,108.5 188.36,163.3 90.86,79.5 177.23,113.1 295.32,133.3 9.68,1.6 10.54,9.8 0,10.8 -214.03,20.8 -360.24,-170.8 -497.35,-303.5 -5.39,-5.2 10.2,-6.4 13.67,-3.9"
         style="fill:#050606;fill-opacity:1;fill-rule:nonzero;stroke:none"
         id="path488" />
      <path
         d="m 7867.46,4010.4 c 30.31,-5.9 61.64,-2.8 91.21,5.2 -8.44,7 -16.79,14 -25.12,21 -6.52,-2 -12.53,-4.9 -18.9,-7 l -5.27,-1.4 c 2.5,0.4 12.92,-3.6 2.77,1.4 -10.94,5.4 -36.64,9.5 -43.24,-5.7 l 2.61,-9.7 c 22.78,-22.1 73.32,-11.8 96.02,5.7 9.18,7.2 -2.19,14.7 -8.87,16.7 -10.86,3.1 -24.76,2.5 -34.06,-4.4 -6.29,-4.6 -18.24,-4.5 -25.7,-5.4 -10.51,-1.2 -21.1,-1.6 -31.45,-3.6 -12.03,-2.4 -12.07,-10.5 0,-12.8"
         style="fill:#050606;fill-opacity:1;fill-rule:nonzero;stroke:none"
         id="path490" />
      <path
         d="m 8206.41,4001.5 c -19.46,2.8 -38.75,0.1 -52.54,-14.7 17.77,-5 35.39,-10 53.16,-15.2 5.55,6 5.16,11.2 2.38,18.4 -3.98,10.1 -24.41,8.3 -32.07,6.4 -7.73,-1.9 -17.57,-4 -23.47,-9.6 -10.24,-9.5 1.6,-17.9 11.01,-20.6 12.31,-3.5 32.07,-4 42.15,5.4 l 5.86,5.4 c 5.27,4.6 -3.83,-0.9 -6.48,-1.3 6.48,1.1 20,4 20,12.9 0,8.9 -13.52,11.9 -20,12.9"
         style="fill:#050606;fill-opacity:1;fill-rule:nonzero;stroke:none"
         id="path492" />
      <path
         d="m 8578.24,4466.8 c -9.76,-113.3 -2.26,-229.1 -54.61,-333.7 -45.97,-91.7 -154.53,-128.1 -235.97,-179.4 -7.11,-4.4 5.5,-6.9 9.1,-5.7 82.03,26.5 175.86,64 231.48,133.7 86.99,109.1 74.1,253.9 60.55,385.1 h -10.55"
         style="fill:#050606;fill-opacity:1;fill-rule:nonzero;stroke:none"
         id="path494" />
      <path
         d="m 7348.44,6281.2 c 124.26,22 248.59,26.3 374.45,28.7 148.63,2.9 308.79,62.5 432.5,-50.4 13.36,-12.2 69.18,-3 50.12,14.3 -89.38,80.9 -194.61,89.1 -310.2,72.4 -183.83,-26.5 -372.93,-9.9 -553.63,-57.1 -10.27,-2.7 1.02,-8.9 6.76,-7.9"
         style="fill:#050606;fill-opacity:1;fill-rule:nonzero;stroke:none"
         id="path496" />
      <path
         d="m 8205.08,6560.4 c 20.04,-4 38.98,-3.8 59.3,-2.5 34.21,2 63.08,-28.2 79.6,-55.2 19.77,-32.1 20.2,-77 51.06,-101.1 6.56,-5.2 45.27,-10.4 42.62,5.6 -7.31,44.4 -36.14,99.2 -66.64,131.7 -16.8,17.9 -45.08,34.3 -69.73,37.4 -30.35,3.7 -59.02,-5.9 -89.22,-3.4 -11.91,0.9 -24.8,-9 -6.99,-12.5"
         style="fill:#050606;fill-opacity:1;fill-rule:nonzero;stroke:none"
         id="path498" />
      <path
         d="m 3096.99,7625.9 c -14.06,-171.9 105.35,-424.9 307.15,-413 6.45,0.4 16.33,6.3 5.35,9.6 -99.37,31.2 -162.85,70.9 -218.08,161.3 -44.85,73.3 -60.36,158.2 -70.71,242.1 -0.93,8.1 -23.04,8.2 -23.71,0"
         style="fill:#050606;fill-opacity:1;fill-rule:nonzero;stroke:none"
         id="path500" />
      <path
         d="m 7167.7,7813.4 c 8,-109.7 63.78,-207 64.33,-317.7 0.78,-156.2 -163.94,-245.9 -285.58,-298.1 -7.97,-3.5 4.8,-7.4 8.16,-6.9 120.31,17.8 217.58,96.8 279.61,199.2 81.6,134.6 -20.74,289.7 -47.23,423.5 -1.25,6.6 -19.76,6.5 -19.29,0"
         style="fill:#050606;fill-opacity:1;fill-rule:nonzero;stroke:none"
         id="path502" />
      <path
         d="m 5663.4,8936.1 c 80.62,-43.3 157.73,-86 204.65,-167.9 31.21,-54.5 56.87,-118.2 118.51,-144 6.76,-2.8 32.97,0.8 19.26,9.5 -72.23,45.7 -87.62,124.1 -142.23,183.9 -53.9,59 -119.21,90.1 -190.82,123 -3.47,1.6 -16.05,-1 -9.37,-4.5"
         style="fill:#050606;fill-opacity:1;fill-rule:nonzero;stroke:none"
         id="path504" />
      <path
         d="m 3894.45,8745.3 c 85.55,-33.4 183.83,-66 275.86,-71.9 53.48,-3.4 99.46,17.9 144.34,45.4 32.73,20 61.68,48 90.9,72.6 42.34,35.9 81.75,43.6 113.67,88.9 6.21,8.7 -19.61,8.8 -23.52,6.6 -104.92,-59 -233.98,-205.8 -358.16,-184 -75.63,13.4 -149.1,37.3 -223.91,54.6 -6.75,1.6 -35.54,-5.7 -19.18,-12.2"
         style="fill:#050606;fill-opacity:1;fill-rule:nonzero;stroke:none"
         id="path506" />
      <path
         d="m 3660.63,8092.5 c -23.72,-12.2 -54.69,-27.3 -64.65,-53.5 -10.59,-27.8 6.48,-60.6 32.46,-71.6 7.22,-3.1 36.05,-6.8 36.01,7.3 0,11.5 -7.77,17.5 -13.36,27.1 -5.19,9 -5.86,18.7 -4.49,28.7 2.93,22 21.6,40.5 38.17,52.9 11.09,8.3 -18.21,12.3 -24.14,9.1"
         style="fill:#050606;fill-opacity:1;fill-rule:nonzero;stroke:none"
         id="path508" />
      <path
         d="m 3349.38,7858.8 c -25.08,-5 -37.58,-25.1 -45.71,-48.1 -7.93,-22.6 -12.42,-56.2 15.2,-65.9 5.23,-1.8 13.04,-0.9 16.79,3.4 8.09,9.7 0.24,37.5 1.68,50.2 2.31,19.5 10.86,38.9 26.41,51.3 8.32,6.6 -10.82,9.9 -14.37,9.1"
         style="fill:#050606;fill-opacity:1;fill-rule:nonzero;stroke:none"
         id="path510" />
      <path
         d="m 6040.98,8350.7 c 87.3,12 179.37,50.8 259.65,-9.2 45.19,-33.8 52.1,-104.1 65.66,-154.4 22.11,-81.9 60.51,-138.5 148.32,-149.9 22.38,-2.9 69.77,21.6 27.42,31.9 -120.12,29.1 -98.44,211.6 -179.3,290.2 -83.98,81.5 -242.73,45.7 -337.65,10 -23.6,-8.9 2.3,-20.4 15.9,-18.6"
         style="fill:#050606;fill-opacity:1;fill-rule:nonzero;stroke:none"
         id="path512" />
      <path
         d="m 6623.91,7824.6 c 36.87,-17.5 65.66,-41.7 82.46,-79.4 7.5,-16.9 8.59,-36.3 8.55,-54.5 -0.04,-21.9 -13.71,-36.7 -0.08,-55.2 4.38,-5.9 16.02,-6 22.04,-2.8 37.81,20.2 36.28,73.2 25.97,110.5 -13.16,47.7 -58.05,80.3 -100.43,100.4 -14.96,7 -65.9,-5.8 -38.51,-19"
         style="fill:#050606;fill-opacity:1;fill-rule:nonzero;stroke:none"
         id="path514" />
      <path
         d="m 6536.45,7480.8 c 18.24,-1.4 36.4,-3 54.76,-2.9 5.24,0.1 18.99,1.5 18.99,9.4 0,7.8 -13.75,9.2 -18.99,9.2 -18.36,0.3 -36.52,-1.4 -54.76,-2.8 -12.15,-0.9 -12.15,-11.9 0,-12.9"
         style="fill:#050606;fill-opacity:1;fill-rule:nonzero;stroke:none"
         id="path516" />
      <path
         d="m 4602.3,7746.2 c 43.33,34.9 106.8,11.5 155.32,29.4 24.33,9 4.18,23 -12.7,22.9 -34.37,-0.1 -69.88,-3.8 -103.87,-9.1 -23.86,-3.8 -62.65,-9.8 -64.96,-39.7 -0.74,-9.9 21.88,-7 26.21,-3.5"
         style="fill:#050606;fill-opacity:1;fill-rule:nonzero;stroke:none"
         id="path518" />
      <path
         d="m 3708.98,7740.2 c 23.17,0 23.17,19 0,19 -23.16,0 -23.16,-19 0,-19"
         style="fill:#050606;fill-opacity:1;fill-rule:nonzero;stroke:none"
         id="path520" />
      <path
         d="m 3718.32,7564.5 c 17.38,0 17.38,14.2 0,14.2 -17.34,0 -17.34,-14.2 0,-14.2"
         style="fill:#050606;fill-opacity:1;fill-rule:nonzero;stroke:none"
         id="path522" />
      <path
         d="m 3858.98,7638.2 c 20.51,0 20.51,16.8 0,16.8 -20.54,0 -20.54,-16.8 0,-16.8"
         style="fill:#050606;fill-opacity:1;fill-rule:nonzero;stroke:none"
         id="path524" />
      <path
         d="m 3858.98,7910.7 c 18.95,0 18.95,15.5 0,15.5 -18.98,0 -18.98,-15.5 0,-15.5"
         style="fill:#050606;fill-opacity:1;fill-rule:nonzero;stroke:none"
         id="path526" />
      <path
         d="m 4027.7,7730.9 c 23.16,0 23.16,18.9 0,18.9 -23.17,0 -23.17,-18.9 0,-18.9"
         style="fill:#050606;fill-opacity:1;fill-rule:nonzero;stroke:none"
         id="path528" />
      <path
         d="m 3942.5,8078.7 c 4.77,-1.8 9.53,-3.6 14.3,-5.3 3.55,-1.3 15.62,-1.5 15.86,4.4 l 0.27,9.4 c 0.35,11.8 -24.02,10.4 -30.43,8.5 -13.05,-3.7 -11.41,-12.8 0,-17"
         style="fill:#050606;fill-opacity:1;fill-rule:nonzero;stroke:none"
         id="path530" />
      <path
         d="m 3990.23,7902.2 c 16.84,0 16.84,13.8 0,13.8 -16.87,0 -16.87,-13.8 0,-13.8"
         style="fill:#050606;fill-opacity:1;fill-rule:nonzero;stroke:none"
         id="path532" />
      <path
         d="m 4177.7,7892 c 18.94,0 18.94,15.5 0,15.5 -18.99,0 -18.99,-15.5 0,-15.5"
         style="fill:#050606;fill-opacity:1;fill-rule:nonzero;stroke:none"
         id="path534" />
      <path
         d="m 4243.36,7761.2 c 17.89,0 17.89,14.6 0,14.6 -17.89,0 -17.89,-14.6 0,-14.6"
         style="fill:#050606;fill-opacity:1;fill-rule:nonzero;stroke:none"
         id="path536" />
      <path
         d="m 4346.45,8080.5 c 16.32,0 16.32,13.4 0,13.4 -16.29,0 -16.29,-13.4 0,-13.4"
         style="fill:#050606;fill-opacity:1;fill-rule:nonzero;stroke:none"
         id="path538" />
      <path
         d="m 4543.32,8358.1 c 25.27,0 25.27,20.7 0,20.7 -25.27,0 -25.27,-20.7 0,-20.7"
         style="fill:#050606;fill-opacity:1;fill-rule:nonzero;stroke:none"
         id="path540" />
      <path
         d="m 4477.66,7992.5 c 25.27,0 25.27,20.7 0,20.7 -25.28,0 -25.28,-20.7 0,-20.7"
         style="fill:#050606;fill-opacity:1;fill-rule:nonzero;stroke:none"
         id="path542" />
      <path
         d="m 4533.95,8219 c 21.56,0 21.56,17.7 0,17.7 -21.61,0 -21.61,-17.7 0,-17.7"
         style="fill:#050606;fill-opacity:1;fill-rule:nonzero;stroke:none"
         id="path544" />
      <path
         d="m 4674.53,8032.6 c 18.99,0 18.99,15.4 0,15.4 -18.94,0 -18.94,-15.4 0,-15.4"
         style="fill:#050606;fill-opacity:1;fill-rule:nonzero;stroke:none"
         id="path546" />
      <path
         d="m 4438.52,7867.1 c -10.47,11.7 -23.72,11.7 -34.18,0 -17.07,-19.1 51.25,-19.1 34.18,0"
         style="fill:#050606;fill-opacity:1;fill-rule:nonzero;stroke:none"
         id="path548" />
      <path
         d="m 4730.78,7902 c 17.38,0 17.38,14.2 0,14.2 -17.34,0 -17.34,-14.2 0,-14.2"
         style="fill:#050606;fill-opacity:1;fill-rule:nonzero;stroke:none"
         id="path550" />
      <path
         d="m 4693.28,8219.9 c 19.49,0 19.49,15.8 0,15.8 -19.45,0 -19.45,-15.8 0,-15.8"
         style="fill:#050606;fill-opacity:1;fill-rule:nonzero;stroke:none"
         id="path552" />
      <path
         d="m 4721.45,8548 c 19.45,0 19.45,15.9 0,15.9 -19.54,0 -19.54,-15.9 0,-15.9"
         style="fill:#050606;fill-opacity:1;fill-rule:nonzero;stroke:none"
         id="path554" />
      <path
         d="m 4702.7,8379.9 c 17.85,0 17.85,14.6 0,14.6 -17.97,0 -17.97,-14.6 0,-14.6"
         style="fill:#050606;fill-opacity:1;fill-rule:nonzero;stroke:none"
         id="path556" />
      <path
         d="m 4899.49,8311.4 c 24.77,0 24.77,20.3 0,20.3 -24.69,0 -24.69,-20.3 0,-20.3"
         style="fill:#050606;fill-opacity:1;fill-rule:nonzero;stroke:none"
         id="path558" />
      <path
         d="m 4918.32,8546.2 c 23.67,0 23.67,19.4 0,19.4 -23.71,0 -23.71,-19.4 0,-19.4"
         style="fill:#050606;fill-opacity:1;fill-rule:nonzero;stroke:none"
         id="path560" />
      <path
         d="m 4852.66,8181.9 c 20.54,0 20.54,16.8 0,16.8 -20.51,0 -20.51,-16.8 0,-16.8"
         style="fill:#050606;fill-opacity:1;fill-rule:nonzero;stroke:none"
         id="path562" />
      <path
         d="m 4993.28,8059.2 c 22.62,0 22.62,18.5 0,18.5 -22.62,0 -22.62,-18.5 0,-18.5"
         style="fill:#050606;fill-opacity:1;fill-rule:nonzero;stroke:none"
         id="path564" />
      <path
         d="m 4898.36,7965.4 3.98,4.3 c 9.26,1.5 9.42,8.6 0,9.9 -13.43,2.1 -32.03,2.7 -38.47,-12 -6.21,-14 36.48,-15 34.49,-2.2"
         style="fill:#050606;fill-opacity:1;fill-rule:nonzero;stroke:none"
         id="path566" />
      <path
         d="m 5044.49,8272.8 4.65,-8.8 c 2.81,-5.3 16.76,-5.3 19.53,0 l 4.61,8.8 c 6.64,12.4 -35.39,12.4 -28.79,0"
         style="fill:#050606;fill-opacity:1;fill-rule:nonzero;stroke:none"
         id="path568" />
      <path
         d="m 5171.37,7957.6 c 18.98,0 18.98,15.5 0,15.5 -18.91,0 -18.91,-15.5 0,-15.5"
         style="fill:#050606;fill-opacity:1;fill-rule:nonzero;stroke:none"
         id="path570" />
      <path
         d="m 5087.07,8443.3 c 23.13,0 23.13,19 0,19 -23.2,0 -23.2,-19 0,-19"
         style="fill:#050606;fill-opacity:1;fill-rule:nonzero;stroke:none"
         id="path572" />
      <path
         d="m 5171.37,8587.1 c 15.31,0 15.31,12.5 0,12.5 -15.2,0 -15.2,-12.5 0,-12.5"
         style="fill:#050606;fill-opacity:1;fill-rule:nonzero;stroke:none"
         id="path574" />
      <path
         d="m 5499.49,8678.6 c 21.1,0 21.1,17.2 0,17.2 -21.09,0 -21.09,-17.2 0,-17.2"
         style="fill:#050606;fill-opacity:1;fill-rule:nonzero;stroke:none"
         id="path576" />
      <path
         d="m 5340.12,8474.9 c 14.72,0 14.72,12.1 0,12.1 -14.73,0 -14.73,-12.1 0,-12.1"
         style="fill:#050606;fill-opacity:1;fill-rule:nonzero;stroke:none"
         id="path578" />
      <path
         d="m 5461.95,8350.2 c 21.6,0 21.6,17.7 0,17.7 -21.56,0 -21.56,-17.7 0,-17.7"
         style="fill:#050606;fill-opacity:1;fill-rule:nonzero;stroke:none"
         id="path580" />
      <path
         d="m 5471.09,8154.6 6.72,2.2 c 7.66,2.6 7.66,8.2 0,10.8 l -6.72,2.2 c -5.89,2 -27.14,2.7 -27.14,-7.6 0,-10.3 21.25,-9.5 27.14,-7.6"
         style="fill:#050606;fill-opacity:1;fill-rule:nonzero;stroke:none"
         id="path582" />
      <path
         d="m 5583.87,8050.3 c 21.56,0 21.56,17.6 0,17.6 -21.6,0 -21.6,-17.6 0,-17.6"
         style="fill:#050606;fill-opacity:1;fill-rule:nonzero;stroke:none"
         id="path584" />
      <path
         d="m 5717.89,8288.4 c 35.16,4.5 63.87,18.9 95.39,34.2 35.94,17.4 78.36,-10.3 92.54,-42 8.67,-19.3 3.98,-46.1 1.95,-66.4 -5.62,-55.3 -1.52,-127.4 74.3,-116.1 3.2,0.4 16.02,4 11.64,10.1 -10.19,13.9 -27.15,15.9 -35.94,32.6 -9.33,17.6 -5.47,43.9 -4.41,62.9 1.84,32 7.3,75.5 -17.85,100.8 -25.31,25.3 -63.56,46 -100.39,43.3 -47.27,-3.6 -80.43,-39.2 -125.32,-49.9 -12.57,-3 1.49,-10.3 8.09,-9.5"
         style="fill:#050606;fill-opacity:1;fill-rule:nonzero;stroke:none"
         id="path586" />
      <path
         d="m 3648.01,7759.1 c 6.52,-71.2 77.54,-123.1 149.06,-108.1 55.94,11.8 93.52,46.8 137.73,81.7 40.28,31.8 79.38,62.5 125.28,86.2 23.67,12.2 107.22,2.1 145.74,4 10.39,0.5 33.79,8.2 16.13,19.1 -51.17,31.6 -126.36,37.5 -182.54,14.1 -82.34,-34.3 -303.39,-268.2 -363.75,-95.2 -2.61,7.6 -28.43,7.2 -27.65,-1.8"
         style="fill:#050606;fill-opacity:1;fill-rule:nonzero;stroke:none"
         id="path588" />
      <path
         d="m 4280.86,7826.3 c 26.48,-7.8 54.84,-6.9 82.03,-3.4 15.59,2.1 71.91,10.4 66.49,35.3 -2.35,10.7 -18.99,11.6 -27.5,10.3 7.69,0.5 7.69,0.5 0,0 -6.72,-1 -12.93,-2.4 -19.34,-4.4 -12.19,-3.9 -23.52,-9.4 -36.17,-11.8 -21.92,-4.2 -44.03,-4.1 -65.51,-10.4 -11.17,-3.3 -11.17,-12.3 0,-15.6"
         style="fill:#050606;fill-opacity:1;fill-rule:nonzero;stroke:none"
         id="path590" />
      <path
         d="m 4172.19,5639.5 c 326.95,81.9 641.6,140 980.43,141.1 70,0.2 70.11,57.9 0,57.3 -329.1,-3.1 -724.69,-18.1 -1023.56,-171 -36.21,-18.5 27.82,-31.3 43.13,-27.4"
         style="fill:#ffffff;fill-opacity:1;fill-rule:nonzero;stroke:none"
         id="path592" />
      <path
         d="m 6499.02,5513.9 c -40.35,-177 -27.46,-367.7 -29.96,-548.4 -2.46,-182.8 -3.86,-365.6 -3.86,-548.4 0,-35.1 79.25,-28.5 95.82,-12.7 l 9.92,9.5 c 5.04,4.7 9.18,11.4 4.96,18.4 -3.63,5.8 -7.27,11.7 -10.9,17.6 -12.3,20 -55.31,16.3 -68.63,0 -5.35,-5.1 -10.74,-10 -16.1,-15 29.26,-5.9 58.52,-11.8 87.74,-17.8 0,182.8 -1.41,365.6 -3.87,548.4 -2.42,180.7 10.43,371.4 -29.96,548.4 -2.73,12.2 -32.34,12.2 -35.16,0"
         style="fill:#ffffff;fill-opacity:1;fill-rule:nonzero;stroke:none"
         id="path594" />
      <path
         d="m 3877.23,6982.9 c 275.47,31.6 531.44,161.2 806.05,204.1 328.63,51.3 649.18,13.4 977.77,24.1 21.72,0.7 58.87,25.5 18.87,34.1 -298.2,64.3 -636.79,35.6 -937.81,-0.2 -300.35,-35.5 -594.38,-144.3 -877.03,-247.9 -18.32,-6.7 1.99,-15.3 12.15,-14.2"
         style="fill:#050606;fill-opacity:1;fill-rule:nonzero;stroke:none"
         id="path596" />
      <path
         d="m 5821.13,7203.9 c 21.29,-3.4 42.97,-3.5 63.95,-8.4 32.19,-7.3 80.51,-34.7 111.8,-15.4 25.62,15.9 -34.15,31.6 -46.33,34.9 -16.76,4.5 -33.56,8.4 -50.55,11.7 -26.09,5 -52.66,4.4 -78.87,0.1 -21.36,-3.5 -21.36,-19.3 0,-22.9"
         style="fill:#050606;fill-opacity:1;fill-rule:nonzero;stroke:none"
         id="path598" />
    </g>
  </g>
</svg>
