<?xml version="1.0" encoding="UTF-8" standalone="no"?>
<!-- Created with Inkscape (http://www.inkscape.org/) -->

<svg
   version="1.1"
   id="svg2"
   width="793.97522"
   height="1021.6653"
   viewBox="0 0 793.97523 1021.6653"
   xmlns="http://www.w3.org/2000/svg"
   xmlns:svg="http://www.w3.org/2000/svg">
  <defs
     id="defs6" />
  <g
     id="g8"
     transform="matrix(1.3333333,0,0,-1.3333333,-1555.2281,2704.2385)">
    <g
       id="g10"
       transform="scale(0.1)">
      <path
         d="m 12223.437,17350.7 h 1088.7 v -539.8 h -739.1 c 0,0 -369.7,27 -341.8,-327.8 l 226.5,-1705.2 c 0,0 18,-250 241.7,-250 h 612.7 v -540 h -902.4 c -329.4,0 -356,368.3 -356,368.3 l -333.7,2511.6 c -40.9,522.4 503.4,482.9 503.4,482.9"
         style="fill:#edf0ef;fill-opacity:1;fill-rule:nonzero;stroke:none"
         id="path600" />
      <path
         d="m 12223.437,17350.7 h 1088.7 v -539.8 h -739.1 c 0,0 -369.7,27 -341.8,-327.8 l 226.5,-1705.2 c 0,0 18,-250 241.7,-250 h 612.7 v -540 h -902.4 c -329.4,0 -356,368.3 -356,368.3 l -333.7,2511.6 c -40.9,522.4 503.4,482.9 503.4,482.9"
         style="fill:#edf0ef;fill-opacity:1;fill-rule:nonzero;stroke:none"
         id="path602" />
      <path
         d="m 12591.037,14552.7 c 29.4,-15.2 64.9,-24.8 108.4,-24.8 h 612.7 v -540 h -902.4 c -175.9,0 -265.1,105 -310.3,202.8 207.4,24.3 394.6,162.4 491.6,362"
         style="fill:#d0dce1;fill-opacity:1;fill-rule:nonzero;stroke:none"
         id="path604" />
      <path
         d="m 11997.137,17168.6 c 6.5,-2 11.6,1.4 14.9,6.9 l 6.8,-6 c 90.9,-44.6 90.6,-268.4 85.7,-370 -3.9,-75.8 -54.2,-328.9 -110,-349.3 -86.7,-31.6 -143.6,311 -146.8,398.8 -4.9,134.2 11.3,361.3 149.4,319.6"
         style="fill:#ffffff;fill-opacity:1;fill-rule:nonzero;stroke:none"
         id="path606" />
      <path
         d="m 12559.337,16811.3 c -14.5,103.4 -33.8,205.8 -61.7,305.8 -21.2,76.5 -50.9,160.2 -91.9,233.6 h 906.4 v -539.8 h -739.1 c 0,0 -5.3,0.4 -13.7,0.4"
         style="fill:#d0dce1;fill-opacity:1;fill-rule:nonzero;stroke:none"
         id="path608" />
      <path
         d="m 12952.937,18236.7 h 3732.1 c 0,0 84.7,-2777.6 -530.1,-5432.4 0,0 -593.8,-147.5 -1335.9,-147.5 -742.2,0 -1336,147.5 -1336,147.5 -614.9,2654.8 -530.1,5432.4 -530.1,5432.4"
         style="fill:#edf0ef;fill-opacity:1;fill-rule:nonzero;stroke:none"
         id="path610" />
      <path
         d="m 13626.037,13360.1 c -419.1,2072.1 -356.7,4110.1 -356.7,4110.1 h 3099.3 c 0,0 62.5,-2038 -356.7,-4110.1 0,0 -1102.5,-356.2 -2385.9,0"
         style="fill:#f7941d;fill-opacity:1;fill-rule:nonzero;stroke:none"
         id="path612" />
      <path
         d="m 13323.837,15727.2 c 66.5,-147.8 163.9,-277.6 233.5,-423.3 76.8,-160.8 105.4,-330.8 71.1,-506.4 -26.4,-135.6 -78.6,-279.1 -65.5,-419.1 11.8,-126.2 78.8,-229.1 195.4,-282.6 69.8,-32.1 167.2,-44.7 209.3,-117.2 44.2,-75.9 30.6,-156.4 38.8,-239.6 28.8,-290.8 396.2,-339.2 630.1,-322.4 201.3,14.6 603.3,139.2 476.6,421.1 -30,66.7 -73.1,125.4 -110.4,187.9 -34.3,57.6 -81.1,133.8 -41.1,200.4 43.7,72.7 132.7,4.4 187.7,-20.4 40.4,-18.2 85.1,-30.5 128.9,-17.4 120.7,36.1 122.7,150.8 118.2,258.6 -7.6,183.1 62.9,326 147.5,483.9 39.2,73.2 83.5,154.2 95.6,237.6 14,95.5 10.2,189.7 0.5,285.4 -18.2,181.6 6.8,372.6 -31.9,551.3 -36.5,168.3 -133.3,278.9 -251.7,396.8 -57,56.7 -90.7,116.2 -75.5,199.5 13.8,75.6 39.1,149.2 59,223.4 30.1,111.9 62.4,252.2 -14.5,353.9 -90,119.1 -247.3,170.9 -389.6,191.9 -162.6,24 -328,31.8 -491,51.4 -113.5,13.7 -226.6,30.2 -339.4,48.3 h 2263.2 c 0,0 62.5,-2038 -356.7,-4110.1 0,0 -1102.5,-356.2 -2385.9,0 -171.1,845.9 -261.9,1686.1 -309.5,2384.2 2.4,-5.6 4.7,-11.4 7.3,-17.1"
         style="fill:#e5661f;fill-opacity:1;fill-rule:nonzero;stroke:none"
         id="path614" />
      <path
         d="m 13569.837,13360.1 c -268.6,1341.2 -397.7,2740.9 -356.8,4110.1 0.7,23.2 40.1,27.6 56.3,27.6 1033,0 2066.2,0 3099.3,0 16.2,0 55.6,-4.4 56.3,-27.6 41,-1369.2 -88.1,-2768.9 -356.7,-4110.1 -2.8,-14.2 -15.1,-19.7 -27.9,-23.8 -771.4,-246.7 -1671.2,-208.6 -2442.7,0 -70.9,19.2 18.2,58 56.8,47.6 654.8,-177.1 1342.7,-199.2 2009.2,-76.4 107.3,19.8 215.2,43.4 319.4,76.2 -22.7,-7.1 21.8,230.7 25.6,251.1 20.1,108.9 38.5,218.3 56.3,327.6 34.9,213.3 64.5,427.4 91.4,641.8 118.9,945.7 184.7,1912.1 156.1,2866 18.7,-9.2 37.5,-18.4 56.2,-27.6 -1033.1,0 -2066.3,0 -3099.3,0 18.8,9.2 37.5,18.4 56.2,27.6 -40.9,-1369.2 88.2,-2768.9 356.8,-4110.1 6.7,-33.9 -104.5,-40.4 -112.5,0"
         style="fill:#050606;fill-opacity:1;fill-rule:nonzero;stroke:none"
         id="path616" />
      <path
         d="m 12974.737,16783.4 c -238.1,0 -674.9,86.8 -688.8,-263.7 -3.4,-86 20.3,-178.1 31.6,-262.6 24,-181.1 48.1,-362.3 72.1,-543.3 40.6,-305.1 81.1,-610.1 121.6,-915.1 16.3,-122.5 69,-249.6 218.1,-241.7 146.7,7.7 293.3,15.5 440,23.3 18.2,1 52.8,-4.9 56.2,-27.6 27.8,-188.3 55.5,-376.5 83.2,-564.8 3.4,-22.6 -43.4,-27.5 -56.2,-27.5 -163.8,0 -327.6,0 -491.3,0 -155.9,0 -325.5,-18 -478.9,16.4 -258.4,57.9 -279.8,342.1 -308.1,555.3 -100.2,753.8 -200.5,1507.6 -300.6,2261.3 -17,128.8 -16.8,255.9 50.3,372.4 80,138.9 253.6,195.6 403.9,209.8 272.2,25.5 554.5,2.6 827.7,2.6 16.3,0 55.7,-4.3 56.3,-27.5 5.5,-180 11.9,-359.9 19.2,-539.8 1.5,-37.9 -111,-39.2 -112.5,0 -7.3,179.9 -13.7,359.8 -19.1,539.8 18.7,-9.2 37.4,-18.4 56.1,-27.6 -268.2,0 -545.7,23 -812.8,-2.1 -251.5,-23.6 -379.5,-208 -366.4,-453.2 3.8,-74.2 19.8,-149.8 29.6,-223.4 99.3,-747.2 198.6,-1494.4 297.9,-2241.5 27.1,-204.1 108,-387.4 346.9,-387.4 267.2,0 534.5,0 801.8,0 -18.8,-9.2 -37.5,-18.4 -56.2,-27.6 -27.7,188.3 -55.6,376.5 -83.3,564.8 18.8,-9.1 37.5,-18.4 56.3,-27.6 -262.8,-13.8 -724.2,-129.9 -767.6,250.6 -35.7,313.2 -83,625.6 -124.6,938.1 -25.7,193.7 -51.4,387.4 -77.2,581.1 -15.8,118.5 -42.9,234.2 -4.2,351.4 89.5,271.5 573.2,192.2 779,192.2 67.4,0 67.4,-55.1 0,-55.1"
         style="fill:#050606;fill-opacity:1;fill-rule:nonzero;stroke:none"
         id="path618" />
      <path
         d="m 12952.937,18264.4 c 1244,0 2488.1,0 3732.1,0 16.2,0 55.5,-4.4 56.2,-27.7 17.2,-572.9 -3.8,-1148.6 -34.4,-1720.6 -66.7,-1246.9 -215.8,-2494.1 -495.7,-3711.8 -3.2,-13.6 -14.7,-20.6 -27.8,-23.9 -874.1,-214.8 -1854.5,-214.8 -2728.6,0 -13.1,3.3 -24.7,10.3 -27.8,23.9 -280.1,1218.2 -427.2,2464.6 -495.8,3711.8 -31.4,571.9 -51.6,1147.8 -34.5,1720.6 1.2,39.2 113.7,38.1 112.6,0 -27.7,-925.9 26.6,-1859.5 113.3,-2780.7 80.5,-855.6 206.1,-1707.9 392.9,-2546.9 10.8,-48.6 -19.7,-77.5 21.7,-87 34,-7.9 68.2,-15 102.4,-21.7 139,-27.8 279.3,-49.1 419.9,-67.2 431.8,-55.6 867.8,-61.9 1301.3,-23.7 240.2,21.2 480.5,55.8 716,107.1 15.2,3.3 30.5,6.9 45.6,10.4 -18.2,-4.3 29.6,215.9 34.8,239.5 45.1,208.9 85.1,418.8 122.7,629.1 131.1,734.9 217.4,1477.7 275.3,2221.8 59.7,769.4 96.7,1547.3 73.6,2319.3 18.8,-9.1 37.5,-18.3 56.3,-27.5 -1244,0 -2488.1,0 -3732.1,0 -67.4,0 -67.4,55.2 0,55.2"
         style="fill:#050606;fill-opacity:1;fill-rule:nonzero;stroke:none"
         id="path620" />
      <path
         d="m 15648.437,19875 c -95.9,278.2 -365.6,393.3 -627.4,376.3 -202.1,-13.1 -532.8,-204.8 -537.1,-438.8 -151.7,212 -327,333.1 -601.1,269.8 -230.9,-53.4 -404.1,-221 -346.5,-468.3 -520.8,316.3 -1222,-352.1 -953.7,-798.7 -269.9,-86.7 -234.2,-568.4 -113.9,-760.3 145.5,-232.1 530.1,-338.7 641.8,-15.5 109,-181.3 308.6,-237.1 520,-224.7 154.3,9.1 580.2,111.7 560.9,320 147.3,-333 788,-343.7 1044,91.8 -199.6,-378.7 227.9,-1104.1 752.2,-829.8 v 0.6 c -201.5,-228.1 -34.2,-775.1 161.9,-961.1 184.4,-175 607.4,-219.6 668.3,92.9 317.2,-18.3 498.5,41 636.7,371.1 103.2,246.4 72.3,528.1 -197.3,620.4 360.7,-5.9 458.2,768.3 -13.6,924.1 h 35.6 c 229.5,154.3 308.5,337.5 237.3,617.4 -44,173.1 -326.4,511.7 -621.4,335 80.7,362.3 -11.6,693 -384.4,800.6 0,0 -558.8,254.8 -862.3,-322.8"
         style="fill:#fdf4ec;fill-opacity:1;fill-rule:nonzero;stroke:none"
         id="path622" />
      <path
         d="m 12582.637,18815.3 c -229.6,382.1 250.6,926.1 720.4,877.2 -59.6,-78.9 -148,-135.9 -211.8,-210.6 -48.2,-56.5 -84.9,-114.5 -33.9,-181.2 25.7,-33.9 64.9,-55 96.6,-82.3 47.5,-40.9 65.8,-105.1 70.5,-166.8 6.4,-80.9 -42.1,-87.3 -90.6,-134.6 -131.4,-127.7 -84.4,-345.6 45.2,-453.1 74.9,-62.3 182.7,-89.2 278.9,-82.2 93.9,6.7 166.2,53.4 235.5,114 114,99.7 241.5,192.5 402,174.4 118.3,-13.4 220.9,-74.4 331.1,-114 113,-40.5 232.5,-54.1 348.1,-14.5 68.7,23.6 137.7,55.2 195.6,99.1 38.9,29.5 71.4,72.1 116,93.3 80.6,38.3 182.2,11.9 262.7,-14.7 59.2,-19.6 122,-47.5 153.8,-104.7 61.4,-110.6 63.7,-247.7 44.1,-368.3 -17.5,-108.4 -17,-227.7 96,-283.7 46.1,-22.9 97.7,-43.1 148.1,-19.2 48.9,23.3 79.9,67.3 124.3,96.4 98.3,64.3 267.1,33 334.6,-64.1 63.9,-92 77.8,-210.7 84.5,-319.8 13.8,-219.1 -27.4,-485.6 113.4,-671.9 135.7,-179.5 413.2,-218.3 572.5,-47.3 70.6,75.8 143.9,193.8 125.5,302.7 -14.5,86 -77.5,145.1 -138.1,202.6 -72.8,68.9 -141.5,147.3 -104.5,254.5 41,118.7 195.8,68.8 252.6,175.8 50.2,94.4 38.5,224.2 -62.6,278.1 -48.3,25.7 -102.6,60.5 -153.7,78.7 -45.8,16.4 -94.1,4.3 -138.7,18.3 -87.9,27.6 -90.7,185.1 -77.9,257.2 14.9,83 39.9,171.8 103.2,231.1 98.4,92.2 232.9,127.9 335.7,213.3 103.4,86 136.9,200.8 101.1,330.5 -12.6,46.5 -30.8,92.8 -54.7,135.6 159.5,-70.8 280.9,-244.4 308.4,-352.9 71.2,-279.9 -7.8,-463.1 -237.3,-617.4 h -35.6 c 471.8,-155.8 374.3,-930 13.6,-924.1 269.6,-92.3 300.5,-374 197.3,-620.4 -138.2,-330.1 -319.5,-389.4 -636.7,-371.1 -60.9,-312.5 -483.9,-267.9 -668.3,-92.9 -195.8,185.7 -362.9,731.4 -162.7,960.1 -523.9,-273 -950.9,451.7 -751.4,830.2 -256,-435.5 -896.7,-424.8 -1044,-91.8 19.3,-208.3 -406.6,-310.9 -560.9,-320 -211.4,-12.4 -411,43.4 -520,224.7 -111.7,-323.2 -496.3,-216.6 -641.8,15.5 -120.3,191.9 -156,673.6 113.9,760.3"
         style="fill:#fce7d5;fill-opacity:1;fill-rule:nonzero;stroke:none"
         id="path624" />
      <path
         d="m 15594.237,19867.7 c -94.2,244.9 -324.4,380.8 -586.6,354.1 -201.9,-20.5 -450.2,-196.2 -467.5,-409.3 -3.4,-41.7 -92.6,-31.6 -110.5,-7.3 -140.5,190.3 -308.7,308 -554.4,243.9 -205.8,-53.6 -321.5,-228.2 -282.7,-435.1 6.6,-35.2 -80.8,-28.1 -96,-19.5 -435.8,247.3 -1125.8,-291.8 -859.7,-771.9 6.2,-11.3 -4.3,-22.9 -14.5,-26.9 -231.6,-88.8 -209.1,-422.6 -151.4,-616.5 77.8,-261.3 452.8,-467.6 585.4,-132.4 13,33 92,24.8 108.4,0 130.8,-196.9 349.5,-224.3 567.7,-193 177.4,25.4 351.2,105.1 404.9,288.3 9.2,31.7 95.7,26.3 108.4,0 194.3,-398.2 750.5,-204.7 935.5,91.9 18.5,29.8 127.3,24.2 108.5,-14.7 -89.5,-184.8 -42.4,-396.4 53.7,-568.7 48,-86.1 116.1,-157.7 195.6,-214.9 53.8,-38.7 117.4,-60.4 182.3,-70 25,-3.8 210,15.9 210,31.7 36.8,-2.5 73.6,-4.9 110.4,-7.3 -179.3,-224.5 -68,-584.9 57,-808.3 127,-227.1 575.3,-412 662.8,-52.6 5.4,22.5 36.2,28.5 56.3,27.6 251.3,-12.2 425.8,46.1 548.5,276.7 124.6,234.4 137,555.8 -148.8,667.8 -49.7,19.4 19.7,46.4 39.7,47 180.3,4.9 242.7,244.2 249.6,386.8 10.1,204.8 -92.7,413.1 -291.6,485.9 -55.1,20.1 -9.1,51.3 28.4,51.3 61.4,0 153,133 184.6,183.2 61.5,97.7 63.4,215.1 49,325.6 -31.2,237.9 -286.7,531.8 -542.4,396.5 -14.9,-7.8 -103.4,-16 -96.1,19.6 38.4,185.8 42.8,375.6 -49,547.1 -71.7,134 -202.7,192.3 -337.9,241.6 -313.3,114.5 -593,-36.4 -749.1,-318.2 -18.2,-32.8 -128.2,-20.8 -108.5,14.7 182.9,330.3 517.6,466.4 878.9,362.7 134.9,-38.7 264.8,-96.4 362.4,-199.9 161.8,-171.8 160.4,-432.1 115.8,-648 -32.1,6.4 -64,12.9 -96,19.4 280.6,148.4 577.4,-32.6 699.7,-300.7 62.5,-137.2 56.6,-310.5 -3.1,-446.4 -50.3,-114.5 -177.8,-252.3 -308.3,-252.3 9.4,17.1 18.9,34.2 28.3,51.4 241.1,-88.1 358.6,-308.6 346.2,-559.5 -10.4,-210.5 -136.3,-409.8 -360.9,-415.9 13.2,15.7 26.5,31.3 39.8,47 316.4,-124 305.8,-455.6 177.7,-721.3 -130.3,-270.3 -378.4,-330.7 -656.9,-317.3 18.7,9.2 37.4,18.4 56.2,27.6 -81.2,-333.4 -504.7,-296 -731.7,-141.2 -266.5,181.8 -418.8,754.2 -209,1016.7 17.4,21.8 110.4,35.5 110.4,-7.3 v -0.6 c 0,-9.4 -9.1,-15.9 -16.4,-19.5 -246.3,-119.6 -509.4,-70.2 -697.1,128.8 -174.7,185.3 -263.7,490.8 -149,727.9 36.2,-4.9 72.4,-9.8 108.5,-14.7 -133.1,-213.4 -364.3,-347.7 -617.1,-354.3 -208.9,-5.6 -437.5,61.9 -535.3,262.5 36.1,0 72.3,0 108.4,0 -65.6,-223.7 -300.6,-300.8 -509.5,-330.6 -254.9,-36.5 -528.9,7.9 -679.9,235.3 36.1,0 72.3,0 108.4,0 -120.1,-304.1 -486.7,-260.1 -687.9,-63.4 -191.4,187.1 -224.3,610.3 -35,806.2 20.8,21.6 48.7,36.1 75,49.8 -1.3,-0.7 -31.6,82.3 -33.7,89.6 -20.2,66.2 -18.3,135.1 -7.9,202.6 24.6,156.6 126.1,292.9 239.7,397.6 231.4,213.1 584.2,276.1 861.2,118.9 -32.1,-6.6 -64.1,-13 -96.1,-19.5 -49,261.2 143,446 387.8,494.8 287,57.3 501.2,-59.9 670.3,-289 -36.9,-2.4 -73.7,-4.8 -110.5,-7.3 21.8,268.3 336.3,440.7 578.5,465.4 294.4,29.9 588.1,-113.6 696.6,-395.5 15.5,-40.4 -95.4,-48.5 -108.5,-14.7"
         style="fill:#050606;fill-opacity:1;fill-rule:nonzero;stroke:none"
         id="path626" />
      <path
         d="m 15018.137,17084.3 c 76.7,-46.8 156.9,-113.9 158.2,-211.5 1,-82.7 -101,-131.4 -155.3,-182.2 -31.9,-29.7 -49.1,-61.3 -69.9,-98.3 -16.1,-28.7 -37.2,-65 -42.9,-98.4 -10.4,-59.7 22.3,-117.8 70.2,-151.6 26.8,-18.9 56.3,-22.8 85.1,-30.6 19,-5.1 25.1,-18.3 42.2,-26 13.6,-6.2 28.3,-5.9 42.2,-12.6 75.8,-36.6 136.8,-85.6 196.9,-144.9 57.9,-57.2 78.8,-120.3 101.8,-197.2 8.1,-26.9 20.9,-56 25.5,-84 5.2,-32.2 13.7,-65.4 13.2,-98.4 -0.7,-58.4 -10.5,-113.6 -25,-168.5 -8.2,-31.5 -1.4,-65.5 -2.8,-97.9 -1.7,-40.8 -14.6,-74.9 -14.3,-116.4 0.2,-37.2 -1.4,-63.3 -10.7,-98.5 -10.7,-40.9 -20.7,-59.4 -42.5,-95.3 -40,-66 -72.3,-133.8 -98,-207 -26.7,-76.3 -42.7,-152.5 -45.4,-232.4 -1.3,-39.2 -10.1,-80.9 -17.5,-119.5 -8.4,-44.1 -20.6,-83.8 -52.8,-116.3 -29.1,-29.5 -45.4,-28.1 -84.7,-27.9 -25.9,0.2 -60,-6.1 -85,-0.7 -25.5,5.6 -34,20.5 -45,39.5 -5.5,9.7 -9.3,17.2 -14,28.1 -7.9,18.1 -6.4,24.9 -9.9,45.7 -5,30.8 -14.5,51.3 -14.7,84.3 -0.2,30.9 9.7,54.9 14,84.4 10.8,76.6 33.9,150.7 41.3,228.1 3.8,38.2 15.6,68.9 15,109 -0.6,40.2 11.7,74.2 14.3,113.2 2.1,31.4 -3.5,55.1 -14.4,84 -5.6,14.8 -10.5,27.7 -17.7,42.1 -10.5,21.5 -21.3,28.6 -35.1,45.4 -45.3,55.2 -95.6,93.2 -158.5,126.9 -24.6,13.3 -45.5,22.6 -70.7,34.8 -16.7,8.1 -52.8,23.1 -66.1,34.5 -50.3,43.3 -74.4,121.1 -105.4,177.2 -18.8,34.1 -41,62.8 -56.6,98.5 -6.5,15.1 -11.7,31.3 -20.4,45.5 -10,16.6 -23.6,25.8 -32.4,41.2 -29.5,52.2 -41.5,110.3 -41.7,169.5 -0.1,29.5 2.3,48.8 10.5,73.5 10.2,29.8 33.2,57.4 42.8,84.3 24.8,68.7 -14,123.4 -67.4,162.4 -36.1,26.5 -129.1,73 -127.9,129.8 0.2,14.4 12.4,28.1 15.8,42.2 3.9,16.3 2.5,25.6 9.8,42.1 11.8,26.6 27.5,49.8 42.6,73.5 31.2,49.4 51.6,89.6 101.5,123.4 18.1,12.2 36.4,23.4 56.6,32 16,6.8 59.5,11.1 68.5,27.4 19.6,35.7 -75.2,53.9 -96.6,63.2 -82.9,36.5 -169.9,62.9 -253.1,98.6 -28.3,12.1 -64.6,38.8 -84.7,59.7 -56.7,58.9 98.9,130.7 142.3,143.4 71.3,20.9 128.2,12.6 198.5,-5.5 187.6,-48.6 401.7,-62.8 570.3,-165.8"
         style="fill:#fab819;fill-opacity:1;fill-rule:nonzero;stroke:none"
         id="path628" />
      <path
         d="m 14684.537,14623.6 c 0,-41.6 -19.3,-64.7 -39.4,-97.6 -25.9,-42.5 -49.6,-83.7 -73.3,-127.4 -36.3,-66.8 -72.9,-146.6 -70.6,-225.3 1.1,-38.5 3.3,-56.4 42,-74.1 31.7,-14.5 66.7,-20.2 98.4,-34.1 45.4,-19.9 107.4,-32.8 137.5,-77.1 38.7,-56.7 -17.6,-132.7 -49.6,-179.9 -19.9,-29.3 -43.8,-64.7 -73.8,-85.4 -24.4,-17 -56.8,-23.6 -84.3,-37.7 -65.3,-33.5 -114.3,-33.9 -182.8,-14.8 -62.5,17.5 -107.9,83.2 -157.9,119.9 -48.7,35.9 -96.1,82.6 -95.2,144.6 0.8,56.4 6,115.8 -10.7,168.7 -14.6,46.5 -40.2,103 -77.3,137 -36.4,33.4 -103.9,46.6 -151.1,63 -65,22.5 -94.8,80.5 -123.1,137.4 -26.4,53.5 -63.3,111.4 -31.5,169.4 26.1,47.9 76.2,86.9 102.5,136.9 38.5,72.9 32.6,190.5 13,270.2 -11.1,45.2 -23,83.8 -41.4,126.7 -18,41.9 -45.5,87.6 -57,129.6 -16.9,62.4 25.4,199.6 94.9,208.1 57,6.9 91,-10.6 141,-32.3 48.6,-21 88.2,-23.5 140.5,-24.2 78.6,-1.2 144.3,75.2 225.9,56.9 15.7,-3.5 30,-21.4 44.5,-25.6 22.2,-6.6 44.6,-0.8 67.2,-6.4 49.3,-12.4 78.3,-30.7 84.8,-80.9 5.1,-40.5 -0.4,-85.9 -0.5,-126.9 0,-46.4 -4.6,-94.1 -17.1,-137.4 -15.3,-52.5 -53.5,-88.4 -57.5,-145.6 -2.9,-39.9 0.2,-79.8 27.5,-110.9 62.8,-71.9 174.4,-112.4 174.4,-224.8"
         style="fill:#fab819;fill-opacity:1;fill-rule:nonzero;stroke:none"
         id="path630" />
      <path
         d="m 14008.937,17042.1 c 35.4,-56.7 67.3,-115.5 70.2,-182.7 2.7,-64.6 -81.6,-123.8 -126.4,-168.7 -53.9,-53.9 -104.7,-99.6 -113.3,-179.7 -7.3,-68.1 14.9,-140.3 70.7,-182.8 83.9,-63.8 189.9,-127.4 228.8,-227.8 9.1,-23.5 30,-59.8 25.7,-85.4 -3.9,-23.4 -27.7,-49.4 -40.1,-69.6 -34.3,-55.6 -48,-112.7 -104.7,-151.1 -28.7,-19.4 -50.1,-13 -81.2,-20.7 -27.9,-7 -56.9,-14.6 -84.4,-25 -24,-9.2 -49.2,-11.2 -66.7,-31 -20.4,-22.9 -35.7,-66.5 -42.7,-95.5 -5.9,-25.3 -0.4,-47.7 -30.5,-57 -27.6,-8.5 -46.8,6.8 -60.4,28.1 -37.5,58.2 -51.4,119.8 -66.4,183.5 -26.3,111.5 -105.9,203.5 -85.6,323.4 8.8,51.8 43.4,107.7 67.5,154.7 11.2,21.9 24.2,52.6 28.5,73.4 7,32.8 -5.4,39.5 -11.7,66.5 -3.1,13.4 1.6,25.8 -2.4,39.7 -1.5,5.3 -11.2,21.4 -14.3,27.9 -11.5,23.5 -23.7,49.1 -35.6,74 -21.1,44.4 -37.4,93.6 -48.4,140.4 -20.9,88.3 -79.1,166.1 -84.6,258.4 -5.2,89.3 55,183.5 114.2,247 118,126.8 282,64.2 398.8,-33.3 36.6,-30.5 69.7,-66.1 95,-106.7"
         style="fill:#fab819;fill-opacity:1;fill-rule:nonzero;stroke:none"
         id="path632" />
      <path
         d="m 17178.337,18298.4 c 160.1,-43.8 217.6,-218.6 196.6,-369.4 -18.5,-131.6 -132.1,-338.1 -290.6,-317.5 -14,1.8 -13.4,12.3 0,14.5 157,25.9 225.2,213.5 246.1,344.3 19.2,119.4 -49.8,275.8 -165.4,319.6 -11.2,4.2 8.2,9.9 13.3,8.5"
         style="fill:#050606;fill-opacity:1;fill-rule:nonzero;stroke:none"
         id="path634" />
      <path
         d="m 17082.837,17575.4 c -53.9,-146.9 192.7,-183.6 248.4,-277.7 81.5,-137.1 73.2,-285.8 -23.2,-413.3 -70.5,-93 -216.5,-93.8 -319.9,-108.9 -118.7,-17.4 -235.4,-77.2 -292.8,-185.5 -27,-50.9 -31.5,-73.4 -86.9,-92.3 -7.6,-2.6 -50.7,4.6 -33,16.2 54.6,35.5 59.1,101.6 103,146.7 41.7,42.8 86.7,76.3 143.5,97.3 167.9,62.4 383.4,29.6 486.7,198.9 56,91.7 45.8,206.2 7,300.5 -25.1,61 -93.7,95.3 -144.6,131.1 -62.4,43.9 -148.9,105.8 -105.1,189.3 2.5,4.9 19.3,4.2 16.9,-2.3"
         style="fill:#050606;fill-opacity:1;fill-rule:nonzero;stroke:none"
         id="path636" />
      <path
         d="m 16449.137,16529.7 c -102.9,-34.5 -193.9,68.2 -256.7,134.8 -125.1,132.5 -183.8,269.2 -113.8,443.9 39.7,99.1 87.1,186.3 89.6,295.8 1.3,58.5 -21.5,108.9 -62,149.5 -94.7,95.2 -193.8,7.2 -272.3,-31.6 -67.4,-33.3 -199.3,-57.6 -216.7,40.4 -2.6,15 36.2,12.2 42.6,5.7 79.6,-82.2 179.3,11.2 253.4,45.8 45.6,21.3 96.3,14.8 143.9,7.1 100.6,-16.4 161.1,-90 179.9,-186 30.2,-155.5 -92.2,-305.6 -126.6,-449.1 -23.4,-97.8 54,-218.3 115.3,-288 41.1,-46.7 134.7,-173.9 208.3,-155.7 9.9,2.5 34.1,-6.2 15.1,-12.6"
         style="fill:#050606;fill-opacity:1;fill-rule:nonzero;stroke:none"
         id="path638" />
      <path
         d="m 15526.437,17628.5 c -90.9,59.9 -163.9,162.8 -205.4,262.1 -42.2,100.9 8.5,302.1 63.4,391.3 5.1,8.1 28.6,9.5 33.1,0 44.7,-95 -43.9,-232 -46.7,-333.3 -2.7,-104.4 108.9,-252.3 186,-311.4 12.5,-9.7 -22.2,-14.1 -30.4,-8.7"
         style="fill:#050606;fill-opacity:1;fill-rule:nonzero;stroke:none"
         id="path640" />
      <path
         d="m 15145.337,18335.9 c -12.3,-160.9 -245.9,-252.8 -383.6,-259.2 -119.1,-5.5 -477.4,15.8 -461.5,203 2.1,23.8 52.7,18 63,4.1 96.8,-129.5 205.5,-169.7 368.3,-171.3 151.5,-1.6 316.3,91.1 391.3,224.9 3,5.2 23.1,6.4 22.5,-1.5"
         style="fill:#050606;fill-opacity:1;fill-rule:nonzero;stroke:none"
         id="path642" />
      <path
         d="m 12659.637,18655.4 c -75.7,-229.3 -79.9,-391.5 80.5,-577.5 33.9,-39.4 116,-123 169.7,-45.3 21.4,31 28.1,76.7 41.2,111.7 20,52.7 81.6,88 135.2,95.2 54.1,7.3 118.1,-4.7 167,-28.7 21.7,-10.6 49.9,-53.5 64.8,-72.1 74.5,-92.4 160.6,-115.1 274,-117.4 59,-1.2 114.9,0.8 172.3,17.1 113.2,32.5 148.3,135.1 229.4,204.1 9.3,7.9 40.4,10 43.4,-5.8 33.7,-174.6 -244.2,-256.1 -374.2,-261.1 -99.3,-3.8 -200.9,1.3 -295.8,31.7 -112.3,36 -253.1,328.8 -342.4,98.6 -32.4,-83.7 -52.1,-142 -148.3,-151.9 -72.5,-7.5 -136.1,34.9 -186.9,81 -194.1,175.9 -199.9,405.6 -87.5,628.2 8.4,16.7 65.1,14.7 57.6,-7.8"
         style="fill:#050606;fill-opacity:1;fill-rule:nonzero;stroke:none"
         id="path644" />
      <path
         d="m 16097.537,16395.4 c 15.9,-227.9 -11.2,-455.6 -34.6,-682.2 -26.1,-252.4 -44.3,-504.6 -59.6,-757.8 -14.1,-234.7 -31,-469 -58.9,-702.5 -26.7,-224.5 -91.9,-440.8 -157.4,-656.6 l -13,0.8 c 9.8,221.7 96,435.7 124.7,655.8 30.2,233.1 45.5,468 60.5,702.5 30.8,480.9 82.1,959.8 123.4,1440 0.4,5.2 14.5,5.2 14.9,0"
         style="fill:#050606;fill-opacity:1;fill-rule:nonzero;stroke:none"
         id="path646" />
      <path
         d="m 15949.437,16766 c 6.5,-517.1 -44.6,-1038.8 -107.3,-1551.8 h -10.5 c -27.1,264.7 35.1,536.4 49.3,800.6 13.5,251.4 37.1,499 40.4,751.2 0.1,9.6 27.9,9.6 28.1,0"
         style="fill:#050606;fill-opacity:1;fill-rule:nonzero;stroke:none"
         id="path648" />
      <path
         d="m 15834.737,15101.7 c 8.3,-79.9 -6.2,-159 -6.6,-239 -0.1,-7.8 -14,-9.7 -19.4,-9.5 l -3.4,-6 c -3.1,-5.3 -18.4,-6 -21.2,0 -8.8,18.7 2,21.8 19.6,24.6 -4.8,-3 -9.5,-6.1 -14.3,-9.1 1.6,80 11.4,159.8 21.6,239 0.9,8.2 22.9,8.3 23.7,0"
         style="fill:#050606;fill-opacity:1;fill-rule:nonzero;stroke:none"
         id="path650" />
      <path
         d="m 15778.037,14708 c 12.2,-242.8 -36.4,-471.6 -78.2,-709.1 -29.1,-165.2 -33.8,-349.7 -93.9,-507.2 -2.7,-6.9 -26.6,-6.8 -25.9,1.7 35.2,408.2 147.7,804.8 175.2,1214.6 0.5,7.9 22.5,7.9 22.8,0"
         style="fill:#050606;fill-opacity:1;fill-rule:nonzero;stroke:none"
         id="path652" />
      <path
         d="m 13500.037,17351.6 c 18.6,-323.2 -6.4,-646.8 19.4,-970.3 13.1,-164.1 13.8,-329 14,-493.6 0.3,-173.1 47.5,-346.4 33.9,-518.8 -0.5,-5.8 -16,-5.7 -16.8,0 -43.4,320.8 -42.8,635.2 -60.7,957.6 -19,341 -33.7,683.5 -12.6,1025.1 0.4,7.9 22.4,7.9 22.8,0"
         style="fill:#050606;fill-opacity:1;fill-rule:nonzero;stroke:none"
         id="path654" />
      <path
         d="m 13585.337,15270.5 c 4.3,-47 7.7,-93.5 8.7,-140.6 0.4,-14.5 -42.5,-14.5 -42.2,0 1.2,47.1 4.6,93.6 8.8,140.6 0.8,8.4 23.9,8.4 24.7,0"
         style="fill:#050606;fill-opacity:1;fill-rule:nonzero;stroke:none"
         id="path656" />
      <path
         d="m 13614.737,14947 c 22.8,-233 24.7,-467.9 47.1,-701.3 22.2,-230.7 75.3,-460 89.6,-690.8 0.4,-6.1 -17.4,-6.5 -19,-1.2 -61.2,205.2 -82,426.9 -108.5,638.9 -30.8,247.4 -58.4,505.4 -36.4,754.4 0.9,9.5 26.3,9.4 27.2,0"
         style="fill:#050606;fill-opacity:1;fill-rule:nonzero;stroke:none"
         id="path658" />
      <path
         d="m 13761.437,17253.2 c 6.4,-294.3 -11.2,-588.5 -15.6,-882.6 -4.8,-315.2 22.7,-625.7 55,-938.8 30,-293 60.8,-586 82.2,-879.9 10.7,-146.6 26.4,-291.7 52.6,-436.5 21.7,-120.1 43.7,-254.4 103.4,-361.4 6.3,-11.4 -26.1,-12.1 -32.2,-4.4 -53.5,68.8 -68,157.7 -87.1,241 -34.3,149.2 -56.6,297.9 -73.5,450.2 -34.5,310.7 -50.8,624.7 -82.3,936 -31.7,312.8 -61.6,623.9 -63.2,938.6 -1.6,312.5 12.4,625.3 21.2,937.8 0.4,13.6 39.3,13.5 39.5,0"
         style="fill:#050606;fill-opacity:1;fill-rule:nonzero;stroke:none"
         id="path660" />
      <path
         d="m 14063.637,13550.5 c -10,9.9 -17.6,21.3 -23.6,33.9 -3.5,7.4 -6,15.4 -8.2,23.3 -2.8,10 -2,14.7 5.6,21.4 6.5,5.7 20.8,5.4 27.3,0 11.1,-9.1 8,-22 11.7,-35 3.6,-12.3 9.8,-25.1 18.4,-34.7 11.1,-12.6 -23.6,-16.5 -31.2,-8.9"
         style="fill:#050606;fill-opacity:1;fill-rule:nonzero;stroke:none"
         id="path662" />
      <path
         d="m 13915.537,13525.6 c -46.2,163 -145.3,346.5 -114.9,521.5 1.3,7.5 19.4,7.7 22.4,1.5 33.6,-70.2 28.1,-156.3 43.2,-232.4 19.3,-97.6 54.2,-190.5 67.5,-289.4 0.8,-5.7 -16.6,-6.3 -18.2,-1.2"
         style="fill:#050606;fill-opacity:1;fill-rule:nonzero;stroke:none"
         id="path664" />
      <path
         d="m 13994.837,17393.8 c 5.7,-419.8 -18.1,-839 -13.9,-1258.7 4.4,-434.9 58.6,-867.2 89.9,-1300.5 h -11.4 c -43.8,192.7 -53.1,393 -76.9,589 -26.6,217.7 -34.2,437.6 -37.2,656.7 -6.2,437.8 13.6,875.9 21.4,1313.5 0.2,9.6 28,9.6 28.1,0"
         style="fill:#050606;fill-opacity:1;fill-rule:nonzero;stroke:none"
         id="path666" />
      <path
         d="m 14095.437,14736.1 c 9.5,-47 20.9,-92.2 22.5,-140.6 0.5,-16.7 -49.2,-17 -49.2,0 0,47.4 -13.3,93.6 -5.7,140.6 1.7,11.4 30.3,11.1 32.4,0"
         style="fill:#050606;fill-opacity:1;fill-rule:nonzero;stroke:none"
         id="path668" />
      <path
         d="m 15523.137,17281.3 c 30.1,-678.5 -2,-1365.8 -34.2,-2043.9 -15.6,-330.1 -39.3,-659.6 -69.8,-988.6 -15,-161.9 -35.8,-323.2 -45.9,-485.4 -7.6,-121.8 4.3,-281.8 -47.3,-394.4 -6.5,-14 -53.2,-11.3 -46.7,6.3 47.8,128.3 34.7,304.4 43.5,439.5 10.6,163.3 34.4,326 50.3,488.7 32.4,329 55.8,659 74.8,989 38.2,662.7 26,1326.2 56,1988.8 0.4,6.7 19.1,6.7 19.3,0"
         style="fill:#050606;fill-opacity:1;fill-rule:nonzero;stroke:none"
         id="path670" />
      <path
         d="m 15722.937,17243.8 c 21.2,-77.9 3.3,-154.4 10.7,-233.7 8.5,-92.1 6.7,-185.4 6.2,-277.9 -1.1,-223.3 -8.3,-446.5 -18.2,-669.6 h -13.1 c -8,205.9 -1.8,411.5 -0.1,617.4 0.8,94.9 1.2,190 -1.6,285 -2.8,91.5 12.2,188.6 0.3,278.8 -0.7,5.2 14.4,5.2 15.8,0"
         style="fill:#050606;fill-opacity:1;fill-rule:nonzero;stroke:none"
         id="path672" />
      <path
         d="m 15716.637,15989.1 c 7.9,-23.3 7.3,-46.3 7.7,-70.6 0.3,-21.5 8.6,-50.6 -9.9,-64.6 h -17.4 c -17.2,13 -10.4,35 -10.1,55.1 0.4,27.3 -1,53.9 7.7,80.1 2.1,5.9 20,5.9 22,0"
         style="fill:#050606;fill-opacity:1;fill-rule:nonzero;stroke:none"
         id="path674" />
      <path
         d="m 15707.337,15725.1 c 13.1,-265.7 -16.7,-534.3 -45,-798.2 -24.5,-228 -32.4,-461.7 -96.1,-683.1 l -2.5,0.1 c 52,218.1 52.3,459.9 71.5,683 22.8,266 34.1,531.9 50.1,798.2 0.5,7.6 21.6,7.6 22,0"
         style="fill:#050606;fill-opacity:1;fill-rule:nonzero;stroke:none"
         id="path676" />
      <path
         d="m 15568.437,14122.1 c 5.6,-67.2 6,-134.1 -13.2,-199.3 -3.5,-11.4 -41,-9.3 -36.5,4.9 19.6,62.4 18.8,129.7 24.2,194.4 0.8,8.7 24.8,8.7 25.5,0"
         style="fill:#050606;fill-opacity:1;fill-rule:nonzero;stroke:none"
         id="path678" />
      <path
         d="m 14133.237,14422.1 c 10.7,-169.6 32.2,-337.6 51.8,-506.2 16.6,-143 48.4,-288.5 58.9,-431.3 0.5,-6.6 -19.3,-7.1 -20.1,0 -14.2,127.5 -52.2,252 -66.6,380.7 -20.9,185.1 -53.5,370 -47.7,556.8 0.3,8.1 23.2,8.1 23.7,0"
         style="fill:#050606;fill-opacity:1;fill-rule:nonzero;stroke:none"
         id="path680" />
      <path
         d="m 15324.837,17337.5 c 2.7,-212.4 13.3,-424.5 17,-636.8 3.7,-204.8 -22,-408.9 -18.6,-613.9 6.7,-408.7 -2.2,-816.5 -37.7,-1224.1 h -3.5 c 27.6,406.4 19.9,816.9 19.9,1224.1 0,205.3 15.4,408.9 21.4,613.9 6,211.8 -8.2,424.8 -5.6,636.8 h 7.1"
         style="fill:#050606;fill-opacity:1;fill-rule:nonzero;stroke:none"
         id="path682" />
      <path
         d="m 15282.737,14722.1 c 16,-161.5 -10.4,-322.9 -52.9,-478.2 h -4.5 c 14.1,159.3 22.5,319.4 40.8,478.2 0.6,5.8 16.1,5.8 16.6,0"
         style="fill:#050606;fill-opacity:1;fill-rule:nonzero;stroke:none"
         id="path684" />
      <path
         d="m 15225.237,14140.8 c 16.9,-127 -18,-247.6 -36.6,-372.3 -19.4,-130.3 3.3,-260.3 -35.7,-388.3 -1.8,-5.9 -21.3,-4.3 -19.9,1.3 34.3,126.3 16.1,257.9 29.2,387 12.8,125.2 55.7,245.3 48.9,372.3 -0.2,4.8 13.4,4.9 14.1,0"
         style="fill:#050606;fill-opacity:1;fill-rule:nonzero;stroke:none"
         id="path686" />
      <path
         d="m 15812.537,13440.4 c -136,-11.2 -267.8,-55.3 -403.6,-72.6 -135,-17.2 -271.5,-25.8 -407.5,-29.9 -261.1,-7.9 -548.7,-26.4 -802.1,47.6 -15.4,4.5 2.3,12 9.9,11.4 282.3,-21.6 560.2,-36.2 844,-28.7 146.1,3.8 293.2,18.3 438.1,36.5 108.3,13.5 207.6,48 317.4,49.3 12.7,0.1 20,-12.2 3.8,-13.6"
         style="fill:#050606;fill-opacity:1;fill-rule:nonzero;stroke:none"
         id="path688" />
      <path
         d="m 14106.437,13393.6 c -58.2,-8.9 -117.6,-5 -176,0.3 -58.3,5.3 -135.9,9.4 -188.3,37.2 -15.9,8.4 5.8,15.7 13.7,16.1 47.4,2.4 95,-12.3 141.7,-20.3 68.4,-11.6 135.7,-17.9 205.2,-19.7 12.6,-0.4 19.9,-11.1 3.7,-13.6"
         style="fill:#050606;fill-opacity:1;fill-rule:nonzero;stroke:none"
         id="path690" />
      <path
         d="m 14524.537,17352.8 c -255.5,-8.5 -510.4,13.8 -766,0.8 -29.1,-1.4 -323.2,-29.3 -317.5,30.8 1.3,13.8 27.5,13.1 36.3,10.3 114.4,-37.2 260.4,-12 378.7,-6.6 221.7,10 447.1,-17.8 668.5,-28.4 8.4,-0.4 8.4,-6.6 0,-6.9"
         style="fill:#050606;fill-opacity:1;fill-rule:nonzero;stroke:none"
         id="path692" />
      <path
         d="m 13805.437,17248.2 c -144,-11.6 -299.3,-18.2 -443.4,-10.5 -7.7,0.5 -18.6,7 -6.1,11.3 133.6,46.4 310.5,21.5 449.5,9.2 9.4,-0.9 9.5,-9.3 0,-10"
         style="fill:#050606;fill-opacity:1;fill-rule:nonzero;stroke:none"
         id="path694" />
      <path
         d="m 13493.237,17155.7 c -28.4,-0.8 -57,-2.7 -85.5,-0.6 -6.8,0.5 -21.4,4.6 -21.4,13.7 0,9.1 14.6,13.2 21.4,13.7 28.5,2.1 57.1,0.1 85.5,-0.6 7.5,-0.1 26.9,-1.9 26.9,-13.1 0,-11.2 -19.4,-13 -26.9,-13.1"
         style="fill:#050606;fill-opacity:1;fill-rule:nonzero;stroke:none"
         id="path696" />
      <path
         d="m 15867.437,17333.4 c -147.4,-9.9 -295.4,-7.8 -443,-8.7 -136.4,-1.1 -282.6,-17.4 -417.5,3.9 -16.7,2.7 -16.7,15.2 0,17.8 134.9,21.4 281.1,5 417.5,4.1 147.6,-1.1 295.6,1.1 443,-8.8 7.8,-0.5 7.8,-7.8 0,-8.3"
         style="fill:#050606;fill-opacity:1;fill-rule:nonzero;stroke:none"
         id="path698" />
      <path
         d="m 15804.137,17216.7 c -67.5,-6.9 -136.3,-4.9 -203.9,-4.3 -37.5,0.3 -148.2,-13.6 -176.7,18.8 -3.4,3.8 -5.7,6.7 -3.2,11.9 l 1.7,3.5 c 3.2,6.7 14.9,8.1 21.2,7.9 6.9,-2.2 13.8,-4.5 20.7,-6.7 -10.5,1.3 -21,2.7 -31.5,4 51.3,10.8 115.7,-6.9 167.8,-9.4 67.8,-3.3 136.4,-2.1 203.9,-9 15.6,-1.7 15.6,-15.1 0,-16.7"
         style="fill:#050606;fill-opacity:1;fill-rule:nonzero;stroke:none"
         id="path700" />
      <path
         d="m 15508.737,17141 c -22.8,-1.2 -46.4,-4 -69.4,-2.9 -6.8,0.2 -24.5,1.7 -24.5,11.9 0,10.4 17.7,11.8 24.5,12.1 23,1 46.6,-1.8 69.4,-3 5.2,-0.3 18.5,-1.2 18.5,-9.1 0,-7.7 -13.3,-8.7 -18.5,-9"
         style="fill:#050606;fill-opacity:1;fill-rule:nonzero;stroke:none"
         id="path702" />
      <path
         d="m 15973.437,13678.9 c -110.3,-50.1 -226.5,-62.3 -345.9,-74.1 -93.6,-9.2 -197.5,-37.5 -290,-8.3 -28.1,8.8 3.4,22.8 18.2,21.2 185.5,-20.2 433.9,5.3 608.7,66.9 3.6,1.3 16.4,-2.3 9,-5.7"
         style="fill:#050606;fill-opacity:1;fill-rule:nonzero;stroke:none"
         id="path704" />
      <path
         d="m 13937.437,13612.2 c -45.6,-31.1 -109.3,-25.2 -161.4,-20 -34.3,3.3 -144.4,10.2 -152.6,51.8 -1.1,5.1 10.9,5.2 13.3,5 85.8,-8.6 191.6,-68 277.2,-28 5.8,2.7 34.6,-1.3 23.5,-8.8"
         style="fill:#050606;fill-opacity:1;fill-rule:nonzero;stroke:none"
         id="path706" />
      <path
         d="m 13690.137,13791.3 c -17.1,-0.5 -34.2,-2.9 -51.3,-1.3 -13.1,1.3 -37.7,5.5 -43.1,20 l 2.5,9.5 c 7.7,5.5 12.9,9.6 22.5,7.2 11.1,-2.6 17.8,-6.6 27.4,-11.8 l 16,-0.4 c 8.7,0.2 17.3,0.9 26,0.9 6.9,0 24.6,-1.9 24.6,-12.1 0,-10.2 -17.7,-11.9 -24.6,-12"
         style="fill:#050606;fill-opacity:1;fill-rule:nonzero;stroke:none"
         id="path708" />
      <path
         d="m 13547.037,15017.8 c -20.2,-4.4 -47.4,-6.9 -63.6,8.9 -11.5,11 1.5,20.4 12.5,23.5 14.6,4.2 35.9,4.2 48.1,-6.2 -13.6,4.5 -14.4,5.3 -2.4,2.4 l 5.4,-1.4 c 6,-1.4 15.9,-6 15.9,-13.6 0,-7.4 -9.9,-12.2 -15.9,-13.6"
         style="fill:#050606;fill-opacity:1;fill-rule:nonzero;stroke:none"
         id="path710" />
      <path
         d="m 16256.037,15693 c -16.9,-4.2 -32.3,-4.9 -49.5,-1.3 -21.1,4.4 -21.1,24.9 0,29.4 17.2,3.6 32.6,2.9 49.5,-1.3 19.2,-4.8 19.2,-22 0,-26.8"
         style="fill:#050606;fill-opacity:1;fill-rule:nonzero;stroke:none"
         id="path712" />
      <path
         d="m 16211.337,15437.7 c -9.2,-1.6 -18.2,-2.1 -27.6,-1.9 -9.8,0.2 -35.5,2.6 -35.5,17.4 0,14.9 25.7,17.3 35.5,17.5 9.4,0.2 18.4,-0.2 27.6,-1.9 7.7,-1.3 24.2,-4.6 24.2,-15.6 0,-10.9 -16.5,-14.1 -24.2,-15.5"
         style="fill:#050606;fill-opacity:1;fill-rule:nonzero;stroke:none"
         id="path714" />
      <path
         d="m 16174.837,15193.5 c -9.6,1.9 -21.8,3.4 -27.5,12.5 -4.2,7.1 3.8,14.7 8.8,18.1 10.8,7 25.8,7 36.5,0 9.9,-6.4 3.8,-1.1 -7.8,0.3 -7.8,-0.5 -15.7,-1 -23.5,-1.5 l 13.5,2.6 c 10.4,1.8 42.8,0.7 42.8,-16 0,-16.5 -32.4,-17.9 -42.8,-16"
         style="fill:#050606;fill-opacity:1;fill-rule:nonzero;stroke:none"
         id="path716" />
      <path
         d="m 15143.237,14660.8 c -35.3,0 -35.3,28.8 0,28.8 35.2,0 35.2,-28.8 0,-28.8"
         style="fill:#050606;fill-opacity:1;fill-rule:nonzero;stroke:none"
         id="path718" />
      <path
         d="m 15135.437,14529.7 c 8.6,0.9 17.2,1.7 25.8,0 6.9,-1.4 21.6,-4 21.6,-13.9 0,-9.9 -14.7,-12.6 -21.6,-13.9 -8.6,-1.7 -17.2,-0.8 -25.8,0 -7,0.7 -21.6,4.5 -21.6,13.9 0,9.4 14.6,13.2 21.6,13.9"
         style="fill:#050606;fill-opacity:1;fill-rule:nonzero;stroke:none"
         id="path720" />
      <path
         d="m 15041.637,14537.3 3.1,-6.8 c 5.5,-12.6 -23.8,-11.7 -29.4,-8.4 l -8.9,5.1 c -21.1,12.5 27.2,28.3 35.2,10.1"
         style="fill:#050606;fill-opacity:1;fill-rule:nonzero;stroke:none"
         id="path722" />
      <path
         d="m 15030.737,14666.4 c -21.6,0 -21.6,17.5 0,17.5 21.6,0 21.6,-17.5 0,-17.5"
         style="fill:#050606;fill-opacity:1;fill-rule:nonzero;stroke:none"
         id="path724" />
      <path
         d="m 15096.337,14364.8 c -25.3,0 -25.3,20.7 0,20.7 25.3,0 25.3,-20.7 0,-20.7"
         style="fill:#050606;fill-opacity:1;fill-rule:nonzero;stroke:none"
         id="path726" />
      <path
         d="m 14946.437,14318.6 c -23.7,0 -23.7,19.4 0,19.4 23.6,0 23.6,-19.4 0,-19.4"
         style="fill:#050606;fill-opacity:1;fill-rule:nonzero;stroke:none"
         id="path728" />
      <path
         d="m 15096.337,14159 c -24.2,0 -24.2,19.8 0,19.8 24.2,0 24.2,-19.8 0,-19.8"
         style="fill:#050606;fill-opacity:1;fill-rule:nonzero;stroke:none"
         id="path730" />
      <path
         d="m 15176.737,14288.8 -7.5,-9.4 h -14.5 l -7.6,9.4 c -5.4,13 35.1,13 29.6,0"
         style="fill:#050606;fill-opacity:1;fill-rule:nonzero;stroke:none"
         id="path732" />
      <path
         d="m 15096.337,13908.9 c -16.8,0 -16.8,13.9 0,13.9 16.9,0 16.9,-13.9 0,-13.9"
         style="fill:#050606;fill-opacity:1;fill-rule:nonzero;stroke:none"
         id="path734" />
      <path
         d="m 15024.637,14081.6 -3.9,-5.5 c -7,-9.6 -29.3,-9.6 -36.2,0 l -4,5.5 c -13.2,18.4 57.3,18.4 44.1,0"
         style="fill:#050606;fill-opacity:1;fill-rule:nonzero;stroke:none"
         id="path736" />
      <path
         d="m 14985.537,13761 v 9.7 c 6.1,6.7 36.8,8.3 36.8,-4.8 0,-13.1 -30.7,-11.6 -36.8,-4.9"
         style="fill:#050606;fill-opacity:1;fill-rule:nonzero;stroke:none"
         id="path738" />
      <path
         d="m 15109.137,14017.3 -7.5,-9.2 h -10.5 l -7.5,9.2 c -8.1,10.4 33.5,10.4 25.5,0"
         style="fill:#050606;fill-opacity:1;fill-rule:nonzero;stroke:none"
         id="path740" />
      <path
         d="m 15077.637,13637.3 c -16.4,0 -16.4,13.3 0,13.3 16.3,0 16.3,-13.3 0,-13.3"
         style="fill:#050606;fill-opacity:1;fill-rule:nonzero;stroke:none"
         id="path742" />
      <path
         d="m 14967.537,13564.3 7.6,7.2 h 17.4 l 7.6,-7.2 c 18.6,-17.7 -51.1,-17.7 -32.6,0"
         style="fill:#050606;fill-opacity:1;fill-rule:nonzero;stroke:none"
         id="path744" />
      <path
         d="m 15077.737,13420.6 -5.3,1.5 c -8.9,2.6 -8.9,10 0,12.6 l 5.3,1.5 c 6,1.7 27.7,2.9 27.7,-7.8 0,-10.7 -21.7,-9.5 -27.7,-7.8"
         style="fill:#050606;fill-opacity:1;fill-rule:nonzero;stroke:none"
         id="path746" />
      <path
         d="m 15096.337,13531.6 c -22.7,0 -22.7,18.5 0,18.5 22.6,0 22.6,-18.5 0,-18.5"
         style="fill:#050606;fill-opacity:1;fill-rule:nonzero;stroke:none"
         id="path748" />
      <path
         d="m 15241.637,15087.7 c 2.2,-40.9 1.5,-81.1 -0.5,-121.9 -2,-41.3 0.6,-84.2 -15.2,-122.9 h -15.4 c -13.6,34.4 -9.4,69.5 -7,105.8 3.1,46.3 6.9,92.6 10.1,139 0.5,9.6 27.6,9.6 28,0"
         style="fill:#050606;fill-opacity:1;fill-rule:nonzero;stroke:none"
         id="path750" />
      <path
         d="m 15242.937,15200.2 c 1.4,-12.5 2.7,-24.9 4,-37.3 1.2,-11.1 -9.8,-15.5 -19.3,-15.5 -5.9,0 -20.7,3.2 -19.8,11.8 1.5,13.7 2.9,27.4 4.4,41 1.2,10.6 29.6,10.6 30.7,0"
         style="fill:#050606;fill-opacity:1;fill-rule:nonzero;stroke:none"
         id="path752" />
      <path
         d="m 15251.937,15340.8 -0.5,-7 -4.3,-5 c -7.4,-2.9 -12.9,-2.9 -20.5,0 l -4.2,5 -0.4,7 c -0.7,10.2 30.5,10.2 29.9,0"
         style="fill:#050606;fill-opacity:1;fill-rule:nonzero;stroke:none"
         id="path754" />
      <path
         d="m 13924.537,15068.6 v 0.5 -0.5"
         style="fill:#050606;fill-opacity:1;fill-rule:nonzero;stroke:none"
         id="path756" />
      <path
         d="m 13877.637,17238.3 c -36.3,0 -36.3,29.8 0,29.8 36.3,0 36.3,-29.8 0,-29.8"
         style="fill:#050606;fill-opacity:1;fill-rule:nonzero;stroke:none"
         id="path758" />
      <path
         d="m 13821.437,17207.9 h 8.4 c 6.2,0 22.4,-1.8 22.4,-11 0,-9.2 -16.2,-11 -22.4,-11 h -8.4 c -6.2,0 -22.5,1.8 -22.5,11 0,9.2 16.3,11 22.5,11"
         style="fill:#050606;fill-opacity:1;fill-rule:nonzero;stroke:none"
         id="path760" />
      <path
         d="m 13896.437,17143.1 c -16.9,0 -16.9,13.8 0,13.8 16.8,0 16.8,-13.8 0,-13.8"
         style="fill:#050606;fill-opacity:1;fill-rule:nonzero;stroke:none"
         id="path762" />
      <path
         d="m 13849.537,17076.9 c -18.4,0 -18.4,15 0,15 18.5,0 18.5,-15 0,-15"
         style="fill:#050606;fill-opacity:1;fill-rule:nonzero;stroke:none"
         id="path764" />
      <path
         d="m 13877.637,16990.6 c -23.1,0 -23.1,18.9 0,18.9 23.2,0 23.2,-18.9 0,-18.9"
         style="fill:#050606;fill-opacity:1;fill-rule:nonzero;stroke:none"
         id="path766" />
      <path
         d="m 13830.837,16917.3 c -19,0 -19,15.5 0,15.5 18.9,0 18.9,-15.5 0,-15.5"
         style="fill:#050606;fill-opacity:1;fill-rule:nonzero;stroke:none"
         id="path768" />
      <path
         d="m 15949.437,13886.6 c -25.8,0 -25.8,21 0,21 25.8,0 25.8,-21 0,-21"
         style="fill:#050606;fill-opacity:1;fill-rule:nonzero;stroke:none"
         id="path770" />
      <path
         d="m 15968.137,13823.1 c 8.5,0.1 23.1,0.1 27.8,-8.8 v -5.5 l -7.5,-7.3 c -6.2,-4.7 -15,-5.5 -22.5,-4.5 -4.5,0.6 -18.6,4.6 -13.8,12 l 1.9,0.4 9.9,-6.3 4.2,-0.7 c -5.8,0.2 -21.1,1.4 -21.1,10.3 0,8.8 15.3,10.2 21.1,10.4"
         style="fill:#050606;fill-opacity:1;fill-rule:nonzero;stroke:none"
         id="path772" />
      <path
         d="m 15902.537,13745.2 c -27.3,0 -27.3,22.5 0,22.5 27.4,0 27.4,-22.5 0,-22.5"
         style="fill:#050606;fill-opacity:1;fill-rule:nonzero;stroke:none"
         id="path774" />
      <path
         d="m 14641.637,17580.9 c -255.6,-11.6 -512.4,-5.3 -768.2,-2.8 -115.9,1.1 -231.9,2.4 -347.9,3.5 -94.1,0.9 -196,-12.6 -287.1,13.8 -13.2,3.9 -13.3,14.8 0,18.6 77.4,22.1 159.6,11.7 239.4,11 131.9,-1.4 263.8,-3.6 395.6,-6.2 256,-5.1 512.5,-6.3 768.2,-18.4 23.7,-1.2 23.7,-18.4 0,-19.5"
         style="fill:#050606;fill-opacity:1;fill-rule:nonzero;stroke:none"
         id="path776" />
      <path
         d="m 14817.737,17591.8 -8.6,-1.5 c 6.1,2.3 12.2,4.6 18.2,6.9 -23.9,-17.5 -67.9,-11.7 -92.7,2.1 -6.9,3.9 -13.7,9.5 -9.7,18.2 l 0.6,1.4 c 6.2,13.8 31.2,12.9 42.9,12 9.8,-0.8 18,-3.6 26.2,-8.9 -5.9,3.8 3,0.2 -2.8,1.2 12.2,-2.1 25.5,-2.6 35.5,-11 -6,2.3 -12.1,4.6 -18.2,6.9 l 8.6,-1.5 c 6.3,-1.2 19.9,-3.9 19.9,-12.9 0,-9 -13.6,-11.7 -19.9,-12.9"
         style="fill:#050606;fill-opacity:1;fill-rule:nonzero;stroke:none"
         id="path778" />
      <path
         d="m 15041.637,17579.6 -7.5,-1.5 c 6.2,3 12.3,6 18.5,9.1 -5.7,-10.8 -20.8,-11.5 -31.6,-12.8 -10.5,-1.2 -43.3,-1 -43.3,16.2 0,17.3 32.8,17.5 43.3,16.2 10.8,-1.2 25.9,-1.9 31.6,-12.7 -6.2,3 -12.3,6 -18.5,9.1 l 7.5,-1.6 c 5.4,-1.1 17,-3.2 17,-11 0,-7.7 -11.6,-9.9 -17,-11"
         style="fill:#050606;fill-opacity:1;fill-rule:nonzero;stroke:none"
         id="path780" />
      <path
         d="m 13101.937,17857.8 c 19.5,-333.9 35.2,-693.7 0.9,-1026.5 -0.6,-5.4 -15.3,-5.4 -15.9,0 -34.2,332.8 -18.6,692.6 0.9,1026.5 0.3,4.8 13.8,4.8 14.1,0"
         style="fill:#050606;fill-opacity:1;fill-rule:nonzero;stroke:none"
         id="path782" />
      <path
         d="m 13166.437,16606.3 c 35.9,-1083.2 114,-2173.7 348.3,-3234.1 l -5.2,-0.4 c -66.2,183 -88.8,382.3 -128.7,572 -49.6,236.4 -82.8,476.6 -108.4,716.6 -30.1,282 -53.3,565.6 -71.2,848.5 -23,365.4 -60.7,731.1 -51.4,1097.4 0.2,5.7 16.6,5.8 16.6,0"
         style="fill:#050606;fill-opacity:1;fill-rule:nonzero;stroke:none"
         id="path784" />
      <path
         d="m 15730.337,13160.9 c -397.4,-132.1 -851.4,-120.5 -1264.6,-104.8 -188.7,7.1 -370.7,45.2 -557.3,68.6 -79.7,10.1 -242.4,14 -290.5,92.7 -14.6,23.9 50,23 60.2,17.2 106.8,-59.7 227.4,-64.7 346.3,-81.8 184.9,-26.7 362.1,-53.8 549.8,-58.8 178,-4.9 357.3,-6.8 535.2,0.7 206.8,8.7 407.4,50 611.9,76.8 7.6,1 22.9,-6.1 9,-10.6"
         style="fill:#050606;fill-opacity:1;fill-rule:nonzero;stroke:none"
         id="path786" />
      <path
         d="m 14475.737,12997.2 -1.3,-10.8 -7.3,-4.7 c -112.6,-15.8 -228.7,-3.4 -341.4,4 -119.7,7.8 -251.6,14.6 -363,61.9 -14.2,6 5.3,14.1 11.8,14 120.4,-2.4 239.7,-32.8 359.6,-45.6 40.7,-4.3 306.3,-52.1 326.9,-17.8 2,3.2 15.3,4.1 14.7,-1"
         style="fill:#050606;fill-opacity:1;fill-rule:nonzero;stroke:none"
         id="path788" />
      <path
         d="m 15673.937,13001.7 c -176.2,-50.7 -356.9,-72.8 -540.2,-76.5 -149.4,-2.9 -355.4,-63.5 -497.6,1.3 -12.3,5.6 4.6,12.1 10.2,12.1 340.1,-2.1 682.6,22.5 1018.9,73.3 7.3,1.2 22.1,-6.4 8.7,-10.2"
         style="fill:#050606;fill-opacity:1;fill-rule:nonzero;stroke:none"
         id="path790" />
      <path
         d="m 14620.537,12822.5 c -60.2,17 -124.3,4.1 -185.8,4 -49.8,-0.1 -103.6,2.4 -151.9,14.5 -12.6,3.2 -5,11.3 3.4,13 61.3,12.1 127.2,-4.6 189.2,-5 54.1,-0.4 107.4,3.7 159.3,-14.6 17.6,-6.3 -4.7,-14.6 -14.2,-11.9"
         style="fill:#050606;fill-opacity:1;fill-rule:nonzero;stroke:none"
         id="path792" />
      <path
         d="m 15127.737,12822.5 c -49.7,-4.1 -98.7,-14.4 -148.4,-19.3 -30.3,-3 -78.8,-10.2 -103.2,11.8 -7.1,6.3 4.5,11.3 9.7,11.8 37.4,3.1 74.3,-3.4 112.2,0.1 42.6,3.9 83.6,9.3 126.5,7.5 10.7,-0.4 17.6,-10.6 3.2,-11.9"
         style="fill:#050606;fill-opacity:1;fill-rule:nonzero;stroke:none"
         id="path794" />
      <path
         d="m 16078.737,13237.2 c -82.4,-36.6 -172.1,-51.5 -259.7,-70.5 -13.8,-2.9 -46.2,11.5 -20.4,17.1 89.2,19.8 179.4,36.4 267.3,61.6 4.9,1.3 23.5,-3.4 12.8,-8.2"
         style="fill:#050606;fill-opacity:1;fill-rule:nonzero;stroke:none"
         id="path796" />
      <path
         d="m 16494.037,16137.6 c -4.6,-545.5 -87.1,-1097 -162.1,-1636.3 -52.8,-378.8 -70.5,-792.4 -197.2,-1155.4 l -14.7,0.9 c 80.4,381.2 131.4,770 192.8,1154.5 37.7,235.6 63.6,471.2 89.1,708.5 33.3,309.1 83.8,616.4 90.4,927.8 h 1.7"
         style="fill:#050606;fill-opacity:1;fill-rule:nonzero;stroke:none"
         id="path798" />
      <path
         d="m 12858.937,17247.1 c -174.2,-5.8 -348.5,1.8 -522.7,-5.7 -84.5,-3.6 -168,-14.3 -250.2,-34.1 -63.7,-15.4 -72.1,-139.4 -117.6,-182.7 -4.4,-4.2 -27.7,-6.3 -27,3.6 12.3,177.2 89.1,206.2 250.5,228.4 218.1,29.7 448.1,11 667,2.6 14.7,-0.6 14.8,-11.6 0,-12.1"
         style="fill:#050606;fill-opacity:1;fill-rule:nonzero;stroke:none"
         id="path800" />
      <path
         d="m 11950.737,16928.6 c -60.4,-191.7 19,-428 49.2,-620.2 38.8,-246.8 54.2,-494.5 75.6,-743.1 20.7,-239.9 52.5,-478.6 91.3,-716.2 37.9,-233 74.6,-509.4 223.3,-701.9 5.2,-6.8 -18.7,-9.8 -23.3,-4.8 -142.9,151 -181.2,402.8 -218.4,599.8 -48.7,258.6 -86.3,519.4 -112.7,781.1 -26.3,262.1 -40.9,524.2 -78.4,785.1 -27.8,193.5 -100,434.1 -24.3,622.6 2.1,5.4 19.9,4.5 17.7,-2.4"
         style="fill:#050606;fill-opacity:1;fill-rule:nonzero;stroke:none"
         id="path802" />
      <path
         d="m 13066.737,14154.2 c -206.1,-11.3 -412.1,-32.5 -618.7,-35.9 -32.2,-0.5 -32.1,26.1 0,26.3 206.5,0.7 412.3,27.7 618.7,20.4 13.3,-0.5 13.1,-10 0,-10.8"
         style="fill:#050606;fill-opacity:1;fill-rule:nonzero;stroke:none"
         id="path804" />
      <path
         d="m 12175.237,15903.2 c 30.2,-309.8 54.8,-621.8 112.3,-928 24.5,-130 33.1,-265 85.1,-387.9 70.9,-167.8 222.3,-157.3 374.5,-168 12.6,-0.8 12.4,-12.2 0,-13.2 -235,-19 -377.6,50.3 -434.3,291.8 -91.7,389.7 -120.7,807.3 -154.4,1205.3 -0.4,5.6 16.2,5.9 16.8,0"
         style="fill:#050606;fill-opacity:1;fill-rule:nonzero;stroke:none"
         id="path806" />
      <path
         d="m 12156.537,16072 c 0.9,-19.1 3.5,-38 6.1,-56.8 1.8,-14.2 11.1,-42 4,-54.9 -4.3,-7.8 -23.2,-7 -27.9,0 -7.3,11.4 -4.3,35.6 -5.4,49 -1.6,20.8 -3.4,41.8 -3.1,62.7 0.1,9.1 25.9,9.1 26.3,0"
         style="fill:#050606;fill-opacity:1;fill-rule:nonzero;stroke:none"
         id="path808" />
      <path
         d="m 12858.937,16926.3 c -196.3,-5.4 -402.6,-6.3 -595.4,-48.4 -220.8,-48.1 -147.7,-458.3 -129.3,-618.5 0.7,-6.1 -17,-6.3 -18.9,-1.2 -43.2,117.4 -39.3,249.3 -43,373.1 -2.4,79.1 8,197.6 93.3,235.6 196.8,87.7 481.4,77.5 693.3,66.3 8.3,-0.4 8.5,-6.7 0,-6.9"
         style="fill:#050606;fill-opacity:1;fill-rule:nonzero;stroke:none"
         id="path810" />
      <path
         d="m 12773.937,17058.9 c -99.8,-8.3 -205.7,-20.9 -304.8,-20.9 -74.6,0 -119.7,16.4 -203.6,7.9 -122.3,-12.4 -147.5,-73.4 -214.8,-149.3 -6.6,-7.5 -44.1,-6 -37,7.7 65.2,125.8 145.2,154.9 286.3,168.8 67.6,6.7 131.6,-15.8 198.7,-9.8 92.7,8.2 179.5,4.6 272.8,4.6 8.3,0 13.1,-8 2.4,-9"
         style="fill:#050606;fill-opacity:1;fill-rule:nonzero;stroke:none"
         id="path812" />
      <path
         d="m 12017.837,16840 c 4,-11.3 5.3,-21.2 5.9,-33.3 0.7,-11.5 3.1,-23.1 -1.2,-34 -3.7,-9.3 -31.1,-9.3 -34.8,0 -4.3,10.9 -1.8,22.5 -1.2,34 0.6,12.1 1.9,22 5.9,33.3 2.3,6.8 23,6.8 25.4,0"
         style="fill:#050606;fill-opacity:1;fill-rule:nonzero;stroke:none"
         id="path814" />
      <path
         d="m 17057.237,19325.6 c 286.2,26 467.6,-575 177.3,-656.9 -3.4,-0.9 -22.3,0.3 -15,7.4 99.2,95.6 129,183.6 107.5,322.5 -20.3,131.9 -112.6,316.8 -266.8,316.1 -10.2,-0.2 -16.1,9.7 -3,10.9"
         style="fill:#050606;fill-opacity:1;fill-rule:nonzero;stroke:none"
         id="path816" />
      <path
         d="m 16940.837,19274.5 c -51.7,-25.7 -117.1,-7.6 -163.1,22.9 -40.8,27.2 -117,113.4 -51.1,154.4 4.9,3 21.6,4 24.3,-3.1 5.9,-16.5 -2.2,-30.7 -2.6,-47.7 -0.5,-22.9 12,-44.1 25.3,-61.9 31.7,-42.5 100.6,-78.2 152.9,-57.5 5.1,2 24.9,-1.9 14.3,-7.1"
         style="fill:#050606;fill-opacity:1;fill-rule:nonzero;stroke:none"
         id="path818" />
      <path
         d="m 16713.037,19797 c -150.3,223.3 -519.5,431.4 -725.3,152.7 -45.2,-61.1 -54.8,-204.1 -150.8,-200 -2.3,0.1 -17.4,2.4 -12.7,8.1 57.4,70.2 82.5,156.3 137.9,228.1 59,76.6 158.2,103.8 248.8,117.9 209.8,32.6 422,-136.9 521.6,-304.1 3.7,-6.4 -15.8,-8.1 -19.5,-2.7"
         style="fill:#050606;fill-opacity:1;fill-rule:nonzero;stroke:none"
         id="path820" />
      <path
         d="m 16255.037,19804.9 c 41.7,4.9 78,29.9 121.4,22.6 40.7,-6.8 72.2,-21.9 104.2,-48.1 48.2,-39.4 119,-139 40.9,-182.6 -5.3,-3 -22.1,-3.9 -23.2,4.6 -3.5,24.4 1.4,48.1 -5.3,72.1 -8.9,31.7 -30.6,60.4 -53,83.7 -18.8,19.5 -41.8,36.6 -68,44 -32.9,9.3 -78.5,-10.3 -113.2,-9.8 -12.6,0.2 -20.1,11.7 -3.8,13.5"
         style="fill:#050606;fill-opacity:1;fill-rule:nonzero;stroke:none"
         id="path822" />
      <path
         d="m 16941.537,19085 c 55.9,-31.4 104.8,-67 121.9,-131.6 14,-52.8 -4.2,-150.4 -46.5,-185.2 -4.9,-4.2 -24.6,-6.9 -27.3,1.7 -8.4,26.7 3.6,42.3 13.2,68.6 10.8,29.6 17.6,59.7 18.9,91 2.9,65.9 -48,114.2 -97.4,148.9 -7.9,5.5 12.6,9.1 17.2,6.6"
         style="fill:#050606;fill-opacity:1;fill-rule:nonzero;stroke:none"
         id="path824" />
      <path
         d="m 17010.537,17354.8 c 112.3,-42.8 190.6,-149.2 125.7,-265.6 -65.1,-116.6 -238.4,-40.4 -311.3,-147.8 -6.3,-9.4 -42.1,-7.7 -35.6,4.8 37.2,71.2 116,76.2 187.8,84.9 84.9,10.4 144.5,57.8 152.1,145.8 6.7,78.5 -69.5,141.6 -131.7,171.5 -9.7,4.6 8.4,8.2 13,6.4"
         style="fill:#050606;fill-opacity:1;fill-rule:nonzero;stroke:none"
         id="path826" />
      <path
         d="m 16768.037,16910.3 c -73.5,-10.3 -88.4,-102.4 -124.1,-151.9 -7,-9.6 -43.7,-11.2 -39.1,5.2 10.9,38.3 40.2,80.1 65.2,110.5 24.4,29.7 55.9,48.9 95,47.2 10.1,-0.5 16.3,-9.2 3,-11"
         style="fill:#050606;fill-opacity:1;fill-rule:nonzero;stroke:none"
         id="path828" />
      <path
         d="m 16458.237,16742.3 c -63.1,-5 -180.4,37.5 -167.9,117.1 1.3,7.4 17.5,6.5 20.8,1.4 16,-24.7 29.3,-52.2 51.4,-72.3 26.4,-24 61.4,-32.5 95.7,-37 8.4,-1.1 8.7,-8.4 0,-9.2"
         style="fill:#050606;fill-opacity:1;fill-rule:nonzero;stroke:none"
         id="path830" />
      <path
         d="m 16234.637,16986 c -9.7,59.4 -19.4,166 43.2,201.3 5,2.7 20.8,3.6 21.8,-4.5 2,-15.6 -4.6,-21.5 -11.9,-35.7 -9.3,-17.8 -13.8,-37.9 -17.6,-57.4 -6.7,-34.1 -9.6,-69.4 -15.4,-103.7 -1.1,-7 -19,-7 -20.1,0"
         style="fill:#050606;fill-opacity:1;fill-rule:nonzero;stroke:none"
         id="path832" />
      <path
         d="m 16304.037,17282.8 c 22.4,52 29.5,107.4 25.8,163.7 -2,28.3 -10.1,55.5 -21.2,81.5 -10.9,25.2 -34.5,38.5 -47.7,61 -4.5,7.8 14.9,7.8 18.2,6.9 122.4,-37.1 89.4,-231.5 47,-316.1 -3.4,-6.5 -25.6,-5 -22.1,3"
         style="fill:#050606;fill-opacity:1;fill-rule:nonzero;stroke:none"
         id="path834" />
      <path
         d="m 16191.937,17629.7 c -29.6,25 -61.4,43.8 -100,49.2 -4.9,0.7 -19,4.6 -14.6,12.6 4.6,8 18.1,7.8 25.7,7.1 43.7,-3.7 82,-30.8 110.2,-62.7 7.7,-9 -16.1,-10.5 -21.3,-6.2"
         style="fill:#050606;fill-opacity:1;fill-rule:nonzero;stroke:none"
         id="path836" />
      <path
         d="m 15963.437,17725.7 c -46.1,1 -74.9,-38.2 -112.1,-57.8 -18.6,-9.8 -55.2,-12.8 -76,-12.8 -66.6,0 -119.2,30.7 -166.1,75.6 -59.8,57.4 -113.6,111.6 -125.6,197 -11.8,82.7 39.8,204.5 87.5,269.3 3.7,5 27.7,7.6 25.8,-1.7 -28.7,-145.7 -102.4,-284 13.4,-408 78.8,-84.3 145.6,-137.9 272.3,-67.6 30.8,17.1 49.8,20.7 83.9,16.9 13,-1.4 7.3,-11.1 -3.1,-10.9"
         style="fill:#050606;fill-opacity:1;fill-rule:nonzero;stroke:none"
         id="path838" />
      <path
         d="m 16926.337,18214.9 c 62.5,-19.2 89.2,-77.8 92.9,-139.4 3.1,-52.5 -28,-118.3 -88.9,-111.2 l -9.4,6 c 3.3,13.9 22.3,21.2 31.2,31.9 16.8,20.1 20.5,48.2 20.9,73.3 0.8,44.2 -20.5,108.1 -62.7,129.3 -13.2,6.6 9.9,12 16,10.1"
         style="fill:#050606;fill-opacity:1;fill-rule:nonzero;stroke:none"
         id="path840" />
      <path
         d="m 16812.737,18531.6 c -10.4,34.8 -30.6,62 -59.3,84.2 -18,13.9 -40,23.1 -61.7,29.2 -15.1,4.3 -31.9,2.7 -45.7,11.1 v 6.4 c 32.6,16.1 85.3,-4.4 113.1,-23.2 37.8,-25.4 63.3,-61.4 70.9,-106.5 1,-5.4 -15.8,-6 -17.3,-1.2"
         style="fill:#050606;fill-opacity:1;fill-rule:nonzero;stroke:none"
         id="path842" />
      <path
         d="m 16585.637,19107.9 c -16,25.2 -35.2,43.7 -61.7,57.7 -23,12.3 -52.4,19.8 -72.4,36.9 -14.9,12.7 22.5,16 28.8,14.1 53.9,-15.5 104.5,-53.7 126.5,-105.9 3.4,-8 -17.6,-8.5 -21.2,-2.8"
         style="fill:#050606;fill-opacity:1;fill-rule:nonzero;stroke:none"
         id="path844" />
      <path
         d="m 16330.437,19402.9 c -22.9,37.6 -49.6,73.2 -82.3,103.1 -18.6,17.1 -40.7,29.4 -64.5,37.5 -23.9,8.2 -48.6,3.2 -72.6,9.8 -6.4,1.8 -9.5,6.9 -2.8,10.9 41.5,24.2 107.6,-1.4 144.7,-24.1 50.2,-30.7 80.8,-80.8 103,-133.8 3.9,-9.5 -21.3,-10.4 -25.5,-3.4"
         style="fill:#050606;fill-opacity:1;fill-rule:nonzero;stroke:none"
         id="path846" />
      <path
         d="m 15700.137,19682.9 c -54.2,56.4 -126.3,6.8 -189.6,11.6 l -8,6.8 0.9,2.3 c 1.1,5.5 6,7.9 10.9,9.3 63.4,18.2 161.4,36 207.5,-25.5 4.9,-6.6 -17.4,-9 -21.7,-4.5"
         style="fill:#050606;fill-opacity:1;fill-rule:nonzero;stroke:none"
         id="path848" />
      <path
         d="m 15373.037,19880.8 c -20.5,24.2 -43.9,44.9 -69.6,63.3 -15.9,11.3 -33.5,20.3 -51.9,26.6 -24.4,8.3 -44.4,-5 -67.2,-10.5 -4,-0.9 -26.5,-2.5 -24.6,6.9 8.4,40.8 85.6,30.5 113.9,22 53,-15.7 96.3,-60.5 127.3,-104.5 6,-8.5 -22.2,-10.6 -27.9,-3.8"
         style="fill:#050606;fill-opacity:1;fill-rule:nonzero;stroke:none"
         id="path850" />
      <path
         d="m 14965.837,20005.4 c -54.4,62.3 -121.9,-3.4 -163.1,-44.2 -6.6,-6.7 -46.6,-9.9 -44.1,5.9 7.1,44.4 75.8,71.3 113.3,81.1 43.2,11.2 99.9,7 122.1,-36.9 5.2,-10.5 -23.1,-11.6 -28.2,-5.9"
         style="fill:#050606;fill-opacity:1;fill-rule:nonzero;stroke:none"
         id="path852" />
      <path
         d="m 15094.837,19793 c -36.7,18.1 -70.4,24.4 -110.6,15.6 -26.5,-5.8 -48,-17.7 -75.4,-18 -4.2,-0.1 -19.1,2.2 -15.2,9.8 14.8,28.8 77.9,33.5 107.1,35.9 41.5,3.4 81.3,-10.9 115.8,-32.7 15.3,-9.5 -13.7,-14.5 -21.7,-10.6"
         style="fill:#050606;fill-opacity:1;fill-rule:nonzero;stroke:none"
         id="path854" />
      <path
         d="m 14378.937,19698.6 c -66.8,87.8 -153.8,150.3 -257.3,188.7 -187.4,69.7 -286.7,-58.5 -269.3,-219.8 13.2,-122.9 -66.9,-190.5 -172.5,-227.8 -3.7,-1.3 -31.7,-0.3 -24.5,9.2 32.3,42.3 75,70.5 104.9,115.5 37.3,55.8 14.8,142.7 19,205.3 5.8,86.1 93.4,133.8 166.3,153.7 171.6,47.2 364.7,-86.5 452.8,-222.2 4,-6.1 -15.6,-7.7 -19.4,-2.6"
         style="fill:#050606;fill-opacity:1;fill-rule:nonzero;stroke:none"
         id="path856" />
      <path
         d="m 13451.937,19451.1 c -161.8,-22.1 -324.6,38.7 -468.6,-67 -132.1,-96.8 -165.6,-249.5 -138,-401.4 3.7,-20.4 -54.4,-19.4 -62.1,-4.1 -78.6,154.8 16.4,321.6 136.1,423.9 146.3,125.3 353.7,72.9 527.1,68.5 18.5,-0.5 29.4,-16.7 5.5,-19.9"
         style="fill:#050606;fill-opacity:1;fill-rule:nonzero;stroke:none"
         id="path858" />
      <path
         d="m 12808.437,18898.4 c 1.2,-11.2 1.2,-22.3 1.4,-33.5 l -8,9.5 5.2,-2.8 c 4.1,-2.2 11.3,-6.6 10.6,-12.5 -6.7,-50.6 -17,-123.1 -81.1,-123.8 -10.5,-0.2 -37.8,3 -37.8,18.5 0,15.7 27.3,18.3 37.8,18.5 -23.3,-0.4 -27.9,-12.6 -20.4,-1.4 3.5,5.2 6,11.3 8.5,17 5.4,12.8 8.8,26.4 12.9,39.6 3.3,10.9 3.7,33 12.8,40.5 9.6,8.1 10.5,18 12.4,30.4 2.4,15.7 43.9,15.9 45.7,0"
         style="fill:#050606;fill-opacity:1;fill-rule:nonzero;stroke:none"
         id="path860" />
      <path
         d="m 16327.837,18896.3 c -104.5,256.9 -293.7,413.1 -583.2,368 -91.6,-14.3 -288.6,-42.5 -315.1,84 -4,19 44,13.1 51.7,6.9 109.1,-88.7 215,-56.4 343.2,-44.5 66.3,6.1 131.7,-4.3 193.7,-28.9 171.3,-68 304.1,-198.2 340.8,-383.4 2,-9.7 -27.7,-10.4 -31.1,-2.1"
         style="fill:#050606;fill-opacity:1;fill-rule:nonzero;stroke:none"
         id="path862" />
      <path
         d="m 15204.637,19414.7 c -76.8,78.3 -172.2,112.6 -279.3,128 -103.9,14.9 -191.9,-13.4 -260,-94.4 -18.5,-22.2 -39.8,-44.3 -66.3,-57.3 -94.9,-46.5 -271.2,-15.1 -335.3,68.2 -5.7,7.6 16.4,7.6 18.8,7.1 58.8,-13.4 111.4,-24.4 167.8,-44.9 101.8,-37.3 144.1,42.6 199.4,97.5 42.8,42.4 123.7,56.3 180.5,57.9 138.2,4.1 326.2,-26.3 403.2,-156.1 6.1,-10.3 -23.5,-11.4 -28.8,-6"
         style="fill:#050606;fill-opacity:1;fill-rule:nonzero;stroke:none"
         id="path864" />
      <path
         d="m 16801.537,17428.9 c 138.1,-50.2 34.8,-175.9 -45.4,-227.5 -16.5,-10.5 -66.3,-18.2 -71.9,9.6 -2.1,10.8 -12.6,15.7 -14.6,28.1 -2.3,14.2 31.1,12.6 37.7,10.6 19.9,-6.1 44.6,-12.7 52.7,-33.7 -21.5,2.8 -43,5.6 -64.5,8.3 61.3,37 161,126 83.2,193.5 -11.4,9.8 17.4,13.1 22.8,11.1"
         style="fill:#050606;fill-opacity:1;fill-rule:nonzero;stroke:none"
         id="path866" />
      <path
         d="m 16857.437,17875.9 c 59.3,-28.9 50,-102.7 29.5,-154.1 -9.3,-23.5 -25.8,-48.4 -50.1,-58.1 -9.5,-3.8 -65.4,-12.1 -60,11.3 1.3,5.4 7.1,6.9 11.9,7.7 51.8,8.5 92.3,144.2 50.8,186.3 -7.8,7.9 13.7,8.9 17.9,6.9"
         style="fill:#050606;fill-opacity:1;fill-rule:nonzero;stroke:none"
         id="path868" />
      <path
         d="m 16582.237,18392.2 c -0.8,104.4 -120.2,181.7 -217.8,169.9 6.7,4.3 13.3,8.6 19.9,12.9 -1.5,-18.9 -17.2,-17.2 -31.4,-22.3 -6.1,-2.2 -33.8,-2 -28.5,10.7 l 5.5,9.8 c 11.3,9.4 0.2,-1 0.1,1.8 0,8.6 13.6,12.2 20,12.8 108.4,10 281,-63.4 260.3,-195.6 -1.5,-9.6 -28.1,-9.8 -28.1,0"
         style="fill:#050606;fill-opacity:1;fill-rule:nonzero;stroke:none"
         id="path870" />
      <path
         d="m 16132.337,18784 c -16.1,44.2 -45,83.3 -86.6,106.6 -46,25.8 -90.2,9.1 -138.5,10.4 -4.9,0.2 -35,7.7 -20.1,17.2 45.6,29.3 120,19.1 168.6,1.4 62.3,-22.7 92.5,-71.4 105,-133.7 1.8,-8.7 -25.6,-9.8 -28.4,-1.9"
         style="fill:#050606;fill-opacity:1;fill-rule:nonzero;stroke:none"
         id="path872" />
      <path
         d="m 15672.637,18992.1 c -44.6,25.2 -78.4,56.4 -114.4,92.6 -29.6,29.7 -61.4,51 -102.2,65.9 -78.8,28.5 -137.3,-6.6 -205.1,-36.4 -9.2,-4 -60.7,-1.4 -41.5,15.6 62.6,55.8 166.5,75.5 247.1,52.6 110.9,-31.6 153.4,-114 237.4,-182.2 9.6,-7.8 -16,-11.1 -21.3,-8.1"
         style="fill:#050606;fill-opacity:1;fill-rule:nonzero;stroke:none"
         id="path874" />
      <path
         d="m 14204.637,19641.6 c -17.5,21.5 -35.7,46.8 -65.7,34.8 -18.2,-7.2 -34.8,-19.7 -51.8,-29.4 2.5,4.9 5.2,9.8 7.9,14.7 20.3,-43.9 -16.3,-70.3 -58,-71.7 -6.7,-0.2 -22.9,1.9 -23.3,11.4 -0.9,24.3 33,20.8 21.6,52.2 -2.5,7 1.6,12 7.9,14.8 62.6,28.7 163.8,72.2 191.9,-22.7 3.9,-13.2 -24.9,-11 -30.5,-4.1"
         style="fill:#050606;fill-opacity:1;fill-rule:nonzero;stroke:none"
         id="path876" />
      <path
         d="m 13358.737,19289.7 c -27.6,46.4 -110.1,21.5 -143.7,-4.3 -45.7,-35.1 -19.7,-90.8 -27.1,-137 -3.2,-19.4 -40.2,-17.3 -52.6,-10.7 -31.6,17 -21.9,75.6 -13.4,104.5 11.3,39 39,66.2 76.8,80.3 51.3,19.3 170.7,44.7 194.7,-28.1 4.7,-13.7 -29.1,-14 -34.7,-4.7"
         style="fill:#050606;fill-opacity:1;fill-rule:nonzero;stroke:none"
         id="path878" />
      <path
         d="m 13021.937,18912.4 c 9.2,-78.6 0,-150.2 -71.9,-194.5 -11.1,-6.8 -66.6,-7.8 -56.4,16.1 l 0.8,8.7 c -2.7,11.1 23.8,11.1 28.7,10.7 -8.6,0.7 -38.8,-7.1 -17.5,-1.1 5.8,1.8 11.6,1.6 17.5,1.1 13.1,-1 23.4,-5.5 32.1,-15.4 -19.3,0 -38.8,0 -58.3,0 66.8,43.8 65.5,101.8 74.1,174.4 2,17.6 48.9,17.6 50.9,0"
         style="fill:#050606;fill-opacity:1;fill-rule:nonzero;stroke:none"
         id="path880" />
      <path
         d="m 12844.837,18617.1 c -5.7,-49.9 -43.4,-168.5 12.4,-199.7 24.3,-13.5 -8.1,-26.2 -22,-25.9 -112.1,2.4 -70.5,173.8 -24.1,227.8 5.1,5.9 35.3,10.9 33.7,-2.2"
         style="fill:#050606;fill-opacity:1;fill-rule:nonzero;stroke:none"
         id="path882" />
      <path
         d="m 16633.137,18187.8 c 79.7,-64.4 129.5,-281.2 -16.2,-299.6 -8,-1 -31.2,-0.7 -31.6,11.8 -0.7,20.2 22.7,32.9 33.4,49 15.5,23.4 18.4,52.5 18.7,79.8 0.6,55.1 -23.1,104.1 -52.5,149 -11.4,17.3 39.4,17 48.2,10"
         style="fill:#050606;fill-opacity:1;fill-rule:nonzero;stroke:none"
         id="path884" />
      <path
         d="m 16613.837,17154.7 c -2.9,-69.6 -110.6,-86 -157.8,-53 -13,9 -17.1,24.1 -1,32.1 16.5,8 40.2,0 51.5,-13.1 17.4,-20.1 62.1,22.1 72.8,36.3 5.1,6.9 35,10.9 34.5,-2.3"
         style="fill:#050606;fill-opacity:1;fill-rule:nonzero;stroke:none"
         id="path886" />
      <path
         d="m 16597.937,17705.2 c 20.9,-25.1 31.9,-58.8 38,-90.6 5.3,-27.7 -17.9,-60.7 -33.1,-81.7 -29.5,-40.8 -78.2,-66.4 -127.3,-45.6 -4,1.6 -8.6,5.4 -8.6,10.2 l 2.9,10.7 c 2.9,5.4 12.7,5.6 17.8,4.9 39.7,-5 63.1,29.6 81.9,61.2 26.6,44.1 2.8,82.8 -3.6,128.8 -1.6,12.2 27.2,7.8 32,2.1"
         style="fill:#050606;fill-opacity:1;fill-rule:nonzero;stroke:none"
         id="path888" />
      <path
         d="m 16253.437,17895.7 c -60,-25.8 -127.5,-73.5 -193.3,-31.5 -40.7,26 -67.9,55.2 -93.3,95.8 -29.5,47 -46.3,100.2 -114,81.3 -14.4,-4 -70.4,10.9 -38.3,24.3 53.4,22.5 124.6,28.9 165.2,-21.6 25.7,-31.8 41.7,-69.8 63.5,-104.2 52.6,-83 121.6,-44.8 198.2,-34 4.9,0.7 23.8,-4.9 12,-10.1"
         style="fill:#050606;fill-opacity:1;fill-rule:nonzero;stroke:none"
         id="path890" />
      <path
         d="m 15879.937,17853.6 c -31,-27 -83.6,-16.5 -115.8,2.3 -27.9,16.2 -79.4,76.4 -45.7,106.1 9.4,8.4 30.6,7.8 40.2,0 12.7,-10.5 12.1,-20.1 16.4,-35.2 3.5,-12.7 10.4,-24.1 18.1,-34.6 15.4,-21.3 37.6,-32.8 63.2,-27.2 4.9,1.1 35.7,-0.7 23.6,-11.4"
         style="fill:#050606;fill-opacity:1;fill-rule:nonzero;stroke:none"
         id="path892" />
      <path
         d="m 15574.537,18296.9 c 35.4,55.2 -24.4,103.3 -52.3,144.5 v 6.7 l 1.6,2.7 c 3.3,5.4 12.1,6.9 17.8,6.6 67,-2.4 133.8,-119.5 77.1,-169.6 -8.2,-7.2 -54.2,-6.6 -44.2,9.1"
         style="fill:#050606;fill-opacity:1;fill-rule:nonzero;stroke:none"
         id="path894" />
      <path
         d="m 15398.137,18361.8 c -9,25.4 -23,50.8 -42.8,69.5 -10.5,9.9 -22.7,17.5 -35.3,24.3 -10.6,5.7 -21.3,8.1 -29.2,17.5 -9.6,11.2 21.1,16.7 25.8,16.6 33.4,-1.3 63.9,-21.6 87.1,-44.5 10.9,-10.8 19.9,-23.4 26.7,-37.1 8.3,-16.7 6.4,-29.4 1.6,-46.3 -2.6,-9.4 -30.8,-8.8 -33.9,0"
         style="fill:#050606;fill-opacity:1;fill-rule:nonzero;stroke:none"
         id="path896" />
      <path
         d="m 17240.437,17182.8 c 4.9,-44 9.4,-82.5 -7.3,-124.7 -14.2,-36.1 -46.4,-71.6 -85.4,-77.5 l -14,3.9 c -5.3,13.4 2.9,19.3 12.8,28.4 14.1,12.9 26.1,28.1 36.3,44.4 22.1,35 29.7,85 34.8,125.5 1,7.9 22,8 22.8,0"
         style="fill:#050606;fill-opacity:1;fill-rule:nonzero;stroke:none"
         id="path898" />
      <path
         d="m 17027.037,16939.4 c -79.3,-32.1 -153.3,-77.2 -228.7,-117.6 -15.5,-8.2 -65.3,6.2 -38.5,18.9 83.2,39.7 163.2,82.1 251.9,108.5 6,1.8 28.3,-4.6 15.3,-9.8"
         style="fill:#050606;fill-opacity:1;fill-rule:nonzero;stroke:none"
         id="path900" />
      <path
         d="m 13013.637,19207.7 c -5.1,-29.8 -1.3,-60.9 1.4,-90.8 1.9,-18.5 8.1,-42.6 -18.8,-42.6 -25.2,0 -25.5,23.2 -27.1,42.6 -2.7,31.1 -1.6,64 10.7,93.1 3.9,8.8 35.7,8.5 33.8,-2.3"
         style="fill:#050606;fill-opacity:1;fill-rule:nonzero;stroke:none"
         id="path902" />
      <path
         d="m 13853.037,18290 c -42.2,-46.1 -102.1,-74.8 -163.3,-84.4 -51.3,-8.2 -134.7,7.9 -159.7,58 -5,10 18.2,10 22.6,8.6 49.4,-16.1 92.1,-46.4 146.7,-35 46.6,9.7 87.9,41.4 130.3,61.7 5.6,2.7 33.3,1.9 23.4,-8.9"
         style="fill:#050606;fill-opacity:1;fill-rule:nonzero;stroke:none"
         id="path904" />
      <path
         d="m 13318.737,18275.3 c -29.1,23.8 -61.8,31.2 -97.9,37.6 -16.8,3 -62.7,1.7 -70,21 -1.8,4.9 3.1,7 6.9,8.3 29.1,10.6 72.5,-2.4 101.6,-10 34.4,-8.9 65.3,-21.8 89.8,-48.2 11.4,-12.3 -22.8,-14.9 -30.4,-8.7"
         style="fill:#050606;fill-opacity:1;fill-rule:nonzero;stroke:none"
         id="path906" />
      <path
         d="m 12902.637,18229.4 c 5.1,1 5.3,2.1 2.2,-0.6 l 1.9,7.3 0.5,-1.3 -2.2,-8.3 c -22.9,-21.1 -37.8,-50.4 -65.7,-65.9 -14.8,-8.3 -37.5,-9.3 -52.7,-1.7 -16.1,8.3 -28.1,24.9 -12.1,39.5 4.9,4.5 14.4,3.8 20,1.3 6.8,-3 17.5,-8.1 21.3,-14.8 l 5.7,-8.1 c -7.2,7 -24.5,-2.9 -14.5,2.3 11.2,5.9 20.5,18.3 28.9,27.5 9.2,10.2 17.9,20.6 28.7,29.1 l 10.2,5.6 c 16.6,4.8 -4.6,-2.5 4.5,1.1 6.2,2.3 12.2,3.5 18.7,3.5 15.9,-0.2 23.7,-12.7 4.6,-16.5"
         style="fill:#050606;fill-opacity:1;fill-rule:nonzero;stroke:none"
         id="path908" />
      <path
         d="m 15088.537,19091.8 c -3.5,-5.4 -7.2,-9.9 -11.7,-14.4 -5.5,-5.5 -21.2,-5.5 -26.6,0 -4.5,4.5 -8.2,9 -11.6,14.4 -13.6,21.2 63.5,21.2 49.9,0"
         style="fill:#050606;fill-opacity:1;fill-rule:nonzero;stroke:none"
         id="path910" />
      <path
         d="m 15176.037,18884.8 c -33.2,0 -33.2,27.1 0,27.1 33.2,0 33.2,-27.1 0,-27.1"
         style="fill:#050606;fill-opacity:1;fill-rule:nonzero;stroke:none"
         id="path912" />
      <path
         d="m 15527.537,18788.8 c -27.3,0 -27.3,22.3 0,22.3 27.5,0 27.5,-22.3 0,-22.3"
         style="fill:#050606;fill-opacity:1;fill-rule:nonzero;stroke:none"
         id="path914" />
      <path
         d="m 15764.837,18518.8 c 1.3,4.6 1.6,10.4 4.6,14.4 l -1.1,13.6 c 1.6,7 13.4,6.8 18.5,5.2 9.4,-2.8 17.6,-6.9 25.5,-12.6 7.8,-5.8 9.8,-11.5 12.3,-20.6 3.1,-11.7 -24.1,-14.7 -30,-14.7 -5.7,0 -32.9,2.9 -29.8,14.7"
         style="fill:#050606;fill-opacity:1;fill-rule:nonzero;stroke:none"
         id="path916" />
      <path
         d="m 16160.337,18439.6 c -21.6,0 -21.6,17.6 0,17.6 21.6,0 21.6,-17.6 0,-17.6"
         style="fill:#050606;fill-opacity:1;fill-rule:nonzero;stroke:none"
         id="path918" />
      <path
         d="m 15891.937,18305.7 c -3.9,4.7 -7.9,9 -10.7,14.5 -4.1,8.6 16.8,8.2 20.6,5.9 7,-4.3 12.9,-9.1 19.1,-14.4 9.9,-8.6 -20.8,-15.6 -29,-6"
         style="fill:#050606;fill-opacity:1;fill-rule:nonzero;stroke:none"
         id="path920" />
      <path
         d="m 15085.537,18698.5 v -0.5 l -11.9,-10.3 v 0.4 l 3.3,-5.9 c -4.5,4.4 -8.5,9.1 -6.9,15.8 3.6,16.2 34.9,12.8 43.2,2.9 3.8,-4.5 11.1,-9.6 7.9,-16.3 -5.5,-11.1 -26,-8.8 -35.6,-8.2 -5.6,0.4 -17.2,3.7 -17.2,11.1 0,7.3 11.6,10.6 17.2,11"
         style="fill:#050606;fill-opacity:1;fill-rule:nonzero;stroke:none"
         id="path922" />
      <path
         d="m 14937.037,18396.8 c -9.2,0.3 -22,-0.3 -28.4,7.6 l 3.3,17.4 c 2.5,5.9 19.5,5.9 22,0 l 3.8,-8.2 c -1.9,3.7 -12.8,1.6 -0.7,2.1 5.4,0.2 19.2,-1.7 19.2,-9.5 0,-7.8 -13.8,-9.7 -19.2,-9.4"
         style="fill:#050606;fill-opacity:1;fill-rule:nonzero;stroke:none"
         id="path924" />
      <path
         d="m 14711.437,18614.4 9.6,-3.5 c 8.2,-3.5 8.2,-12.2 0,-15.7 l -9.6,-3.4 c -8.7,-2.9 -40.3,-4.2 -40.3,11.3 0,15.4 31.6,14.1 40.3,11.3"
         style="fill:#050606;fill-opacity:1;fill-rule:nonzero;stroke:none"
         id="path926" />
      <path
         d="m 14810.237,19102.3 -7.3,3.4 v 7.2 l 7.3,3.4 c 6.9,3.2 34.5,6.3 34.5,-7 0,-13.3 -27.6,-10.2 -34.5,-7"
         style="fill:#050606;fill-opacity:1;fill-rule:nonzero;stroke:none"
         id="path928" />
      <path
         d="m 14872.937,19345.5 5.1,-0.4 c 20.4,-1.5 20.4,-20.1 0,-21.6 l -5.1,-0.4 c -35.6,-2.7 -35.6,25 0,22.4"
         style="fill:#050606;fill-opacity:1;fill-rule:nonzero;stroke:none"
         id="path930" />
      <path
         d="m 14866.637,18858.4 c -29,0 -29,23.7 0,23.7 29,0 29,-23.7 0,-23.7"
         style="fill:#050606;fill-opacity:1;fill-rule:nonzero;stroke:none"
         id="path932" />
      <path
         d="m 14551.637,19116.9 -11.4,-10.7 c -4.7,-4.6 -17.4,-4.6 -22,0 l -11.4,10.7 c -25.5,24.3 70.2,24.3 44.8,0"
         style="fill:#050606;fill-opacity:1;fill-rule:nonzero;stroke:none"
         id="path934" />
      <path
         d="m 14592.337,18915.3 4.7,9.9 c 5.7,12.6 39.4,3.2 33.2,-4.5 l -7.8,-9.5 h -17.8 l -7.6,9.5 c -6.2,7.7 27.3,17.1 33.2,4.5 l 4.5,-9.9 c 8.6,-18.5 -51,-18.5 -42.4,0"
         style="fill:#050606;fill-opacity:1;fill-rule:nonzero;stroke:none"
         id="path936" />
      <path
         d="m 14450.837,18625.4 -11.4,-10.7 h -17.4 l -11.4,10.7 c -21.6,22.1 61.9,22.1 40.2,0"
         style="fill:#050606;fill-opacity:1;fill-rule:nonzero;stroke:none"
         id="path938" />
      <path
         d="m 14563.437,18367 c 1.8,5.2 5.5,8.3 8,13 4.1,7.5 23.9,7.5 28,0 2.5,-4.7 6.1,-7.8 8.1,-13 7,-19.5 -51.1,-19.5 -44.1,0"
         style="fill:#050606;fill-opacity:1;fill-rule:nonzero;stroke:none"
         id="path940" />
      <path
         d="m 14230.237,18431.9 c -3.3,5.6 -4.7,10.2 -5.6,16.5 -0.7,6.1 13.1,4.3 15.8,3.2 8.5,-3.7 15.8,-7.7 23.4,-12.7 7.4,-4.9 -2,-11 -6.5,-12.3 -7.5,-2.2 -22.5,-2.8 -27.1,5.3"
         style="fill:#050606;fill-opacity:1;fill-rule:nonzero;stroke:none"
         id="path942" />
      <path
         d="m 14177.737,18845.4 c -26.5,0 -26.5,21.5 0,21.5 26.2,0 26.2,-21.5 0,-21.5"
         style="fill:#050606;fill-opacity:1;fill-rule:nonzero;stroke:none"
         id="path944" />
      <path
         d="m 14276.037,19071.1 c -24.7,0 -24.7,20.2 0,20.2 24.9,0 24.9,-20.2 0,-20.2"
         style="fill:#050606;fill-opacity:1;fill-rule:nonzero;stroke:none"
         id="path946" />
      <path
         d="m 14374.537,18946 c -21.1,0 -21.1,17.2 0,17.2 21.1,0 21.1,-17.2 0,-17.2"
         style="fill:#050606;fill-opacity:1;fill-rule:nonzero;stroke:none"
         id="path948" />
      <path
         d="m 15752.537,18722.5 c -17.3,0 -17.3,14.3 0,14.3 17.5,0 17.5,-14.3 0,-14.3"
         style="fill:#050606;fill-opacity:1;fill-rule:nonzero;stroke:none"
         id="path950" />
      <path
         d="m 16174.437,18286.2 c -18.4,0 -18.4,15.1 0,15.1 18.4,0 18.4,-15.1 0,-15.1"
         style="fill:#050606;fill-opacity:1;fill-rule:nonzero;stroke:none"
         id="path952" />
      <path
         d="m 16399.337,18118.3 c -16.3,0 -16.3,13.3 0,13.3 16.4,0 16.4,-13.3 0,-13.3"
         style="fill:#050606;fill-opacity:1;fill-rule:nonzero;stroke:none"
         id="path954" />
      <path
         d="m 15794.637,18158.6 c -21,0 -21,17.2 0,17.2 21.2,0 21.2,-17.2 0,-17.2"
         style="fill:#050606;fill-opacity:1;fill-rule:nonzero;stroke:none"
         id="path956" />
      <path
         d="m 15991.637,18648.8 c -25.8,0 -25.8,21.1 0,21.1 25.8,0 25.8,-21.1 0,-21.1"
         style="fill:#050606;fill-opacity:1;fill-rule:nonzero;stroke:none"
         id="path958" />
      <path
         d="m 15400.937,18974.5 c -19.9,0 -19.9,16.4 0,16.4 20.1,0 20.1,-16.4 0,-16.4"
         style="fill:#050606;fill-opacity:1;fill-rule:nonzero;stroke:none"
         id="path960" />
      <path
         d="m 14441.437,19261.6 c -2.6,5 -5.3,9.9 -8,14.9 -5,8.9 17.9,6.8 21.7,4.4 6.4,-4.1 12.9,-8.3 19.3,-12.5 7.3,-4.7 -2.2,-10.8 -6.4,-12.1 -7.2,-2 -22.2,-2.6 -26.6,5.3"
         style="fill:#050606;fill-opacity:1;fill-rule:nonzero;stroke:none"
         id="path962" />
      <path
         d="m 14697.937,19282.2 c -24.3,0 -24.3,19.8 0,19.8 24.2,0 24.2,-19.8 0,-19.8"
         style="fill:#050606;fill-opacity:1;fill-rule:nonzero;stroke:none"
         id="path964" />
      <path
         d="m 14107.337,19395.6 c -22.1,0 -22.1,18 0,18 22.2,0 22.2,-18 0,-18"
         style="fill:#050606;fill-opacity:1;fill-rule:nonzero;stroke:none"
         id="path966" />
      <path
         d="m 14195.737,19249.9 c -1,4.7 -1.9,9.4 -2.7,14.1 -1.6,8.2 18.4,6 21.7,4.4 7.5,-3.4 14.8,-6.7 22.1,-10.2 12.8,-5.7 5,-15.7 -4.9,-18.5 -9.8,-2.9 -33.6,-3.6 -36.2,10.2"
         style="fill:#050606;fill-opacity:1;fill-rule:nonzero;stroke:none"
         id="path968" />
      <path
         d="m 14051.037,19113.7 c -23.6,0 -23.6,19.4 0,19.4 23.7,0 23.7,-19.4 0,-19.4"
         style="fill:#050606;fill-opacity:1;fill-rule:nonzero;stroke:none"
         id="path970" />
      <path
         d="m 13882.337,19365.9 c -25.7,0 -25.7,21.1 0,21.1 25.8,0 25.8,-21.1 0,-21.1"
         style="fill:#050606;fill-opacity:1;fill-rule:nonzero;stroke:none"
         id="path972" />
      <path
         d="m 13966.737,19002.5 c -20.5,0 -20.5,16.8 0,16.8 20.5,0 20.5,-16.8 0,-16.8"
         style="fill:#050606;fill-opacity:1;fill-rule:nonzero;stroke:none"
         id="path974" />
      <path
         d="m 14057.137,18766.1 -11.8,-10.7 h -16.7 l -11.7,10.7 c -22.7,21.8 62.9,21.8 40.2,0"
         style="fill:#050606;fill-opacity:1;fill-rule:nonzero;stroke:none"
         id="path976" />
      <path
         d="m 13999.437,18543.9 c -29.9,0 -29.9,24.6 0,24.6 30.1,0 30.1,-24.6 0,-24.6"
         style="fill:#050606;fill-opacity:1;fill-rule:nonzero;stroke:none"
         id="path978" />
      <path
         d="m 14187.037,18622.6 c -21.1,0 -21.1,17.2 0,17.2 21,0 21,-17.2 0,-17.2"
         style="fill:#050606;fill-opacity:1;fill-rule:nonzero;stroke:none"
         id="path980" />
      <path
         d="m 14919.337,18628.5 -7.5,-8.3 c -4.8,-6.6 -19.9,-6.6 -24.7,0 l -7.6,8.3 c -7.8,17.4 47.7,17.4 39.8,0"
         style="fill:#050606;fill-opacity:1;fill-rule:nonzero;stroke:none"
         id="path982" />
      <path
         d="m 14757.737,18307.1 9.9,10.9 c 10.2,7.7 28.6,7.7 38.8,0 l 9.8,-10.9 c 15.5,-24.9 -73.9,-24.9 -58.5,0"
         style="fill:#050606;fill-opacity:1;fill-rule:nonzero;stroke:none"
         id="path984" />
      <path
         d="m 15443.237,18649.7 c -23.7,0 -23.7,19.3 0,19.3 23.6,0 23.6,-19.3 0,-19.3"
         style="fill:#050606;fill-opacity:1;fill-rule:nonzero;stroke:none"
         id="path986" />
      <path
         d="m 16057.337,18125 c 1.1,9.8 1.3,16.7 10,22.5 7.8,5.1 18.9,5.1 26.6,0 8.8,-5.8 9,-12.7 10,-22.5 1.7,-15.9 -48.2,-15.9 -46.6,0"
         style="fill:#050606;fill-opacity:1;fill-rule:nonzero;stroke:none"
         id="path988" />
      <path
         d="m 16367.437,18380.6 -8.8,1.1 c -10.9,1.3 -10.9,10.3 0,11.6 l 8.8,1.1 c 4.4,0.5 18.4,0.4 18.4,-6.9 0,-7.3 -14,-7.4 -18.4,-6.9"
         style="fill:#050606;fill-opacity:1;fill-rule:nonzero;stroke:none"
         id="path990" />
      <path
         d="m 15077.637,19353.8 c -21.1,0 -21.1,17.2 0,17.2 21.1,0 21.1,-17.2 0,-17.2"
         style="fill:#050606;fill-opacity:1;fill-rule:nonzero;stroke:none"
         id="path992" />
      <path
         d="m 15199.437,19251.6 c -18.9,0 -18.9,15.4 0,15.4 19,0 19,-15.4 0,-15.4"
         style="fill:#050606;fill-opacity:1;fill-rule:nonzero;stroke:none"
         id="path994" />
      <path
         d="m 13942.837,19247.5 c -2.5,-6.3 -1.4,-8.9 1.3,-15 3.3,-7.4 -14.2,-7 -17.7,-5 -9.3,5.6 -16.1,9.6 -20.1,20 -6.2,15.9 42.5,16.2 36.5,0"
         style="fill:#050606;fill-opacity:1;fill-rule:nonzero;stroke:none"
         id="path996" />
      <path
         d="m 13840.137,18986.3 c -25.7,0 -25.7,21 0,21 25.8,0 25.8,-21 0,-21"
         style="fill:#050606;fill-opacity:1;fill-rule:nonzero;stroke:none"
         id="path998" />
      <path
         d="m 13933.937,18800.3 c -22.1,0 -22.1,18.1 0,18.1 22.2,0 22.2,-18.1 0,-18.1"
         style="fill:#050606;fill-opacity:1;fill-rule:nonzero;stroke:none"
         id="path1000" />
      <path
         d="m 13920.137,18388.9 -8.5,1.7 c -11.7,2.3 -11.7,10.1 0,12.5 l 8.5,1.6 c 5.1,1 21.1,0.3 21.1,-7.9 0,-8.1 -16,-8.9 -21.1,-7.9"
         style="fill:#050606;fill-opacity:1;fill-rule:nonzero;stroke:none"
         id="path1002" />
      <path
         d="m 14065.137,18367.5 c -25.8,0 -25.8,21.1 0,21.1 25.8,0 25.8,-21.1 0,-21.1"
         style="fill:#050606;fill-opacity:1;fill-rule:nonzero;stroke:none"
         id="path1004" />
      <path
         d="m 13794.537,18673.7 c 14.2,10.2 20.8,10.2 35,0 12.1,-8.8 -12.5,-14.9 -17.6,-14.9 -4.9,0 -29.5,6.1 -17.4,14.9"
         style="fill:#050606;fill-opacity:1;fill-rule:nonzero;stroke:none"
         id="path1006" />
      <path
         d="m 13774.537,18470.6 c -25.8,0 -25.8,21.1 0,21.1 25.8,0 25.8,-21.1 0,-21.1"
         style="fill:#050606;fill-opacity:1;fill-rule:nonzero;stroke:none"
         id="path1008" />
      <path
         d="m 13574.737,18417.6 h -2.5 c -7.4,-2.7 -14.8,-5.5 -22.2,-8.3 l 0.3,0.4 v -6 c -3.4,6.9 -3.2,11.3 3.3,16.1 6.6,5.1 19.4,6.1 26.8,1.7 l 11.8,-9.1 3.1,-5.7 -0.1,-0.3 c -0.8,-5.7 -6.3,-8.4 -11.4,-9.8 l -9.1,-1.8 c -7.4,-1.1 -30.6,-0.6 -30.6,11.4 0,12.1 23.2,12.5 30.6,11.4"
         style="fill:#050606;fill-opacity:1;fill-rule:nonzero;stroke:none"
         id="path1010" />
      <path
         d="m 13699.637,19246.8 c -30.7,0 -30.7,25 0,25 30.5,0 30.5,-25 0,-25"
         style="fill:#050606;fill-opacity:1;fill-rule:nonzero;stroke:none"
         id="path1012" />
      <path
         d="m 13568.337,19447.1 c -22.2,0 -22.2,18.1 0,18.1 22.1,0 22.1,-18.1 0,-18.1"
         style="fill:#050606;fill-opacity:1;fill-rule:nonzero;stroke:none"
         id="path1014" />
      <path
         d="m 13406.737,17058.5 c 77,-225 38.4,-475.4 43.6,-710.8 3,-134.9 7.8,-269.8 12.7,-404.7 5.5,-150.5 31.4,-300.2 -7,-447.6 -1.7,-6.6 -17.5,-6.6 -19.2,0 -67.7,255.7 -65.3,538.2 -72.7,801.4 -3.6,132.2 -4.2,264.2 0.7,396.4 4.6,119.9 -9.7,244.7 8.2,363.1 1.6,10.9 30.3,12.1 33.7,2.2"
         style="fill:#ffffff;fill-opacity:1;fill-rule:nonzero;stroke:none"
         id="path1016" />
      <path
         d="m 14575.637,13278.7 c -178.7,29.5 -375.9,21.6 -557.5,37.8 -66,5.9 -254.9,0.5 -290.3,69.3 -13,25.4 46.3,24.2 56.8,21.5 131.5,-34.8 265.7,-45.7 400.7,-60.3 79.3,-8.5 158.5,-16.3 238,-22.6 61.2,-4.8 118.8,2.4 171.1,-29.9 16.8,-10.5 -9.9,-17.3 -18.8,-15.8"
         style="fill:#ffffff;fill-opacity:1;fill-rule:nonzero;stroke:none"
         id="path1018" />
      <path
         d="m 16140.337,15050.2 c 15.9,-231.5 -38.5,-459.5 -57.8,-689.1 -5.2,-61 -5.8,-289.2 -73.9,-324.7 -13.4,-7 -36.2,-6.7 -48.2,3 -37.3,30.2 38.5,279 43.4,321.7 26.3,231.5 86.7,456.8 111,689.1 0.9,8.7 24.8,8.8 25.5,0"
         style="fill:#ffffff;fill-opacity:1;fill-rule:nonzero;stroke:none"
         id="path1020" />
      <path
         d="m 15826.037,13519.4 -2.1,3.3 c 17.8,1.2 35.5,2.4 53.3,3.6 -4,-40.8 -178.2,-54.9 -219.8,-62.5 -71.9,-13.2 -185.5,-46.6 -255.6,-12 -48.8,24.1 29,46 50.6,42.6 130.4,-20.4 267.2,46 397.7,45.2 16.3,-0.1 42.2,-18.2 13.7,-24.8 l -6.9,-1.6 c -8.8,-2.1 -25.3,-3.3 -30.9,6.2"
         style="fill:#ffffff;fill-opacity:1;fill-rule:nonzero;stroke:none"
         id="path1022" />
      <path
         d="m 15463.137,17208.9 c 64.1,-169.9 29.9,-396.6 23.9,-575.5 -6.6,-195.3 4.9,-404.3 -62.2,-590.9 -2,-5.5 -19.6,-5.3 -19.9,1.4 -7.1,195.1 -13.1,394.2 -9,589.5 4,189 36.9,384.8 26.6,572.9 -0.7,13.4 36.5,13.5 40.6,2.6"
         style="fill:#ffffff;fill-opacity:1;fill-rule:nonzero;stroke:none"
         id="path1024" />
      <path
         d="m 14687.737,13505.9 c -63.9,-7.6 -120.2,-19.9 -185.3,-21.3 -27.2,-0.7 -55.8,-3.8 -82.8,0.6 -30,4.8 -77.7,23.2 -106.9,11.9 -16.3,-6.2 -67.2,-14.8 -75.5,9.8 -3.6,10.6 -3.5,12.2 -1.4,24.6 3.9,22.9 53.5,22.3 66.3,8.8 5,-6.5 10.9,-11.9 17.7,-16.4 -23.7,1.5 -47.4,3 -70.9,4.5 61.1,26.4 119.9,14 182.5,-1.5 85.1,-21 178.8,19.9 259.8,-8 11.3,-3.9 6.2,-11.8 -3.5,-13"
         style="fill:#ffffff;fill-opacity:1;fill-rule:nonzero;stroke:none"
         id="path1026" />
      <path
         d="m 13749.137,14253.3 c 21.6,-118.1 22.2,-239.5 38.7,-358.6 7.5,-54.8 12.1,-117.5 32.9,-169.1 11.6,-28.7 27.7,-54 29.5,-85.3 0.7,-13 -20.3,-16.7 -28.8,-18.5 l -10.3,-2.1 c -8,-1.7 -42.2,-0.3 -40.1,14.9 3.8,27.2 -16.5,57.1 -28,80.5 -20.9,42.4 -25.2,93.8 -32.2,139.8 -20.2,131.6 -28.3,266.9 -4.7,398.4 2.7,14.9 40.4,14.9 43,0"
         style="fill:#ffffff;fill-opacity:1;fill-rule:nonzero;stroke:none"
         id="path1028" />
      <path
         d="m 14699.337,17289.4 c -124.1,27.4 -303.3,-15 -434.4,-21.8 -79.4,-4.1 -185.6,-18.1 -260,18.6 -51.5,25.4 44.5,49 72.5,35.6 78.6,-37.6 232,-4 317.4,-0.5 108.6,4.4 233.7,38.8 334.8,-12.6 25.9,-13.1 -19.9,-21.6 -30.3,-19.3"
         style="fill:#ffffff;fill-opacity:1;fill-rule:nonzero;stroke:none"
         id="path1030" />
    </g>
  </g>
</svg>
