<?xml version="1.0" encoding="UTF-8"?><svg id="Layer_2" xmlns="http://www.w3.org/2000/svg" viewBox="0 0 380.91 380.91"><defs><style>.cls-1{fill:#fff;}.cls-2{fill:#3b2e2c;}</style></defs><g id="Layer_6"><circle class="cls-2" cx="190.46" cy="190.46" r="190.46"/></g><g id="Layer_2-2"><path class="cls-1" d="m192.65,337.75c-81.73,0-148.23-66.5-148.23-148.23-.02-.44-1.87-51.26,31.52-92.13l2.32,1.9c-32.68,39.99-30.87,89.67-30.85,90.16,0,80.15,65.15,145.3,145.23,145.3s145.23-65.15,145.23-145.23c.02-.6,1.66-54.62-30.74-90.17l2.22-2.02c33.24,36.47,31.54,91.69,31.52,92.25,0,81.68-66.49,148.17-148.23,148.17Z"/><path class="cls-1" d="m192.32,347.01c-85.82,0-155.65-70.52-155.65-157.2-.02-.47-1.96-54.36,33.1-97.7l2.33,1.89c-34.35,42.47-32.45,95.22-32.43,95.74,0,85.09,68.48,154.27,152.65,154.27s152.65-69.17,152.65-154.2c.02-.63,1.75-57.99-32.32-95.75l2.23-2.01c34.9,38.68,33.11,97.23,33.09,97.82,0,86.62-69.82,157.15-155.64,157.15Z"/></g><g id="Layer_5"><g><path class="cls-1" d="m129.89,278.92c1.95,0,3.56.81,3.56,2.94v.3c0,1.32-.72,2.05-1.74,2.42,1.19.36,2.04,1.16,2.04,2.66v.3c0,2.22-1.65,3.09-3.61,3.09h-3.21v-11.7h2.97Zm-1.89.98v4.23h1.94c1.3,0,2.4-.54,2.4-2v-.24c0-1.46-1.1-2-2.4-2h-1.94Zm0,5.21v4.54h2.21c1.32,0,2.43-.63,2.43-2.16v-.23c0-1.53-1.11-2.16-2.43-2.16h-2.21Z"/><path class="cls-1" d="m140.24,278.8l3.37,11.82h-1.17l-.84-3h-4.27l-.84,3h-1.17l3.38-11.82h1.54Zm-2.64,7.84h3.72l-1.86-6.66-1.86,6.66Z"/><path class="cls-1" d="m145.1,285.07v-.6c0-4.05,1.44-5.71,4.11-5.71,2.5,0,3.72,1.37,3.72,4v.42h-1.09c0-2.42-.74-3.45-2.54-3.45h-.09c-1.98,0-2.98,1.41-2.98,4.74v.6c0,3.33.96,4.74,3.1,4.74h.1c1.18,0,1.99-.45,2.41-.9v-3.09h-2.01v-.96h3.09v4.57c-.63.66-1.71,1.35-3.57,1.35-2.82,0-4.26-1.67-4.26-5.71Z"/><path class="cls-1" d="m161.97,278.92v.98h-5.44v4.27h4.69v.96h-4.69v4.51h5.44v.98h-6.52v-11.7h6.52Z"/><path class="cls-1" d="m165.14,290.62h-1.08v-11.7h3.24c1.67,0,3.58.63,3.58,3.33v.3c0,1.86-.92,2.73-2.02,3.09l2.02,4.98h-1.19l-1.86-4.77c-.18.02-.36.02-.54.02h-2.16v4.75Zm2.19-5.73c1,0,2.44-.38,2.44-2.38v-.22c0-2.01-1.44-2.38-2.44-2.38h-2.19v4.99h2.19Z"/><path class="cls-1" d="m174.35,290.62h-1.08v-11.7h1.08v11.7Z"/><path class="cls-1" d="m179.91,287.57v-.15c0-1.5.89-2.42,1.9-3.13-.94-1.04-1.5-1.77-1.5-2.96v-.15c0-1.38.96-2.43,2.77-2.43s2.79,1.05,2.79,2.43v.15c0,1.47-1.3,2.28-2.55,3.09l3.19,3.46c.39-.76.63-1.8.63-3.13v-.04h1.1c0,1.7-.38,3.01-.99,3.99l1.77,1.92h-1.36l-1.05-1.12c-.88.87-2.05,1.29-3.36,1.29-2.07,0-3.34-1.19-3.34-3.21Zm3.5,2.23c.92,0,1.83-.31,2.52-1.06l-3.43-3.74c-.84.62-1.5,1.32-1.5,2.37v.13c0,1.37.73,2.29,2.32,2.29h.09Zm-2.01-8.47c0,.95.56,1.65,1.26,2.38,1.11-.7,2.13-1.33,2.13-2.38v-.13c0-.78-.54-1.49-1.64-1.49h-.1c-1.09,0-1.65.71-1.65,1.49v.13Z"/><path class="cls-1" d="m193.77,282.04v-.15c0-1.95,1.45-3.14,3.67-3.14,2.61,0,3.69,1.35,3.69,3.77v.36h-1.08c0-2.22-.78-3.15-2.56-3.15h-.1c-1.43,0-2.5.76-2.5,2.02v.12c0,1.25.65,1.98,2.79,2.28,2.55.34,3.6,1.38,3.6,3.18v.15c0,2.07-1.49,3.3-3.82,3.3-2.48,0-3.81-1.41-3.81-3.83v-.15h1.08c0,2.06,1.11,3,2.68,3h.1c1.59,0,2.65-.82,2.65-2.25v-.13c0-1.38-.85-2.07-2.89-2.35-2.55-.34-3.49-1.49-3.49-3.03Z"/><path class="cls-1" d="m204.53,290.62h-1.08v-11.7h3.24c1.67,0,3.58.63,3.58,3.33v.3c0,2.69-1.92,3.32-3.58,3.32h-2.16v4.75Zm2.19-5.73c1,0,2.44-.38,2.44-2.38v-.22c0-2.01-1.44-2.38-2.44-2.38h-2.19v4.99h2.19Z"/><path class="cls-1" d="m213.57,290.62h-1.08v-11.7h1.08v11.7Z"/><path class="cls-1" d="m215.96,282.04v-.15c0-1.95,1.46-3.14,3.67-3.14,2.61,0,3.69,1.35,3.69,3.77v.36h-1.08c0-2.22-.78-3.15-2.57-3.15h-.1c-1.43,0-2.5.76-2.5,2.02v.12c0,1.25.64,1.98,2.79,2.28,2.55.34,3.6,1.38,3.6,3.18v.15c0,2.07-1.49,3.3-3.83,3.3-2.47,0-3.81-1.41-3.81-3.83v-.15h1.08c0,2.06,1.11,3,2.68,3h.1c1.59,0,2.66-.82,2.66-2.25v-.13c0-1.38-.85-2.07-2.89-2.35-2.55-.34-3.5-1.49-3.5-3.03Z"/><path class="cls-1" d="m232.16,278.92v.98h-5.45v4.27h4.7v.96h-4.7v4.51h5.45v.98h-6.53v-11.7h6.53Z"/><path class="cls-1" d="m233.96,282.04v-.15c0-1.95,1.46-3.14,3.67-3.14,2.61,0,3.69,1.35,3.69,3.77v.36h-1.08c0-2.22-.78-3.15-2.57-3.15h-.1c-1.43,0-2.5.76-2.5,2.02v.12c0,1.25.64,1.98,2.79,2.28,2.55.34,3.6,1.38,3.6,3.18v.15c0,2.07-1.49,3.3-3.83,3.3-2.47,0-3.81-1.41-3.81-3.83v-.15h1.08c0,2.06,1.11,3,2.68,3h.1c1.59,0,2.66-.82,2.66-2.25v-.13c0-1.38-.85-2.07-2.89-2.35-2.55-.34-3.5-1.49-3.5-3.03Z"/><path class="cls-1" d="m246.92,290.62h-1.08v-10.72h-2.97v-.98h7.04v.98h-2.99v10.72Z"/><path class="cls-1" d="m258.26,278.92v.98h-5.44v4.27h4.69v.96h-4.69v4.51h5.44v.98h-6.52v-11.7h6.52Z"/><path class="cls-1" d="m263.43,290.62h-3.09v-11.7h3.09c2.85,0,4.53,1.5,4.53,5.55v.6c0,4.05-1.68,5.55-4.53,5.55Zm-.09-.98c2.25,0,3.51-1.24,3.51-4.57v-.6c0-3.33-1.26-4.57-3.51-4.57h-1.92v9.75h1.92Z"/></g></g><g id="Layer_3"><g><path class="cls-1" d="m197.8,269.52c-38.43,0-69.7-37.78-69.7-84.22s31.27-84.22,69.7-84.22,69.7,37.78,69.7,84.22-31.27,84.22-69.7,84.22Zm0-165.44c-36.78,0-66.7,36.44-66.7,81.22s29.92,81.22,66.7,81.22,66.7-36.43,66.7-81.22-29.92-81.22-66.7-81.22Z"/><path class="cls-1" d="m177.78,105.74c-24.48,26.51-40.21,64.3-31.48,100.39,4.86,21.54,17.05,40.54,31.48,57.12-2.57-2.65-5.17-5.27-7.66-8.01-6.1-6.95-11.69-14.49-16.28-22.52-.93-1.81-2.97-5.71-3.84-7.45-1.05-2.52-2.27-5.22-3.23-7.75-3.78-10.52-6.04-21.78-5.88-33,.29-29.92,15.26-58.68,36.88-78.78h0Z"/><path class="cls-1" d="m230.83,111.52c-35.85,11.15-64.65,38.14-63.94,77.7.5,28.51,12.73,55.22,26.27,79.81-15.47-23.75-28.57-50.86-29.2-79.78-.91-40.64,29.13-68.87,66.87-77.73h0Z"/><path class="cls-1" d="m228.57,237.48c-.03-.16.04-.3.07-.43.51-1.65,1.24-3.23,2.08-4.74,2.89-5.32,7.86-9.24,13.56-11.19.04,2.41-.2,4.86-1.26,7.09-.92,1.82-2.21,3.43-3.76,4.7-2.87,2.33-6.29,3.8-9.89,4.5-.23.02-.59.13-.81.08h0Zm.14-.14s.04-.09.06-.1c.1-.05.38-.18.48-.23,5.99-2.96,13.03-7.36,13.44-14.72,0,0,1.04.75,1.04.75-6.92,2.07-12.32,7.76-15.02,14.3h0Z"/><path class="cls-1" d="m232.17,219.36c-.06-.15-.01-.3,0-.44.22-1.72.67-3.39,1.24-5.03,1.94-5.73,6.16-10.45,11.45-13.34.45,2.36.64,4.83-.03,7.2-.59,1.95-1.59,3.76-2.9,5.27-2.43,2.79-5.55,4.82-8.97,6.12-.22.06-.56.23-.79.21h0Zm.12-.16c.04-.05.02-.09.05-.11.09-.06.34-.24.43-.31,5.4-3.94,11.58-9.48,10.72-16.8,0,0,1.15.56,1.15.56-6.47,3.22-10.81,9.75-12.36,16.66h0Z"/><path class="cls-1" d="m234.53,200.53c-.06-.15-.03-.36-.02-.51.34-4.32,1.43-8.56,3.23-12.51,2.05-4.55,5.5-8.35,9.67-11.09,0,0,.17,1.28.17,1.28.85,4.67.25,9.8-2.4,13.82-2.39,3.75-5.8,6.71-9.75,8.66-.25.09-.62.33-.9.34h0Zm.11-.17c.05-.07.02-.1.07-.13.1-.08.4-.31.5-.4,6.62-5.17,12.11-13.12,10.81-21.86,0,0,1.2.53,1.2.53-1.78,1.17-3.5,2.47-4.91,4.11-4.37,4.87-6.68,11.4-7.68,17.74h0Z"/><path class="cls-1" d="m233.03,181.11c-.06-.15-.03-.36-.02-.51.34-4.32,1.43-8.56,3.23-12.51,2.05-4.55,5.5-8.35,9.67-11.09,0,0,.17,1.28.17,1.28.85,4.67.25,9.8-2.4,13.82-2.39,3.75-5.8,6.71-9.75,8.66-.25.09-.62.33-.9.34h0Zm.11-.17c.05-.07.02-.1.07-.13.1-.08.4-.31.5-.4,6.62-5.17,12.11-13.12,10.81-21.86,0,0,1.2.53,1.2.53-1.78,1.17-3.5,2.47-4.91,4.11-4.37,4.87-6.68,11.4-7.68,17.74h0Z"/><path class="cls-1" d="m231.77,162.73c-.1-.13-.13-.33-.16-.48-.89-4.24-1.03-8.62-.4-12.91.69-4.94,2.94-9.56,6.18-13.36,0,0,.52,1.18.52,1.18,2.13,4.25,2.99,9.34,1.57,13.94-1.24,4.27-3.68,8.07-6.93,11.05-.22.16-.51.49-.77.58h0Zm.06-.19c.03-.08-.01-.1.03-.14.07-.11.3-.41.37-.52,4.9-6.82,7.94-15.99,4.25-24.01,0,0,1.3.17,1.3.17-1.38,1.62-2.67,3.36-3.56,5.33-2.83,5.9-3.22,12.82-2.39,19.18h0Z"/><path class="cls-1" d="m225.81,149.64c.18-6.41-.89-13.25-4.3-18.84-1.08-1.87-2.54-3.47-4.08-4.94l1.28-.3c-2.88,8.35,1.07,17.17,6.63,23.47.08.08.34.4.42.48.05.04.01.06.05.14h0Zm.08.19c-.27-.07-.58-.36-.82-.5-3.54-2.64-6.34-6.18-8-10.3-1.87-4.44-1.53-9.59.17-14.03,0,0,.4-1.23.4-1.23,3.6,3.45,6.3,7.82,7.48,12.67,1.06,4.21,1.35,8.58.89,12.89-.02.15-.02.36-.11.5h0Z"/><path class="cls-1" d="m227.89,165.95s-.07-.02-.08-.08c0,0-.04-.17-.04-.17l-.09-.35c-1.49-5.19-4.2-10.21-8.27-13.8-1.38-1.26-3-2.19-4.64-3l1.13-.67c-.17,7.6,5.34,13.81,11.45,17.66.09.05.38.25.47.3.05.02.01.05.06.11h0Zm.13.15c-.25.03-.59-.14-.83-.19-3.64-1.21-6.91-3.41-9.38-6.39-3.09-3.55-3.81-8.48-3.45-13.01,5.79,2.76,10.01,7.95,12.14,13.92.63,1.69,1.15,3.44,1.48,5.22.02.13.07.31.03.45h0Z"/><path class="cls-1" d="m230.97,188.24c-.04-.05-.07-.02-.07-.08,0,0-.03-.18-.03-.18,0,0-.07-.35-.07-.35-1.18-5.34-3.6-10.56-7.48-14.45-1.31-1.36-2.89-2.4-4.49-3.32l1.17-.6c-.65,7.67,4.53,14.28,10.47,18.54.09.06.36.27.46.33.05.02.01.05.05.11h0Zm.12.16c-.25.01-.58-.17-.82-.24-3.6-1.46-6.76-3.87-9.06-7.04-2.89-3.77-3.32-8.78-2.67-13.33,5.66,3.14,9.6,8.64,11.38,14.79.53,1.75.94,3.55,1.17,5.36.01.13.06.32,0,.46h0Z"/><path class="cls-1" d="m230.97,207.39c-.04-.05-.07-.02-.07-.08,0,0-.03-.18-.03-.18l-.07-.35c-1.18-5.34-3.6-10.56-7.48-14.45-1.31-1.36-2.89-2.4-4.49-3.32l1.17-.6c-.65,7.67,4.53,14.28,10.47,18.54.09.06.36.27.46.33.05.02.01.05.05.11h0Zm.12.16c-.25.01-.58-.17-.82-.24-3.6-1.46-6.76-3.87-9.06-7.04-2.89-3.77-3.32-8.78-2.67-13.33,5.66,3.14,9.6,8.64,11.38,14.79.53,1.75.94,3.55,1.17,5.36.01.13.06.32,0,.46h0Z"/><path class="cls-1" d="m229.6,225.82c-.04-.05-.07-.02-.07-.08l-.03-.18-.07-.35c-1.18-5.34-3.6-10.56-7.48-14.45-1.31-1.36-2.89-2.4-4.49-3.32l1.17-.6c-.65,7.67,4.53,14.28,10.47,18.54.09.06.36.27.46.33.05.02.01.05.05.11h0Zm.12.16c-.25.01-.58-.17-.82-.24-3.6-1.46-6.76-3.87-9.06-7.04-2.89-3.77-3.32-8.78-2.67-13.33,5.66,3.14,9.6,8.64,11.38,14.79.53,1.75.94,3.55,1.17,5.36.01.13.06.32,0,.46h0Z"/><path class="cls-1" d="m226.94,240.88c-1.54-6.14-5.1-12.34-11.01-15.2,0,0,1.15-.61,1.15-.61-.04,1.61.01,3.23.58,4.73,1.51,4.48,5.06,7.97,8.85,10.7.08.05.31.23.39.28.03.02,0,.05.03.1h0Zm.12.16c-.22.03-.52-.13-.73-.18-4.79-1.71-9.25-5.42-10.54-10.53-.27-1.05-.39-2.34-.42-3.41.07-.95.18-2.35.25-3.3,3.36,1.87,6.36,4.46,8.26,7.84,1.63,2.83,2.71,5.95,3.19,9.17.01.12.06.28,0,.41h0Z"/></g><g><path class="cls-1" d="m185.51,60.38c-5.54,0-10.04-5.44-10.04-12.13s4.5-12.13,10.04-12.13,10.04,5.44,10.04,12.13-4.5,12.13-10.04,12.13Zm0-23.83c-5.3,0-9.61,5.25-9.61,11.7s4.31,11.7,9.61,11.7,9.61-5.25,9.61-11.7-4.31-11.7-9.61-11.7Z"/><path class="cls-1" d="m182.63,36.79c-3.53,3.82-5.79,9.26-4.53,14.46.7,3.1,2.46,5.84,4.53,8.23-.37-.38-.75-.76-1.1-1.15-.88-1-1.68-2.09-2.34-3.24-.13-.26-.43-.82-.55-1.07-.15-.36-.33-.75-.46-1.12-.54-1.52-.87-3.14-.85-4.75.04-4.31,2.2-8.45,5.31-11.35h0Z"/><path class="cls-1" d="m190.27,37.62c-5.16,1.61-9.31,5.49-9.21,11.19.07,4.11,1.83,7.95,3.78,11.5-2.23-3.42-4.12-7.33-4.21-11.49-.13-5.85,4.2-9.92,9.63-11.2h0Z"/><path class="cls-1" d="m189.95,55.76s0-.04.01-.06c.07-.24.18-.47.3-.68.42-.77,1.13-1.33,1.95-1.61,0,.35-.03.7-.18,1.02-.13.26-.32.49-.54.68-.41.34-.91.55-1.42.65-.03,0-.09.02-.12.01h0Zm.02-.02s0-.01,0-.01c.01,0,.05-.03.07-.03.86-.43,1.88-1.06,1.94-2.12,0,0,.15.11.15.11-1,.3-1.77,1.12-2.16,2.06h0Z"/><path class="cls-1" d="m190.47,53.15s0-.04,0-.06c.03-.25.1-.49.18-.72.28-.83.89-1.5,1.65-1.92.06.34.09.7,0,1.04-.09.28-.23.54-.42.76-.35.4-.8.69-1.29.88-.03,0-.08.03-.11.03h0Zm.02-.02s0-.01,0-.02c.01,0,.05-.03.06-.04.78-.57,1.67-1.37,1.54-2.42,0,0,.17.08.17.08-.93.46-1.56,1.4-1.78,2.4h0Z"/><path class="cls-1" d="m190.81,50.44s0-.05,0-.07c.05-.62.21-1.23.47-1.8.3-.66.79-1.2,1.39-1.6,0,0,.02.18.02.18.12.67.04,1.41-.35,1.99-.34.54-.83.97-1.41,1.25-.04.01-.09.05-.13.05h0Zm.02-.02s0-.01.01-.02c.01-.01.06-.04.07-.06.95-.74,1.74-1.89,1.56-3.15,0,0,.17.08.17.08-.26.17-.5.36-.71.59-.63.7-.96,1.64-1.11,2.56h0Z"/><path class="cls-1" d="m190.59,47.64s0-.05,0-.07c.05-.62.21-1.23.47-1.8.3-.66.79-1.2,1.39-1.6,0,0,.02.18.02.18.12.67.04,1.41-.35,1.99-.34.54-.83.97-1.41,1.25-.04.01-.09.05-.13.05h0Zm.02-.02s0-.01.01-.02c.01-.01.06-.04.07-.06.95-.74,1.74-1.89,1.56-3.15,0,0,.17.08.17.08-.26.17-.5.36-.71.59-.63.7-.96,1.64-1.11,2.56h0Z"/><path class="cls-1" d="m190.41,44.99s-.02-.05-.02-.07c-.13-.61-.15-1.24-.06-1.86.1-.71.42-1.38.89-1.92,0,0,.07.17.07.17.31.61.43,1.34.23,2.01-.18.61-.53,1.16-1,1.59-.03.02-.07.07-.11.08h0Zm0-.03s0-.01,0-.02c.01-.02.04-.06.05-.08.71-.98,1.14-2.3.61-3.46,0,0,.19.03.19.03-.2.23-.38.48-.51.77-.41.85-.46,1.85-.34,2.76h0Z"/><path class="cls-1" d="m189.55,43.11c.03-.92-.13-1.91-.62-2.71-.16-.27-.37-.5-.59-.71l.18-.04c-.41,1.2.15,2.47.95,3.38.01.01.05.06.06.07,0,0,0,0,0,.02h0Zm.01.03s-.08-.05-.12-.07c-.51-.38-.91-.89-1.15-1.48-.27-.64-.22-1.38.02-2.02,0,0,.06-.18.06-.18.52.5.91,1.13,1.08,1.83.15.61.19,1.24.13,1.86,0,.02,0,.05-.02.07h0Z"/><path class="cls-1" d="m189.85,45.46s0,0-.01-.01v-.02s-.02-.05-.02-.05c-.21-.75-.61-1.47-1.19-1.99-.2-.18-.43-.32-.67-.43l.16-.1c-.02,1.1.77,1.99,1.65,2.54.01,0,.05.04.07.04,0,0,0,0,0,.02h0Zm.02.02s-.08-.02-.12-.03c-.52-.17-1-.49-1.35-.92-.44-.51-.55-1.22-.5-1.87.83.4,1.44,1.14,1.75,2,.09.24.17.5.21.75,0,.02.01.04,0,.07h0Z"/><path class="cls-1" d="m190.29,48.67s0,0-.01-.01c0,0,0-.03,0-.03,0,0-.01-.05-.01-.05-.17-.77-.52-1.52-1.08-2.08-.19-.2-.42-.35-.65-.48,0,0,.17-.09.17-.09-.09,1.1.65,2.06,1.51,2.67.01,0,.05.04.07.05,0,0,0,0,0,.02h0Zm.02.02s-.08-.03-.12-.03c-.52-.21-.97-.56-1.3-1.01-.42-.54-.48-1.26-.38-1.92.82.45,1.38,1.24,1.64,2.13.08.25.14.51.17.77,0,.02,0,.05,0,.07h0Z"/><path class="cls-1" d="m190.29,51.43s0,0-.01-.01c0,0,0-.03,0-.03v-.05c-.18-.77-.53-1.52-1.09-2.08-.19-.2-.42-.35-.65-.48l.17-.09c-.09,1.1.65,2.06,1.51,2.67.01,0,.05.04.07.05,0,0,0,0,0,.02h0Zm.02.02s-.08-.03-.12-.03c-.52-.21-.97-.56-1.3-1.01-.42-.54-.48-1.26-.38-1.92.82.45,1.38,1.24,1.64,2.13.08.25.14.51.17.77,0,.02,0,.05,0,.07h0Z"/><path class="cls-1" d="m190.1,54.08s0,0-.01-.01v-.03s-.02-.05-.02-.05c-.17-.77-.52-1.52-1.08-2.08-.19-.2-.42-.35-.65-.48l.17-.09c-.09,1.1.65,2.06,1.51,2.67.01,0,.05.04.07.05,0,0,0,0,0,.02h0Zm.02.02s-.08-.03-.12-.03c-.52-.21-.97-.56-1.3-1.01-.42-.54-.48-1.26-.38-1.92.82.45,1.38,1.24,1.64,2.13.08.25.14.51.17.77,0,.02,0,.05,0,.07h0Z"/><path class="cls-1" d="m189.71,56.25c-.22-.88-.74-1.78-1.59-2.19,0,0,.17-.09.17-.09-.07.99.68,1.73,1.42,2.28h0Zm.02.02c-1.09-.28-1.9-1.37-1.65-2.5.95.48,1.53,1.46,1.65,2.5h0Z"/></g><g><path class="cls-1" d="m96.53,58.74c.71,1.5,1.07,2.25,1.78,3.74-2.99,1.42-4.47,2.17-7.41,3.71.95,1.8,1.42,2.71,2.36,4.51,2.41-1.27,3.63-1.88,6.07-3.06.72,1.49,1.08,2.24,1.81,3.73-2.39,1.16-3.59,1.76-5.95,3,1.8,3.44,2.71,5.16,4.51,8.6-1.4.73-2.1,1.11-3.49,1.87-4.45-8.1-6.68-12.14-11.13-20.24,4.52-2.49,6.82-3.66,11.44-5.87Z"/><path class="cls-1" d="m116.16,75.28c-1.45.6-2.17.9-3.6,1.53-3.7-8.47-5.55-12.7-9.24-21.17,2.53-1.11,3.81-1.64,6.36-2.66,3.17-1.27,7.14-1.68,9.23,4.09.08.22.12.33.2.56,1.27,3.51.63,5.69-.71,7.12,2.43,2.92,3.62,4.39,5.96,7.36-1.58.57-2.37.87-3.95,1.48-2.16-2.72-3.26-4.07-5.49-6.75-.77.31-1.16.47-1.93.79,1.27,3.07,1.9,4.6,3.17,7.66Zm-2.35-12.47c1.05-.42,2.2-1.41,1.27-3.84-.04-.11-.06-.17-.11-.28-.94-2.43-2.5-2.37-3.58-1.94-.99.4-1.49.6-2.47,1,1,2.41,1.49,3.61,2.49,6.02.96-.4,1.44-.59,2.4-.97Z"/><path class="cls-1" d="m128.72,62.87c-1.95-6.01-2.92-9.01-4.86-15.02,1.65-.53,2.48-.79,4.13-1.29,1.81,5.99,2.72,8.98,4.53,14.97.71,2.35,1.68,3.35,3.83,2.73,2.16-.62,2.47-1.98,1.82-4.35-1.64-6.04-2.46-9.05-4.1-15.09,1.67-.45,2.5-.67,4.18-1.09,1.54,6.12,2.31,9.19,3.85,15.31,1.23,4.88.27,7.81-4.6,9.21-4.87,1.4-7.22-.58-8.77-5.37Z"/><path class="cls-1" d="m157.32,46.71c-.02-.13-.03-.19-.05-.32-.68-4.12,1.42-7.23,6.1-7.85,5.05-.67,7.52,1.67,8.05,7.06.02.25.04.37.06.62-1.64.16-2.47.25-4.11.45-.35-3-1.32-4.3-3.44-4.02-.09.01-.14.02-.23.03-1.68.22-2.51,1.42-2.29,2.89,0,.06.01.09.02.15.24,1.67.96,2.44,3.88,2.52,4.36.12,6.69,1.66,7.1,5.93.01.12.02.18.03.29.43,4.42-1.65,7.18-5.96,7.75-4.33.57-6.99-1.41-7.9-6.91-.02-.11-.03-.16-.04-.26,1.58-.26,2.37-.39,3.95-.62.42,2.87,1.55,3.93,3.35,3.69.09-.01.13-.02.22-.03,1.8-.24,2.55-1.51,2.37-3.04,0-.06-.01-.09-.02-.15-.19-1.65-1.02-2.49-3.86-2.56-4.28-.1-6.56-1.5-7.24-5.62Z"/><path class="cls-1" d="m198.83,49.24c.01-.47.02-.71.03-1.18.24-7.99,2.91-11.31,8.25-10.96,4.92.32,7.28,2.91,6.71,8.66-.04.42-.06.64-.1,1.06-1.64-.16-2.46-.24-4.1-.37.25-3.16-.2-5.05-2.54-5.2-.09,0-.14,0-.23-.02-2.78-.18-3.61,2.37-3.83,6.99-.02.47-.03.71-.06,1.18-.23,4.61.28,7.2,3.02,7.38.09,0,.13,0,.22.01,1.11.07,2.01-.24,2.63-.7.12-1.48.18-2.21.29-3.69-1.02-.08-1.52-.12-2.54-.19.11-1.65.17-2.48.28-4.14,2.67.18,4,.29,6.66.55-.4,4.06-.6,6.08-1,10.14-1.53,1.28-3.5,2.36-6.71,2.15-5.01-.33-7.21-3.69-6.97-11.69Z"/><path class="cls-1" d="m232.2,40.48c.4,9.48.49,14.22.45,23.67-1.62-.33-2.42-.49-4.04-.78,0-2.02,0-3.03-.02-5.06-1.83-.33-2.75-.48-4.59-.76-.66,1.91-.99,2.87-1.63,4.78-1.64-.25-2.45-.36-4.09-.57,3.03-8.95,4.64-13.4,8.09-22.24,2.34.36,3.51.55,5.84.97Zm-6.8,13.08c1.26.2,1.89.3,3.14.52-.04-3.46-.08-5.19-.17-8.65-1.21,3.24-1.81,4.87-2.97,8.13Z"/><path class="cls-1" d="m253.99,45.54c-.54,9.48-.92,14.2-1.89,23.6-1.58-.49-2.38-.73-3.97-1.19.2-2.01.3-3.02.48-5.04-1.8-.51-2.7-.76-4.52-1.23-.85,1.84-1.27,2.75-2.11,4.6-1.61-.41-2.42-.61-4.03-.98,3.91-8.6,5.97-12.87,10.29-21.32,2.3.59,3.45.9,5.74,1.56Zm-8.1,12.33c1.24.33,1.85.49,3.09.84.3-3.45.44-5.17.68-8.63-1.53,3.11-2.29,4.66-3.77,7.79Z"/><path class="cls-1" d="m261.91,72.48c-1.46-.54-2.2-.8-3.67-1.31,3.03-8.73,4.55-13.09,7.58-21.82,2.59.9,3.88,1.37,6.45,2.35,3.19,1.22,6.39,3.62,4.02,9.27-.09.22-.14.33-.23.55-1.45,3.44-3.4,4.61-5.36,4.74-.19,3.79-.31,5.68-.61,9.45-1.56-.66-2.34-.97-3.91-1.6.26-3.46.37-5.2.55-8.68-.78-.3-1.17-.44-1.95-.73-1.15,3.11-1.72,4.67-2.87,7.78Zm6.73-10.76c1.05.4,2.57.46,3.53-1.96.04-.11.07-.16.11-.28.96-2.42-.23-3.43-1.31-3.85-1-.38-1.49-.57-2.49-.94-.9,2.44-1.35,3.67-2.26,6.11.97.36,1.45.54,2.42.91Z"/><path class="cls-1" d="m281.89,81.12c-2.08-1.04-3.13-1.54-5.23-2.52,3.88-8.38,5.82-12.58,9.7-20.96,2.35,1.09,3.51,1.65,5.84,2.81,5.64,2.81,6.51,6.75,2.65,13.76-.23.42-.34.62-.57,1.04-3.85,7.01-7.34,8.4-12.39,5.88Zm1.65-3.81c3,1.49,4.85.02,6.99-4.08.22-.42.33-.63.55-1.05,2.14-4.09,2.27-6.53-.95-8.13-.65-.32-.97-.48-1.62-.8-2.59,5.32-3.89,7.99-6.48,13.31.61.3.91.44,1.52.75Z"/></g></g></svg>